<svg width="30.000000" height="30.000000" viewBox="0 0 30 30" fill="none" xmlns="http://www.w3.org/2000/svg" xmlns:xlink="http://www.w3.org/1999/xlink">
	<desc>
			Created with Pixso.
	</desc>
	<defs>
		<clipPath id="clip0_311">
			<rect id="Call 1" width="30.000000" height="30.000000" fill="white" fill-opacity="0"/>
		</clipPath>
	</defs>
	<rect id="Call 1" width="30.000000" height="30.000000" fill="#FFFFFF" fill-opacity="0"/>
	<g clip-path="url(#clip0_311)">
		<path id="Vector" d="M22.7 17.97C21.86 17.79 21.2 18.18 20.61 18.52C20.01 18.87 18.86 19.8 18.21 19.56C14.85 18.18 11.68 15.24 10.32 11.86C10.08 11.19 11 10.04 11.35 9.43C11.69 8.84 12.07 8.17 11.89 7.32C11.74 6.56 9.7 3.97 8.98 3.26C8.51 2.8 8.02 2.54 7.52 2.5C5.65 2.42 3.55 4.92 3.18 5.52C2.26 6.8 2.27 8.5 3.2 10.56C5.44 16.09 13.93 24.45 19.49 26.78C20.51 27.26 21.45 27.5 22.29 27.5C23.11 27.5 23.85 27.27 24.48 26.81C24.96 26.54 27.56 24.34 27.49 22.41C27.45 21.92 27.2 21.43 26.73 20.95C26.03 20.22 23.46 18.13 22.7 17.97Z" fill="#64646A" fill-opacity="1.000000" fill-rule="nonzero"/>
	</g>
</svg>
