<svg width="21.000000" height="19.000000" viewBox="0 0 21 19" fill="none" xmlns="http://www.w3.org/2000/svg" xmlns:xlink="http://www.w3.org/1999/xlink">
	<desc>
			Created with Pixso.
	</desc>
	<defs/>
	<path id="Vector" d="M6.13 -0.5L2.41 6L1 6C0.68 6 0.39 6.14 0.2 6.39C0.01 6.64 -0.05 6.96 0.03 7.26L2.83 17.52C3.06 18.39 3.86 19 4.76 19L15.23 19C16.13 19 16.92 18.39 17.16 17.52L19.96 7.26C20.04 6.96 19.98 6.63 19.79 6.39C19.6 6.14 19.31 6 19 6L17.58 6L13.86 -0.5L12.13 0.49L15.27 6L4.72 6L7.86 0.49L6.13 -0.5ZM12 10L14 10L14 15L12 15L12 10ZM6 10L8 10L8 15L6 15L6 10Z" fill="#1B1B1D" fill-opacity="1.000000" fill-rule="nonzero"/>
</svg>
