<svg width="150.000000" height="150.000000" viewBox="0 0 150 150" fill="none" xmlns="http://www.w3.org/2000/svg" xmlns:xlink="http://www.w3.org/1999/xlink">
	<desc>
			Created with Pixso.
	</desc>
	<defs>
		<clipPath id="clip0_101">
			<rect id="fast-food" width="150.000000" height="150.000000" fill="white" fill-opacity="0"/>
		</clipPath>
	</defs>
	<rect id="fast-food" width="150.000000" height="150.000000" fill="#FFFFFF" fill-opacity="0"/>
	<g clip-path="url(#clip0_101)">
		<path id="Vector" d="M45.31 104.31C41.35 102.03 38.67 97.76 38.67 92.87C38.67 72.67 55.1 56.25 75.29 56.25L90.38 56.25L91.09 44.53L5.58 44.53L11.72 145.87C11.86 148.19 13.78 150 16.11 150L43.07 150C40.31 146.32 38.67 141.75 38.67 136.81C38.67 131.11 42.3 126.25 47.37 124.41C45.58 121.66 44.53 118.37 44.53 114.84C44.53 111.31 45.58 108.02 47.38 105.26C45.95 104.93 45.15 104.62 45.31 104.31Z" fill="#64646A" fill-opacity="1.000000" fill-rule="nonzero"/>
		<path id="Vector" d="M48.33 35.74C48.33 35.74 48.34 35.74 48.34 35.74L92.28 35.74C94.71 35.74 96.67 33.77 96.67 31.34C96.67 28.92 94.71 26.95 92.28 26.95L56.45 26.95L68.29 8.78L83.49 8.78C85.92 8.78 87.89 6.82 87.89 4.39C87.89 1.96 85.92 0 83.49 0L65.91 0C64.43 0 63.04 0.74 62.23 1.99L45.95 26.95L4.39 26.95C1.96 26.95 0 28.92 0 31.34C0 33.77 1.96 35.74 4.39 35.74L48.31 35.74C48.32 35.74 48.33 35.74 48.33 35.74Z" fill="#64646A" fill-opacity="1.000000" fill-rule="nonzero"/>
		<path id="Vector" d="M47.46 92.87C47.46 95.29 49.42 97.26 51.85 97.26L145.6 97.26C148.03 97.26 150 95.29 150 92.87C150 77.52 137.51 65.03 122.16 65.03L75.29 65.03C59.94 65.03 47.46 77.52 47.46 92.87Z" fill="#64646A" fill-opacity="1.000000" fill-rule="nonzero"/>
		<path id="Vector" d="M62.1 106.05C57.25 106.05 53.32 109.98 53.32 114.84C53.32 119.69 57.25 123.63 62.1 123.63L135.35 123.63C140.2 123.63 144.14 119.69 144.14 114.84C144.14 109.98 140.2 106.05 135.35 106.05L62.1 106.05Z" fill="#64646A" fill-opacity="1.000000" fill-rule="nonzero"/>
		<path id="Vector" d="M145.6 132.42L51.85 132.42C49.42 132.42 47.46 134.38 47.46 136.81C47.46 144.08 53.37 150 60.64 150L136.81 150C144.08 150 150 144.08 150 136.81C150 134.38 148.03 132.42 145.6 132.42Z" fill="#64646A" fill-opacity="1.000000" fill-rule="nonzero"/>
	</g>
</svg>
