<svg width="97.000000" height="151.000000" viewBox="0 0 97 151" fill="none" xmlns="http://www.w3.org/2000/svg" xmlns:xlink="http://www.w3.org/1999/xlink">
	<desc>
			Created with Pixso.
	</desc>
	<defs/>
	<path id="Vector" d="M89.15 51.64C87.48 50.57 86.61 48.65 86.93 46.75C91.04 22.38 72.23 0.34 48.03 0C22.83 -0.36 3.54 22.35 8.06 47.24C8.4 49.11 7.64 51.03 6.12 52.12C1.93 55.15 -0.38 60.05 -0.07 65.22C0.75 78.71 17.64 84.24 26.33 74.06C26.45 74.13 26.57 74.21 26.7 74.28C27.97 75.06 28.73 76.38 28.73 77.81L28.73 84.28C28.73 86.73 29.71 89.02 31.47 90.73C37.1 96.16 46.65 92.26 46.65 84.12L46.65 69.47C46.65 65.9 50.82 64.01 53.36 66.48C54.13 67.23 54.56 68.24 54.56 69.32L54.56 76.82C54.56 81.85 58.71 85.95 63.85 85.78C70.6 85.53 72.04 80.42 72.41 76.55C82.13 83.41 95.63 76.72 96.08 64.86C96.27 59.56 93.62 54.49 89.15 51.64ZM41.33 20.89C39.2 21.6 39.06 21.97 38.12 21.97C35.45 21.97 34.65 18.33 37.06 17.2C37.94 16.8 38.85 16.44 39.76 16.13C41.08 15.7 42.49 16.41 42.93 17.73C43.36 19.04 42.65 20.45 41.33 20.89ZM25.66 37.12C24.03 37.12 22.83 35.6 23.22 34.02C24.11 30.4 25.84 26.95 28.22 24.05C29.1 22.99 30.68 22.83 31.75 23.71C32.81 24.59 32.97 26.17 32.09 27.23C30.18 29.55 28.8 32.31 28.08 35.21C27.8 36.35 26.78 37.12 25.66 37.12ZM77.39 83.97C78.86 84.24 79.71 85.79 79.16 87.19L56.77 143.71C53.46 152.09 41.44 152.09 38.13 143.71L15.81 87.36C15.24 85.92 16.18 84.33 17.72 84.12C18.73 83.98 19.73 83.76 20.72 83.46C22.17 83.02 23.66 84.01 23.8 85.52C24.03 87.96 24.91 91.36 28 94.33C35.66 101.72 47.83 97.99 50.92 88.73C51.45 87.14 53.41 86.61 54.71 87.67C60.82 92.62 70.52 91.66 74.92 84.95C75.41 84.21 76.33 83.77 77.39 83.97Z" fill="#64646A" fill-opacity="1.000000" fill-rule="nonzero"/>
</svg>
