<svg width="150.000000" height="147.000000" viewBox="0 0 150 147" fill="none" xmlns="http://www.w3.org/2000/svg" xmlns:xlink="http://www.w3.org/1999/xlink">
	<desc>
			Created with Pixso.
	</desc>
	<defs/>
	<path id="Vector" d="M125.62 76.7C124.94 75.92 124.36 75.07 123.89 74.18C123.65 98.3 103.96 117.85 79.78 117.85C55.46 117.85 35.68 98.06 35.68 73.74C35.68 49.42 55.46 29.64 79.78 29.64C100.71 29.64 118.27 44.28 122.77 63.86L126.77 34.16L126.86 33.49C115.48 20.21 98.6 11.78 79.78 11.78C65.1 11.78 51.6 16.91 40.97 25.48L40.97 26.12L40.97 26.69L40.97 39.26L40.97 39.76C40.97 48.16 36.62 55.83 29.73 60.22L29.73 109.38L29.73 110.22C41.01 125.66 59.24 135.71 79.78 135.71C101.37 135.71 120.41 124.61 131.5 107.83L131.5 106.92L131.5 80.59C129.25 79.86 127.21 78.53 125.62 76.7Z" fill="#64646A" fill-opacity="1.000000" fill-rule="nonzero"/>
	<path id="Vector" d="M79.78 37.13C59.6 37.13 43.17 53.56 43.17 73.74C43.17 93.93 59.6 110.36 79.78 110.36C99.97 110.36 116.4 93.93 116.4 73.74C116.4 53.56 99.97 37.13 79.78 37.13Z" fill="#64646A" fill-opacity="1.000000" fill-rule="nonzero"/>
	<path id="Vector" d="M149.83 5.23C149.83 2.04 147.24 -0.55 144.05 -0.55C141.16 -0.55 138.71 1.59 138.33 4.46L129.89 67.2C129.67 68.85 130.17 70.52 131.26 71.77C132.36 73.03 133.95 73.74 135.61 73.74L139 73.74L139 141.04C139 144.08 141.46 146.54 144.5 146.54C147.53 146.54 150 144.08 150 141.04L149.83 5.23Z" fill="#64646A" fill-opacity="1.000000" fill-rule="nonzero"/>
	<path id="Vector" d="M33.48 6.45C33.48 4.38 31.8 2.7 29.73 2.7C27.66 2.7 25.98 4.38 25.98 6.45L25.98 27.19L20.48 27.19L20.48 6.45C20.48 4.38 18.81 2.7 16.74 2.7C14.67 2.7 12.99 4.38 12.99 6.45L12.99 27.19L7.49 27.19L7.49 6.45C7.49 4.38 5.81 2.7 3.74 2.7C1.67 2.7 0 4.38 0 6.45L0 40.26C0 47.57 4.7 53.79 11.24 56.07L11.24 141.04C11.24 144.08 13.7 146.54 16.74 146.54C19.77 146.54 22.23 144.08 22.23 141.04L22.23 56.07C28.77 53.79 33.48 47.57 33.48 40.26L33.48 6.45Z" fill="#64646A" fill-opacity="1.000000" fill-rule="nonzero"/>
</svg>
