<svg width="30.000000" height="30.000000" viewBox="0 0 30 30" fill="none" xmlns="http://www.w3.org/2000/svg" xmlns:xlink="http://www.w3.org/1999/xlink">
	<desc>
			Created with Pixso.
	</desc>
	<defs>
		<clipPath id="clip0_321">
			<rect id="bxl-instagram-alt 1" width="30.000000" height="30.000000" fill="white" fill-opacity="0"/>
		</clipPath>
	</defs>
	<rect id="bxl-instagram-alt 1" width="30.000000" height="30.000000" fill="#FFFFFF" fill-opacity="0"/>
	<g clip-path="url(#clip0_321)">
		<path id="Vector" d="M26.18 10.38C26.16 9.43 25.99 8.49 25.65 7.61C25.07 6.09 23.88 4.9 22.36 4.31C21.49 3.99 20.57 3.81 19.63 3.79C18.43 3.74 18.05 3.72 15 3.72C11.94 3.72 11.55 3.72 10.36 3.79C9.42 3.81 8.5 3.99 7.63 4.31C6.12 4.9 4.92 6.09 4.33 7.61C4.01 8.48 3.83 9.4 3.81 10.34C3.76 11.54 3.74 11.92 3.74 14.97C3.74 18.03 3.74 18.42 3.81 19.61C3.83 20.55 4.01 21.47 4.33 22.35C4.92 23.86 6.12 25.05 7.63 25.64C8.5 25.98 9.42 26.17 10.36 26.2C11.56 26.25 11.94 26.27 15 26.27C18.05 26.27 18.44 26.27 19.63 26.2C20.57 26.18 21.49 26 22.37 25.67C23.88 25.09 25.07 23.89 25.66 22.38C25.99 21.51 26.16 20.59 26.18 19.65C26.24 18.45 26.25 18.07 26.25 15.01C26.25 11.96 26.25 11.57 26.18 10.38ZM14.99 20.75C11.79 20.75 9.21 18.16 9.21 14.97C9.21 11.78 11.79 9.19 14.99 9.19C18.18 9.19 20.77 11.78 20.77 14.97C20.77 18.16 18.18 20.75 14.99 20.75ZM21 10.32C20.25 10.32 19.65 9.72 19.65 8.98C19.65 8.23 20.25 7.63 21 7.63C21.74 7.63 22.34 8.23 22.34 8.98C22.34 9.72 21.74 10.32 21 10.32Z" fill="#64646A" fill-opacity="1.000000" fill-rule="nonzero"/>
		<path id="Vector" d="M18.74 14.97C18.74 17.04 17.06 18.72 14.99 18.72C12.91 18.72 11.23 17.04 11.23 14.97C11.23 12.9 12.91 11.22 14.99 11.22C17.06 11.22 18.74 12.9 18.74 14.97Z" fill="#64646A" fill-opacity="1.000000" fill-rule="evenodd"/>
	</g>
</svg>
