<svg width="30.000000" height="30.000000" viewBox="0 0 30 30" fill="none" xmlns="http://www.w3.org/2000/svg" xmlns:xlink="http://www.w3.org/1999/xlink">
	<desc>
			Created with Pixso.
	</desc>
	<defs>
		<clipPath id="clip0_330">
			<rect id="bxl-linkedin 1" width="30.000000" height="30.000000" fill="white" fill-opacity="0"/>
		</clipPath>
	</defs>
	<rect id="bxl-linkedin 1" width="30.000000" height="30.000000" fill="#FFFFFF" fill-opacity="0"/>
	<g clip-path="url(#clip0_330)">
		<path id="Vector" d="M8.96 6.26C8.96 7.77 7.73 8.99 6.22 8.99C4.71 8.99 3.49 7.77 3.49 6.26C3.49 4.75 4.71 3.52 6.22 3.52C7.73 3.52 8.96 4.75 8.96 6.26Z" fill="#64646A" fill-opacity="1.000000" fill-rule="evenodd"/>
		<path id="Vector" d="M11.54 11.06L11.54 26.24L16.25 26.24L16.25 18.73C16.25 16.75 16.62 14.84 19.08 14.84C21.5 14.84 21.53 17.1 21.53 18.86L21.53 26.24L26.25 26.24L26.25 17.92C26.25 13.83 25.37 10.69 20.59 10.69C18.29 10.69 16.76 11.95 16.13 13.14L16.06 13.14L16.06 11.06L11.54 11.06ZM3.86 11.06L8.58 11.06L8.58 26.24L3.86 26.24L3.86 11.06Z" fill="#64646A" fill-opacity="1.000000" fill-rule="nonzero"/>
	</g>
</svg>
