<svg width="30.000000" height="30.000000" viewBox="0 0 30 30" fill="none" xmlns="http://www.w3.org/2000/svg" xmlns:xlink="http://www.w3.org/1999/xlink">
	<desc>
			Created with Pixso.
	</desc>
	<defs>
		<clipPath id="clip0_326">
			<rect id="bxl-twitter 1" width="30.000000" height="30.000000" fill="white" fill-opacity="0"/>
		</clipPath>
	</defs>
	<rect id="bxl-twitter 1" width="30.000000" height="30.000000" fill="#FFFFFF" fill-opacity="0"/>
	<g clip-path="url(#clip0_326)">
		<path id="Vector" d="M24.54 9.99C24.55 10.21 24.55 10.43 24.55 10.65C24.55 17.3 19.49 24.97 10.23 24.97C7.38 24.97 4.72 24.15 2.5 22.71C2.9 22.76 3.29 22.77 3.71 22.77C6.06 22.77 8.23 21.98 9.96 20.62C7.75 20.58 5.89 19.13 5.25 17.13C5.56 17.18 5.88 17.21 6.2 17.21C6.66 17.21 7.11 17.15 7.53 17.04C5.22 16.57 3.49 14.54 3.49 12.1L3.49 12.03C4.17 12.41 4.94 12.64 5.77 12.67C4.41 11.77 3.52 10.23 3.52 8.48C3.52 7.54 3.77 6.69 4.21 5.94C6.69 8.99 10.41 10.99 14.59 11.21C14.51 10.83 14.47 10.44 14.47 10.05C14.47 7.28 16.71 5.02 19.5 5.02C20.95 5.02 22.26 5.63 23.18 6.61C24.32 6.39 25.41 5.97 26.38 5.39C26 6.56 25.21 7.54 24.16 8.17C25.18 8.06 26.16 7.78 27.06 7.39C26.38 8.39 25.52 9.27 24.54 9.99Z" fill="#64646A" fill-opacity="1.000000" fill-rule="nonzero"/>
	</g>
</svg>
