<?xml version="1.0" standalone="no"?>
<!DOCTYPE svg PUBLIC "-//W3C//DTD SVG 20010904//EN"
 "http://www.w3.org/TR/2001/REC-SVG-20010904/DTD/svg10.dtd">
<svg version="1.0" xmlns="http://www.w3.org/2000/svg"
 width="418.000000pt" height="626.000000pt" viewBox="0 0 418.000000 626.000000"
 preserveAspectRatio="xMidYMid meet">

<g transform="translate(0.000000,626.000000) scale(0.100000,-0.100000)"
fill="#000000" stroke="none">
<path d="M0 5736 l0 -523 31 -7 c17 -3 46 -6 64 -6 55 0 110 -61 136 -152 10
-35 -7 -96 -34 -126 -21 -22 -45 -25 -92 -12 -5 1 -31 2 -57 1 l-48 -1 0 -184
0 -184 27 -18 c33 -22 103 -25 127 -5 23 19 50 115 51 181 2 123 5 140 20 140
8 0 20 10 26 23 18 35 51 67 70 67 18 0 51 -66 54 -110 1 -14 3 -35 3 -46 1
-14 11 -24 26 -28 22 -5 23 -11 29 -103 6 -87 4 -100 -12 -113 -27 -23 -48
-61 -55 -99 -3 -18 -17 -42 -31 -53 -39 -30 -31 -59 35 -138 33 -39 60 -76 60
-81 0 -20 2 -25 17 -41 9 -10 13 -26 10 -40 -5 -19 6 -56 32 -107 8 -16 23
-25 65 -37 16 -5 30 -16 32 -24 13 -67 19 -80 40 -80 8 0 13 4 10 9 -3 5 1 11
9 15 9 3 15 19 15 41 0 27 7 42 27 59 15 13 28 32 29 42 0 11 1 35 2 55 1 23
13 50 32 74 16 21 30 48 30 60 0 12 7 42 16 66 9 24 17 78 18 119 1 41 7 84
14 95 12 20 12 20 30 -3 16 -21 169 -179 220 -226 23 -22 25 -36 22 -147 -1
-64 0 -67 35 -97 20 -18 41 -32 48 -32 55 1 53 114 -4 164 -75 67 15 140 147
119 30 -5 32 -8 47 -82 19 -96 29 -119 61 -158 35 -42 76 -55 110 -37 30 15
28 17 45 -51 22 -83 20 -86 -61 -85 -154 2 -248 -12 -248 -34 0 -8 -13 -19
-29 -25 -15 -7 -35 -24 -42 -39 -17 -33 -79 -98 -91 -94 -5 1 -11 -4 -14 -12
-3 -8 -12 -12 -20 -9 -8 3 -14 0 -14 -6 0 -6 -12 -11 -26 -11 -15 0 -37 -12
-54 -28 -16 -16 -38 -28 -51 -28 -16 1 -25 -8 -34 -34 -8 -23 -14 -30 -18 -20
-3 8 -6 -6 -6 -32 -1 -26 -6 -48 -13 -50 -22 -8 -10 -109 19 -153 41 -64 65
-87 75 -73 5 9 8 6 8 -9 0 -12 5 -25 10 -28 6 -3 10 2 10 12 0 10 3 28 6 40 5
19 3 21 -17 16 -14 -4 -20 -2 -15 5 3 6 18 9 31 6 27 -5 35 13 10 22 -8 4 -15
13 -15 21 0 8 5 11 10 8 6 -3 10 -1 10 4 0 6 16 17 35 25 19 8 59 37 88 64 51
48 122 92 150 92 8 0 26 14 40 30 15 17 32 30 38 30 5 0 8 4 5 9 -10 15 41 53
66 49 12 -2 22 -7 20 -13 -2 -5 6 -13 18 -17 15 -5 20 -13 16 -24 -3 -9 -9
-28 -13 -42 -6 -25 -5 -26 12 -12 16 14 17 13 12 -5 -3 -11 -8 -32 -11 -48 -3
-15 -8 -36 -11 -47 -4 -11 -2 -20 4 -20 6 0 11 -9 11 -19 0 -11 5 -23 12 -27
6 -4 8 -3 5 2 -3 6 -2 16 4 24 6 11 9 6 9 -17 0 -19 -6 -36 -16 -41 -13 -7
-14 -13 -6 -28 11 -18 11 -18 12 -1 0 10 5 15 11 12 6 -4 9 0 7 10 -2 10 3 20
10 22 6 3 12 -1 12 -9 0 -7 7 -26 15 -41 8 -15 12 -34 8 -42 -4 -11 -1 -13 12
-8 15 5 17 2 13 -15 -4 -14 -2 -19 7 -16 7 3 16 -4 20 -15 3 -12 12 -27 19
-34 19 -18 158 -233 196 -303 18 -32 37 -61 42 -62 4 -2 34 -25 66 -51 46 -38
70 -49 120 -60 68 -13 112 -30 112 -42 0 -4 -25 -15 -55 -24 -55 -15 -95 -9
-95 15 0 5 -10 15 -22 21 -21 11 -20 10 4 -19 14 -17 29 -49 33 -72 5 -30 11
-40 25 -40 11 0 23 -7 27 -15 7 -12 15 -6 36 28 39 62 106 129 123 123 8 -3
11 0 8 8 -3 7 8 27 24 44 16 17 37 47 46 66 9 20 24 40 34 45 9 6 13 11 8 11
-4 0 8 18 28 40 20 22 36 46 36 54 0 7 10 24 22 38 35 39 71 101 107 188 6 14
15 32 20 40 22 36 51 301 29 268 -4 -7 -8 -23 -8 -34 0 -41 -48 -212 -75 -266
-31 -64 -115 -155 -126 -137 -4 8 -12 3 -24 -15 -10 -14 -24 -26 -31 -26 -8 0
-14 -7 -14 -15 0 -8 -6 -15 -13 -15 -8 0 -22 -9 -32 -20 -30 -33 -52 -26 -59
20 -5 29 -10 38 -21 34 -8 -4 -15 -1 -15 5 0 6 -6 8 -13 5 -7 -2 -19 6 -25 18
-19 35 -40 128 -31 134 8 5 30 -29 28 -43 -3 -19 2 -34 10 -29 5 3 12 33 16
66 4 33 13 67 21 74 7 8 16 25 19 39 4 15 13 32 21 38 11 9 12 14 3 20 -9 5
-8 11 4 23 8 9 19 16 24 16 13 0 44 56 36 64 -4 4 0 4 9 1 10 -4 21 1 30 14 8
12 18 18 22 13 5 -4 6 2 4 13 -4 24 26 60 41 50 7 -3 11 -3 10 2 -1 4 -1 19 0
32 1 19 4 21 15 12 12 -10 19 -8 36 9 19 19 19 21 3 18 -13 -2 -18 4 -19 22
-1 14 -6 35 -12 47 -16 29 -15 34 3 27 8 -4 15 -14 15 -23 0 -13 2 -14 9 -1 6
8 7 18 5 22 -3 4 2 24 12 43 9 19 14 41 11 50 -4 8 -2 17 2 20 5 2 11 -5 14
-17 4 -12 9 -19 13 -16 8 8 34 -16 34 -31 0 -5 4 -12 9 -15 13 -9 8 27 -7 43
-16 16 -10 37 9 33 11 -3 12 -1 2 9 -7 7 -13 17 -13 22 0 4 6 5 13 0 18 -11
57 -15 57 -5 0 4 -4 12 -9 18 -14 13 -22 92 -10 99 5 4 9 15 9 26 0 10 5 19
10 19 6 0 10 31 10 73 0 79 -7 117 -22 117 -5 0 -20 13 -34 29 -25 30 -88 67
-138 82 -29 8 -29 8 -23 -31 7 -52 -9 -75 -45 -61 -19 7 -31 6 -44 -4 -26 -20
-43 -18 -37 3 2 11 -6 31 -21 49 -17 20 -26 43 -26 69 -1 52 10 116 22 132 7
7 7 12 1 12 -13 0 -44 133 -43 185 1 85 -1 97 -17 91 -8 -3 -21 -6 -29 -6 -8
0 -14 -7 -14 -16 0 -11 -6 -14 -22 -8 -29 8 -48 23 -48 38 0 6 5 4 10 -4 11
-16 13 -9 10 31 -1 17 7 33 22 45 24 19 27 54 4 54 -8 0 -11 10 -8 30 3 18 0
30 -7 30 -8 0 -11 29 -10 89 1 110 10 121 104 142 18 4 35 27 35 48 0 13 -17
33 -45 53 -25 18 -67 53 -93 77 -26 25 -38 38 -27 29 11 -8 61 -38 110 -67
l90 -51 -45 41 c-27 25 -37 39 -25 35 13 -4 5 7 -20 30 -24 22 -32 33 -20 29
11 -3 4 3 -15 13 -19 11 -38 18 -41 16 -4 -2 -12 3 -19 11 -15 18 -3 19 36 5
24 -9 25 -9 14 5 -7 8 -15 13 -18 11 -2 -3 -17 1 -33 10 -17 8 -29 10 -29 4 0
-5 -10 -10 -22 -9 -22 0 -22 1 -3 10 17 8 16 9 -5 4 -51 -12 -162 -23 -182
-17 -14 3 -19 1 -14 -6 5 -8 -2 -12 -21 -12 -15 0 -45 -3 -66 -7 -34 -5 -38
-4 -35 13 2 11 14 21 28 25 14 3 24 11 22 18 -2 9 5 12 22 9 14 -3 23 -1 20 3
-3 5 4 9 15 9 13 0 21 7 21 18 1 16 1 16 11 0 10 -19 83 -26 93 -10 3 5 24 8
48 7 42 -2 43 -1 54 39 l12 41 8 -35 c6 -29 8 -31 15 -15 6 17 8 15 8 -9 1
-20 5 -27 16 -23 8 4 17 2 20 -3 12 -19 26 -10 19 13 -7 22 -6 22 15 3 11 -11
21 -16 21 -12 0 4 9 2 20 -4 15 -8 20 -8 20 2 0 7 7 2 16 -10 9 -13 21 -21 27
-19 7 2 20 -2 29 -11 14 -12 20 -12 33 -2 11 9 15 9 15 1 0 -16 26 -42 34 -34
3 3 12 0 21 -7 12 -10 15 -10 15 4 0 10 5 14 10 11 6 -3 10 -15 10 -26 0 -10
5 -19 10 -19 6 0 10 5 10 10 0 6 5 10 10 10 6 0 10 -7 10 -16 0 -24 40 -85 51
-78 5 3 9 -6 9 -19 0 -14 7 -27 15 -31 8 -3 15 -17 15 -30 0 -18 20 -46 63
-90 96 -101 135 -150 141 -176 2 -14 13 -50 24 -80 10 -30 20 -82 21 -115 2
-33 4 -71 6 -85 1 -14 3 -69 4 -122 1 -89 3 -98 20 -98 36 0 42 -73 16 -188
-4 -14 -2 -21 4 -18 41 26 118 -90 108 -162 -8 -62 -45 -126 -109 -190 -34
-34 -67 -62 -72 -62 -5 0 -20 -10 -33 -22 -15 -14 -23 -17 -23 -8 0 8 -8 3
-20 -10 -11 -13 -20 -27 -20 -31 0 -16 53 -22 85 -10 39 14 65 14 65 1 0 -5
10 -10 23 -10 13 0 33 -9 45 -20 17 -16 39 -21 124 -25 63 -3 93 -1 78 4 -22
7 -19 9 25 16 43 7 56 14 94 58 41 48 43 53 38 97 -3 25 -18 77 -33 114 -59
149 -6 240 171 291 84 25 124 25 152 3 7 -6 19 -8 28 -5 18 8 25 -4 31 -50 6
-47 18 -61 49 -56 32 7 165 133 165 157 0 11 -11 42 -24 70 -13 28 -29 75 -37
103 -12 49 -11 55 9 90 12 21 32 59 44 86 13 29 28 47 39 47 9 0 21 6 27 13
14 18 36 189 29 238 -5 40 4 70 49 162 8 16 14 47 14 70 0 36 4 44 29 58 21
13 32 14 40 6 16 -16 73 16 89 50 9 20 12 143 12 505 l0 478 -1257 -5 c-692
-2 -1283 -4 -1313 -4 -30 0 -297 2 -593 5 l-539 5 32 -46 c65 -95 99 -183 110
-288 14 -140 1 -207 -50 -250 -63 -53 -122 -71 -147 -46 -7 7 -22 13 -35 14
-13 1 -29 3 -35 4 -7 0 -13 6 -13 13 0 6 -8 20 -17 30 -12 13 -18 38 -19 81
-2 79 -8 98 -56 169 -59 86 -78 144 -78 238 l0 80 -85 0 -85 0 0 -524z m1086
481 c8 -8 -16 -49 -40 -69 -26 -21 -89 -23 -106 -3 -17 21 -8 50 17 53 12 2
27 9 33 17 10 13 84 14 96 2z m101 -316 c26 -25 20 -66 -15 -103 -31 -34 -62
-35 -97 -5 -26 21 -26 25 -15 65 12 45 32 60 81 61 14 1 35 -8 46 -18z m540
-547 c-3 -3 -12 -4 -19 -1 -8 3 -5 6 6 6 11 1 17 -2 13 -5z m-1 -33 c-4 -5 0
-11 6 -14 9 -3 7 -7 -4 -12 -21 -8 -48 0 -48 14 0 5 8 12 18 14 29 8 33 7 28
-2z m-46 -63 c0 -6 -6 -5 -15 2 -8 7 -15 14 -15 16 0 2 7 1 15 -2 8 -4 15 -11
15 -16z m-69 -58 c6 0 -2 -13 -18 -29 -33 -34 -43 -32 -20 3 9 13 13 26 9 29
-4 2 -1 2 6 0 8 -1 18 -3 23 -3z m614 -49 c3 -5 1 -12 -5 -16 -5 -3 -10 1 -10
9 0 18 6 21 15 7z m-40 -21 c7 -12 -12 -12 -40 0 -18 8 -17 9 7 9 15 1 30 -3
33 -9z m-408 -153 c-20 -31 -37 -32 -37 -4 0 26 15 38 38 29 10 -4 10 -8 -1
-25z m308 -257 c-3 -5 -13 -10 -21 -10 -8 0 -14 5 -14 10 0 6 9 10 21 10 11 0
17 -4 14 -10z m-150 -490 c3 -5 1 -10 -4 -10 -6 0 -11 5 -11 10 0 6 2 10 4 10
3 0 8 -4 11 -10z m475 -150 c0 -5 -11 -10 -24 -10 -14 0 -28 5 -31 10 -4 6 7
10 24 10 17 0 31 -4 31 -10z m36 -115 c18 -14 17 -14 -12 -15 -18 0 -47 7 -65
15 l-34 14 46 1 c25 0 54 -7 65 -15z m11 -75 c16 0 34 -5 41 -12 16 -16 16
-98 0 -98 -6 0 -3 -7 8 -15 18 -14 18 -14 -4 -15 -13 0 -21 -3 -19 -7 6 -10
-45 -9 -60 0 -6 4 -14 1 -16 -5 -3 -8 -6 -6 -6 5 -1 9 -7 17 -13 17 -10 0 -10
2 0 9 10 6 10 10 -2 20 -13 11 -56 84 -56 96 0 10 66 21 82 14 9 -5 30 -9 45
-9z m153 -106 c0 -8 -4 -12 -10 -9 -5 3 -10 10 -10 16 0 5 5 9 10 9 6 0 10 -7
10 -16z m-201 -88 c-9 -10 -54 -10 -57 -1 -4 13 40 25 52 14 5 -5 8 -11 5 -13z
m28 -136 c0 -16 -4 -30 -9 -30 -9 0 -11 22 -2 44 9 23 11 20 11 -14z"/>
<path d="M2280 5135 c0 -9 5 -15 11 -13 6 2 11 8 11 13 0 5 -5 11 -11 13 -6 2
-11 -4 -11 -13z"/>
<path d="M2586 5032 c-2 -4 13 -27 35 -50 21 -24 39 -47 39 -51 0 -5 7 -12 16
-15 27 -10 29 -7 6 14 -12 12 -22 28 -22 36 0 8 -14 28 -30 44 -33 32 -36 34
-44 22z"/>
<path d="M2285 4690 c-3 -5 -1 -10 4 -10 6 0 11 5 11 10 0 6 -2 10 -4 10 -3 0
-8 -4 -11 -10z"/>
<path d="M2275 4664 c-13 -5 -10 -87 5 -113 6 -12 19 -21 30 -21 27 0 33 -16
20 -54 -9 -27 -8 -40 6 -69 21 -44 102 -90 153 -87 20 1 51 2 69 2 17 0 32 4
32 7 0 15 -32 51 -46 51 -8 0 -14 4 -14 8 0 12 46 32 72 32 17 0 18 2 8 15
-11 13 -10 14 4 9 9 -3 16 -14 16 -24 0 -17 26 -30 59 -30 10 0 8 6 -7 21 -12
11 -19 26 -16 32 4 7 4 9 -1 5 -4 -4 -21 4 -37 17 -16 14 -42 28 -56 31 -30 7
-52 22 -52 35 0 8 61 5 111 -6 22 -5 28 -3 24 7 -9 22 -118 93 -145 94 -14 1
-50 3 -81 4 -31 2 -61 0 -68 -4 -18 -11 -48 3 -54 24 -5 20 -12 23 -32 14z"/>
<path d="M2600 4345 c6 -8 9 -18 7 -22 -3 -5 3 -9 13 -9 18 0 18 2 -2 23 -24
25 -38 32 -18 8z"/>
<path d="M2852 4338 c-5 -7 -6 -22 -2 -33 6 -17 8 -15 12 13 5 36 5 37 -10 20z"/>
<path d="M2822 4190 c0 -14 2 -19 5 -12 2 6 2 18 0 25 -3 6 -5 1 -5 -13z"/>
<path d="M2697 3962 c-4 -24 -11 -40 -16 -37 -5 3 -6 -5 -3 -17 5 -19 7 -20
10 -5 2 9 7 17 12 17 13 0 17 22 10 55 -6 29 -6 29 -13 -13z"/>
<path d="M2655 3870 c4 -6 11 -8 16 -5 14 9 11 15 -7 15 -8 0 -12 -5 -9 -10z"/>
<path d="M2636 3849 c3 -6 0 -15 -7 -20 -10 -6 -11 -9 -1 -9 6 0 12 -8 12 -17
0 -12 3 -14 10 -7 11 11 -2 64 -15 64 -4 0 -3 -5 1 -11z"/>
<path d="M2625 3660 c-3 -5 -1 -10 4 -10 6 0 11 5 11 10 0 6 -2 10 -4 10 -3 0
-8 -4 -11 -10z"/>
<path d="M2501 3644 c0 -11 3 -14 6 -6 3 7 2 16 -1 19 -3 4 -6 -2 -5 -13z"/>
<path d="M3103 3633 c9 -2 23 -2 30 0 6 3 -1 5 -18 5 -16 0 -22 -2 -12 -5z"/>
<path d="M2510 3602 c0 -11 -3 -27 -6 -36 -8 -20 12 -21 31 -2 12 12 11 17 -5
36 -20 23 -20 23 -20 2z"/>
<path d="M2540 3616 c0 -2 7 -9 15 -16 9 -7 15 -8 15 -2 0 5 -7 12 -15 16 -8
3 -15 4 -15 2z"/>
<path d="M3977 3614 c-1 -2 -79 -10 -172 -19 -223 -22 -442 -27 -532 -14 -51
8 -77 9 -85 1 -8 -6 -29 -7 -58 -2 -26 5 -77 4 -120 -2 -41 -5 -95 -11 -120
-14 -25 -2 -63 -9 -85 -17 l-40 -14 -6 -64 c-4 -43 -1 -72 7 -89 7 -14 13 -19
14 -11 0 11 3 11 14 2 8 -7 56 -19 107 -27 50 -8 117 -23 148 -33 31 -10 83
-26 116 -36 74 -21 226 -93 303 -143 31 -20 69 -42 84 -49 29 -13 94 -7 116
10 13 10 110 57 118 57 2 0 4 -7 4 -16 0 -11 5 -14 16 -10 45 17 64 17 91 -2
15 -11 53 -26 83 -33 30 -7 75 -23 99 -36 24 -12 57 -23 72 -23 l29 0 0 294 0
295 -100 -1 c-55 -1 -101 -3 -103 -4z"/>
<path d="M2620 3529 c0 -32 24 -67 35 -49 5 9 -22 80 -31 80 -2 0 -4 -14 -4
-31z"/>
<path d="M1457 3526 c-4 -10 -5 -21 -2 -24 9 -9 17 6 13 25 -3 17 -4 17 -11
-1z"/>
<path d="M1450 3430 c-8 -5 -12 -11 -9 -14 2 -3 11 -1 19 4 8 5 12 11 9 14 -2
3 -11 1 -19 -4z"/>
<path d="M1311 3358 c-1 -16 4 -28 9 -28 12 0 12 8 0 35 -8 18 -9 17 -9 -7z"/>
<path d="M1400 3375 c0 -6 8 -21 17 -35 12 -17 13 -25 5 -28 -17 -5 -15 -22 3
-22 11 0 15 11 15 36 0 19 -4 33 -9 29 -6 -3 -14 3 -20 12 -6 10 -11 13 -11 8z"/>
<path d="M1451 3324 c0 -11 3 -14 6 -6 3 7 2 16 -1 19 -3 4 -6 -2 -5 -13z"/>
<path d="M1385 3299 c-4 -6 -13 -8 -21 -5 -11 4 -14 -5 -14 -35 0 -24 4 -38
10 -34 6 3 10 14 10 23 0 10 7 28 16 40 8 12 13 22 10 22 -3 0 -8 -5 -11 -11z"/>
<path d="M1030 3250 c0 -11 7 -20 15 -20 8 0 15 9 15 20 0 11 -7 20 -15 20 -8
0 -15 -9 -15 -20z"/>
<path d="M1523 3214 c-3 -8 -1 -20 5 -26 7 -7 10 -2 9 16 -2 30 -5 32 -14 10z"/>
<path d="M1500 3199 c0 -6 -9 -9 -20 -6 -11 3 -20 1 -20 -4 0 -5 5 -9 11 -9 7
0 18 -8 25 -17 11 -16 13 -14 12 15 -1 29 -8 48 -8 21z"/>
<path d="M1020 3190 c0 -5 5 -10 11 -10 5 0 7 5 4 10 -3 6 -8 10 -11 10 -2 0
-4 -4 -4 -10z"/>
<path d="M1236 3171 c-4 -6 0 -18 8 -27 12 -12 16 -12 16 -2 0 22 -17 42 -24
29z"/>
<path d="M810 3152 c0 -7 9 -17 20 -24 24 -15 26 -28 4 -28 -9 0 -12 -5 -8
-12 5 -8 -2 -9 -27 -4 -92 21 -116 24 -136 19 -44 -10 -21 -39 32 -41 62 -1
125 -13 125 -23 0 -5 7 -9 16 -9 8 0 12 -4 9 -10 -3 -6 4 -10 17 -10 28 0 67
-55 46 -63 -8 -3 -6 -6 4 -6 11 -1 15 -6 12 -16 -4 -8 1 -17 10 -21 9 -3 14
-10 11 -14 -3 -4 13 -6 35 -3 35 5 40 4 34 -12 -6 -15 -3 -16 17 -10 23 7 24
7 6 -12 -17 -19 -17 -21 -1 -27 9 -4 19 -4 22 -1 3 3 0 5 -7 5 -7 0 -10 4 -6
9 12 21 89 -3 81 -25 -3 -8 6 -14 27 -16 32 -4 32 -4 8 -14 -24 -11 -24 -11
10 -18 30 -7 31 -9 14 -16 -19 -8 -19 -9 2 -9 12 -1 24 -9 28 -20 10 -32 70
-45 86 -19 4 7 9 6 13 -1 4 -6 3 -11 -2 -11 -6 0 -8 -9 -5 -20 3 -11 10 -20
15 -20 5 0 6 5 3 10 -3 6 1 10 9 10 9 0 16 -9 16 -20 0 -11 6 -20 13 -20 9 0
9 -2 0 -8 -8 -5 -3 -11 13 -19 22 -10 24 -10 13 3 -11 13 -9 14 14 3 15 -7 27
-18 27 -26 0 -7 10 -13 21 -13 16 0 20 5 16 20 -4 16 0 20 20 20 13 0 21 -4
18 -10 -3 -5 1 -10 9 -10 9 0 16 -4 16 -10 0 -5 -8 -7 -17 -3 -15 5 -16 4 -5
-8 10 -11 16 -11 32 -1 24 15 26 5 3 -20 -15 -17 -15 -18 0 -18 10 0 17 -4 17
-10 0 -5 -8 -10 -17 -10 -14 0 -15 -2 -4 -12 10 -11 15 -9 29 9 9 12 31 28 47
35 l30 12 -32 4 c-20 2 -33 9 -33 18 0 8 5 14 10 14 6 0 10 -4 10 -10 0 -5 3
-9 8 -8 4 1 23 -4 42 -11 32 -12 33 -14 15 -22 -16 -8 -15 -8 7 -4 17 3 50 -4
85 -18 32 -13 72 -27 88 -31 l30 -7 -25 18 c-14 9 -34 19 -45 21 -28 4 -72 35
-57 40 16 5 15 32 -1 32 -8 0 -22 9 -32 20 -10 11 -25 20 -34 20 -13 0 -13 2
-2 9 11 7 11 10 0 17 -10 6 -7 10 11 14 17 4 30 1 40 -10 8 -9 30 -22 48 -29
17 -8 32 -17 32 -22 0 -4 9 -11 20 -14 40 -13 80 -56 80 -86 0 -20 -5 -29 -17
-29 -13 0 -12 -3 5 -19 29 -24 29 -61 1 -61 -11 0 -18 -4 -15 -9 3 -5 -5 -19
-18 -32 l-25 -24 26 -16 c18 -12 21 -19 12 -24 -7 -5 -17 -1 -24 8 -7 10 -15
17 -18 17 -7 0 -4 -22 6 -37 4 -6 1 -13 -5 -16 -7 -2 -10 -7 -6 -11 3 -4 20 0
37 8 25 13 29 14 25 2 -3 -8 -15 -17 -27 -20 l-22 -6 23 -15 c28 -20 28 -35 1
-35 -11 0 -17 -5 -14 -10 4 -6 11 -8 16 -4 6 3 7 -4 3 -20 -4 -16 -2 -26 5
-26 6 0 11 -7 11 -15 0 -8 5 -15 10 -15 6 0 10 -4 10 -10 0 -15 -30 -12 -31 3
0 6 -4 2 -9 -10 -5 -13 -14 -23 -20 -23 -5 0 -10 -5 -10 -11 0 -5 4 -8 8 -5
13 8 49 -28 56 -55 5 -22 2 -28 -17 -34 -19 -6 -19 -8 -4 -12 9 -2 15 -9 11
-14 -3 -5 11 -16 30 -24 20 -9 36 -22 36 -31 0 -13 3 -14 15 -4 12 10 12 14 0
26 -7 8 -21 14 -30 14 -9 0 -14 4 -10 10 3 5 15 6 28 1 15 -6 26 -4 35 8 8 9
10 10 6 2 -5 -9 -3 -12 4 -7 13 8 16 36 5 36 -5 0 -9 12 -10 28 -4 66 -12 121
-28 192 -4 14 -8 63 -11 110 -3 47 -9 96 -14 110 -13 35 -21 155 -9 143 5 -5
11 -33 15 -63 3 -30 14 -80 25 -110 17 -52 18 -53 18 -20 0 19 -4 55 -9 80 -4
25 -5 47 -2 50 32 24 32 38 2 70 -16 18 -27 37 -24 42 4 6 -2 8 -15 3 -23 -7
-57 18 -46 34 3 6 -4 15 -15 21 -11 6 -18 15 -15 19 2 5 -1 9 -8 8 -45 -1 -59
4 -53 19 5 13 1 15 -19 12 -26 -5 -35 6 -12 15 7 4 6 6 -4 6 -22 1 -152 62
-161 75 -4 6 -10 7 -14 4 -9 -9 -61 18 -71 37 -5 8 -26 17 -47 19 -21 3 -47
13 -57 22 -10 9 -22 13 -28 10 -5 -3 -16 0 -24 8 -8 8 -17 12 -21 9 -3 -4 -6
-1 -6 7 0 9 -3 10 -14 1 -11 -9 -17 -9 -27 1 -8 7 -18 13 -24 13 -19 0 -75 30
-75 40 0 5 -5 3 -10 -5 -7 -10 -12 -12 -17 -4 -10 14 -104 56 -111 50 -7 -8
-32 21 -32 37 0 10 -7 13 -20 10 -11 -3 -27 0 -35 7 -8 6 -18 9 -24 6 -5 -4
-13 3 -16 15 -5 15 -10 18 -18 10 -16 -16 -37 -14 -37 4 0 8 -7 15 -15 15 -8
0 -15 5 -15 12 0 6 -3 8 -7 5 -3 -4 -15 0 -25 10 -10 9 -18 11 -18 5z m70 -62
c0 -5 -4 -10 -10 -10 -5 0 -10 5 -10 10 0 6 5 10 10 10 6 0 10 -4 10 -10z m90
-180 c8 -5 11 -10 5 -10 -5 0 -17 5 -25 10 -8 5 -10 10 -5 10 6 0 17 -5 25
-10z m620 -180 c0 -5 11 -10 25 -10 16 0 25 -6 25 -15 0 -8 -7 -15 -15 -15 -8
0 -15 4 -15 10 0 5 -11 12 -25 16 -27 7 -34 24 -10 24 8 0 15 -4 15 -10z m0
-38 c0 -4 -9 -8 -20 -8 -11 0 -20 4 -20 8 0 4 9 8 20 8 11 0 20 -4 20 -8z
m-10 -86 c0 -3 -4 -8 -10 -11 -5 -3 -10 -1 -10 4 0 6 5 11 10 11 6 0 10 -2 10
-4z"/>
<path d="M1052 3130 c0 -19 2 -27 5 -17 2 9 2 25 0 35 -3 9 -5 1 -5 -18z"/>
<path d="M1005 3130 c3 -5 8 -10 11 -10 2 0 4 5 4 10 0 6 -5 10 -11 10 -5 0
-7 -4 -4 -10z"/>
<path d="M1500 3131 c0 -6 5 -13 10 -16 6 -3 10 1 10 9 0 9 -4 16 -10 16 -5 0
-10 -4 -10 -9z"/>
<path d="M1140 3120 c0 -5 5 -10 11 -10 5 0 7 5 4 10 -3 6 -8 10 -11 10 -2 0
-4 -4 -4 -10z"/>
<path d="M2654 3104 c-34 -93 -71 -177 -106 -239 -40 -70 -44 -73 -73 -69 -28
5 -29 4 -9 -8 20 -12 21 -20 18 -117 -2 -56 -6 -106 -8 -110 -2 -3 2 -15 10
-26 13 -18 14 -17 8 13 -4 20 -3 32 4 32 6 0 9 6 6 13 -3 8 1 27 7 43 15 36
16 40 18 63 0 11 8 27 17 35 8 9 11 16 6 16 -6 0 -2 17 8 38 10 20 24 56 30
80 6 23 16 42 23 42 12 0 15 14 18 62 0 10 4 20 10 23 5 4 9 19 9 35 0 16 5
41 10 56 6 15 8 29 6 32 -3 3 -9 -4 -12 -14z"/>
<path d="M1180 3081 c-7 -15 -7 -21 0 -21 12 0 25 28 17 36 -3 3 -10 -4 -17
-15z"/>
<path d="M1450 3079 c0 -11 4 -18 10 -14 5 3 7 12 3 20 -7 21 -13 19 -13 -6z"/>
<path d="M1500 3075 c-10 -13 -9 -15 8 -15 15 0 20 5 16 15 -4 8 -7 15 -9 15
-1 0 -8 -7 -15 -15z"/>
<path d="M1270 3060 c0 -5 5 -10 11 -10 5 0 7 5 4 10 -3 6 -8 10 -11 10 -2 0
-4 -4 -4 -10z"/>
<path d="M1590 3051 c0 -25 6 -27 13 -6 4 8 2 17 -3 20 -6 4 -10 -3 -10 -14z"/>
<path d="M1535 3030 c-4 -17 -4 -34 -1 -37 3 -4 6 3 6 15 0 11 6 22 13 25 9 3
9 7 1 17 -9 9 -14 5 -19 -20z"/>
<path d="M1306 3035 c-3 -8 -1 -15 4 -15 6 0 10 7 10 15 0 8 -2 15 -4 15 -2 0
-6 -7 -10 -15z"/>
<path d="M1370 3025 c0 -14 5 -25 10 -25 6 0 10 11 10 25 0 14 -4 25 -10 25
-5 0 -10 -11 -10 -25z"/>
<path d="M1631 3034 c0 -11 3 -14 6 -6 3 7 2 16 -1 19 -3 4 -6 -2 -5 -13z"/>
<path d="M1280 3013 c0 -10 34 -32 49 -33 10 0 11 3 2 14 -12 14 -51 29 -51
19z"/>
<path d="M1431 2994 c0 -11 3 -14 6 -6 3 7 2 16 -1 19 -3 4 -6 -2 -5 -13z"/>
<path d="M1370 2981 c0 -6 4 -13 10 -16 6 -3 7 1 4 9 -7 18 -14 21 -14 7z"/>
<path d="M1400 2970 c0 -5 5 -10 11 -10 5 0 7 5 4 10 -3 6 -8 10 -11 10 -2 0
-4 -4 -4 -10z"/>
<path d="M1440 2960 c0 -5 5 -10 11 -10 5 0 7 5 4 10 -3 6 -8 10 -11 10 -2 0
-4 -4 -4 -10z"/>
<path d="M1513 2945 c-10 -10 -9 -14 3 -19 23 -9 42 -8 28 2 -6 4 -13 12 -15
19 -3 8 -7 7 -16 -2z"/>
<path d="M1569 2935 c-3 -16 7 -26 50 -48 29 -15 56 -26 58 -23 3 3 -18 16
-45 30 -28 14 -52 34 -54 43 -4 16 -5 16 -9 -2z"/>
<path d="M3065 2850 c-3 -6 1 -7 9 -4 18 7 21 14 7 14 -6 0 -13 -4 -16 -10z"/>
<path d="M1090 2811 c0 -6 5 -13 10 -16 6 -3 10 1 10 9 0 9 -4 16 -10 16 -5 0
-10 -4 -10 -9z"/>
<path d="M1045 2790 c-3 -6 1 -7 9 -4 18 7 21 14 7 14 -6 0 -13 -4 -16 -10z"/>
<path d="M2398 2760 c-16 -21 -28 -41 -28 -44 0 -6 -82 -139 -91 -146 -3 -3
-14 -21 -24 -40 l-18 -35 27 24 c25 24 26 24 26 4 0 -31 -27 -50 -51 -35 -28
18 -42 15 -36 -7 3 -14 -2 -21 -20 -26 -43 -10 -20 -14 39 -6 42 5 55 4 51 -5
-5 -13 23 -27 40 -18 7 3 3 -2 -7 -10 -22 -18 -40 -21 -31 -6 3 6 -3 10 -13
10 -14 0 -22 -10 -27 -32 -4 -18 -7 -36 -7 -40 1 -3 -5 -12 -13 -18 -13 -11
-12 -15 5 -30 12 -10 29 -16 41 -13 20 5 20 6 -1 20 -17 12 -19 18 -9 29 15
18 30 18 23 -1 -4 -8 1 -17 10 -21 9 -3 16 -17 16 -30 0 -23 -2 -24 -60 -19
-49 3 -60 1 -60 -11 0 -8 4 -13 10 -9 5 3 18 0 30 -7 23 -14 27 -30 6 -22 -8
3 -17 1 -20 -5 -4 -6 -14 -7 -24 -4 -14 5 -14 3 2 -9 19 -15 15 -38 -7 -38
-15 0 -53 -41 -49 -53 1 -4 -2 -17 -8 -27 -8 -14 -8 -20 0 -20 6 0 8 -5 5 -11
-4 -6 -13 -8 -21 -5 -8 3 -13 0 -11 -7 1 -7 -4 -11 -10 -9 -7 1 -13 -2 -13 -8
0 -5 4 -10 10 -10 5 0 7 -6 4 -14 -3 -8 -12 -12 -20 -9 -8 3 -14 0 -14 -7 0
-6 5 -8 10 -5 6 3 10 2 10 -4 0 -6 6 -8 14 -5 7 3 16 -2 19 -10 4 -10 13 -13
24 -10 10 3 5 -2 -10 -11 -16 -9 -34 -14 -40 -11 -7 2 -4 5 6 5 20 1 24 21 4
21 -21 0 -35 -20 -29 -42 3 -15 10 -18 28 -14 21 6 23 4 15 -16 -4 -12 -14
-24 -21 -26 -7 -3 -10 0 -6 7 4 6 2 11 -4 11 -8 0 -11 -15 -8 -45 2 -25 0 -46
-4 -47 -10 -4 -30 -187 -29 -267 1 -36 -5 -88 -13 -115 -20 -73 -18 -89 11
-81 13 3 29 2 36 -2 6 -4 29 -6 50 -4 36 2 38 1 27 -18 -6 -12 -15 -21 -20
-21 -14 0 -12 18 3 23 6 2 0 4 -15 4 -28 0 -37 -10 -19 -21 5 -4 8 -17 6 -31
-2 -21 2 -25 23 -25 21 0 22 2 12 15 -16 20 3 20 45 0 l30 -13 -30 -2 -30 -2
33 -8 c43 -10 52 -20 19 -20 -18 0 -27 -5 -27 -16 0 -9 -10 -24 -22 -34 l-23
-19 40 5 c22 3 52 9 67 14 19 6 28 5 32 -5 6 -16 -10 -30 -18 -17 -9 14 -64 1
-82 -19 -20 -23 -36 -25 -28 -4 7 16 -4 19 -24 6 -10 -6 -10 -11 4 -21 14 -12
23 -12 59 1 l43 16 6 -28 c3 -15 13 -29 23 -32 16 -4 -40 -11 -60 -8 -5 1 -5
-4 -2 -10 4 -6 20 -9 36 -5 36 7 38 -1 4 -14 -16 -6 -23 -14 -19 -25 3 -8 11
-15 16 -15 6 0 8 7 4 15 -3 9 0 15 10 15 9 0 12 -5 8 -11 -5 -8 1 -10 20 -7
34 7 45 -9 11 -18 -14 -3 -25 -9 -25 -13 0 -12 63 -6 68 7 6 18 62 16 62 -4 0
-11 -8 -15 -27 -12 -19 2 -27 -2 -25 -10 1 -8 -6 -10 -22 -6 -19 4 -28 0 -41
-20 -9 -14 -14 -30 -10 -37 7 -11 45 -8 76 5 9 4 25 -1 38 -13 l23 -20 -25 2
c-14 1 -27 -2 -29 -8 -2 -5 17 -12 42 -14 l45 -3 -40 -12 c-22 -7 -39 -18 -37
-24 1 -7 -2 -12 -8 -12 -5 0 -10 5 -10 11 0 5 -4 8 -9 4 -5 -3 -12 -1 -15 4
-4 5 2 12 11 14 12 3 8 5 -9 6 -30 1 -50 21 -22 21 13 0 15 3 7 11 -9 9 -20 9
-43 0 -28 -9 -31 -9 -20 4 8 10 9 15 2 15 -20 0 -25 -23 -8 -36 10 -7 15 -17
12 -22 -3 -5 2 -9 12 -8 9 0 16 -5 14 -12 -1 -7 9 -12 27 -12 16 0 35 -8 42
-17 12 -15 12 -16 -3 -10 -19 7 -82 -16 -93 -33 -3 -5 3 -10 15 -10 12 0 18 5
15 10 -3 6 0 10 9 10 8 0 23 3 33 6 13 4 15 3 4 -4 -10 -8 -6 -17 22 -46 19
-21 43 -39 53 -41 11 -2 21 -4 24 -4 3 -1 -2 -5 -10 -11 -21 -13 -5 -24 25
-16 14 4 25 13 25 21 0 9 -6 12 -15 9 -11 -5 -15 1 -15 20 0 30 24 35 39 9 7
-12 13 -14 18 -7 13 18 54 28 51 12 -2 -7 -12 -16 -23 -19 -11 -3 -19 -11 -17
-17 1 -7 -5 -12 -13 -12 -8 0 -15 -4 -15 -9 0 -5 -9 -13 -20 -16 -11 -4 -18
-11 -14 -16 7 -12 -46 -1 -64 14 -18 14 -26 2 -9 -14 7 -8 12 -21 10 -29 -4
-13 -3 -13 6 0 9 13 14 13 32 2 16 -11 23 -11 29 -2 5 8 9 6 14 -6 4 -10 1
-21 -5 -25 -19 -11 0 -29 31 -29 35 0 60 -9 60 -22 0 -5 -4 -7 -9 -4 -5 3 -11
-5 -13 -18 -3 -17 -1 -23 8 -19 6 2 15 0 19 -6 3 -6 11 -11 16 -11 6 0 7 4 4
10 -3 6 5 10 19 10 27 0 44 -16 24 -22 -6 -2 -8 -10 -4 -17 5 -7 14 -10 22 -7
7 3 16 1 19 -5 4 -5 11 -7 16 -3 5 3 -1 14 -13 24 -13 10 -19 22 -15 26 4 5
12 2 17 -6 7 -10 10 -11 10 -2 0 6 7 12 15 12 8 0 15 -7 15 -16 0 -20 16 -10
22 14 4 14 -1 17 -21 17 -14 0 -28 -3 -31 -7 -3 -4 -11 1 -18 12 -10 16 -8 20
10 25 12 4 24 2 28 -5 5 -8 18 -10 34 -6 40 10 31 23 -18 28 -43 5 -97 38 -62
38 8 0 18 -4 21 -10 3 -5 14 -10 23 -9 11 0 12 3 5 6 -18 7 -16 23 2 23 8 0
15 5 15 11 0 6 -8 8 -19 4 -10 -3 -24 1 -31 10 -10 12 -10 15 4 15 10 0 15 4
12 8 -3 5 -18 8 -35 7 -21 -1 -28 2 -24 12 4 9 13 11 27 7 19 -6 20 -5 6 11
-19 22 -17 29 10 35 12 3 20 10 18 15 -4 14 -69 10 -78 -5 -10 -17 -31 -3 -23
15 3 8 1 15 -3 15 -5 0 -9 14 -10 30 -1 25 3 30 22 30 12 0 24 -6 27 -12 2 -7
8 -10 12 -6 17 16 -19 40 -50 35 -18 -3 -37 -2 -45 3 -8 5 4 9 31 12 24 2 46
1 47 -4 7 -15 22 -8 22 11 0 24 -48 35 -67 15 -17 -17 -29 -18 -38 -4 -5 8
-11 7 -21 -1 -11 -9 -17 -9 -29 1 -23 19 -8 30 27 19 35 -9 57 2 59 30 0 10 2
11 6 4 2 -7 19 -13 36 -13 24 0 28 -3 17 -10 -12 -8 -11 -10 5 -10 12 0 26 -5
32 -11 6 -6 16 -10 23 -7 19 6 -33 58 -60 59 -16 0 -19 3 -10 6 16 6 30 23 30
37 0 4 -7 5 -16 2 -9 -4 -23 -1 -31 6 -13 10 -12 13 4 20 12 6 10 7 -9 3 -32
-6 -37 9 -8 25 16 9 24 7 42 -10 12 -11 31 -20 42 -19 12 0 15 3 9 6 -7 2 -13
11 -13 19 0 8 -6 11 -15 8 -16 -7 -48 20 -37 31 4 4 -17 5 -46 3 -52 -5 -77 6
-51 23 19 11 11 16 -46 24 -27 3 -52 11 -56 17 -4 6 -19 7 -35 4 -22 -5 -32
-2 -41 13 -7 12 -9 22 -3 26 5 3 13 -2 18 -10 8 -15 12 -15 50 0 23 10 43 21
44 26 0 5 1 15 2 22 1 16 17 27 38 27 12 0 15 -5 11 -17 -4 -10 -2 -14 5 -9 6
3 13 2 17 -4 3 -5 13 -10 21 -10 8 0 12 5 9 10 -4 6 -3 10 2 9 29 -5 35 3 31
39 -3 33 0 38 14 34 9 -2 14 -10 11 -18 -4 -11 0 -12 18 -5 37 13 37 40 0 39
-17 -1 -37 4 -45 11 -11 9 -15 9 -19 -1 -4 -10 -10 -8 -21 6 -9 11 -27 32 -41
48 -14 15 -25 35 -25 43 0 8 -4 15 -8 15 -5 0 -9 18 -10 41 -1 27 2 38 9 33 8
-4 8 0 0 15 -15 27 -34 28 -26 1 3 -11 2 -20 -3 -20 -5 0 -7 -11 -4 -25 2 -14
0 -25 -6 -25 -6 0 -17 -3 -25 -6 -11 -4 -15 1 -13 20 0 14 6 26 11 27 6 0 1 4
-10 9 -11 5 -15 9 -8 9 7 1 10 8 6 18 -4 11 -3 14 5 9 7 -4 12 -3 12 3 0 5 -7
14 -15 19 -9 4 -17 19 -17 33 -1 13 -7 31 -13 39 -15 18 -14 15 -16 155 -3
159 11 235 43 235 6 0 8 -11 6 -25 -3 -14 -2 -25 3 -25 4 0 10 10 12 23 3 17
5 15 6 -9 1 -26 31 -74 46 -74 3 0 5 12 5 26 0 14 -4 23 -10 19 -5 -3 -10 3
-10 14 0 11 -5 23 -10 26 -6 3 -8 19 -5 35 4 25 2 28 -12 23 -10 -4 -22 -11
-26 -17 -5 -7 -7 -3 -5 9 2 11 10 20 17 20 8 0 16 6 19 13 2 6 0 12 -5 12 -4
0 -9 17 -10 38 -5 65 -4 366 1 387 2 11 5 25 6 30 4 23 17 -45 19 -103 3 -86
44 -181 49 -114 1 21 0 24 -8 12 -5 -8 -10 -10 -10 -4 0 6 6 17 14 23 16 13
11 76 -6 98 -5 7 -7 17 -3 23 3 5 1 10 -4 10 -6 0 -10 3 -9 8 1 4 -2 33 -6 64
-9 71 -10 247 -1 270 14 36 -1 35 -27 -2z m-111 -386 c-16 -8 -34 -13 -40 -11
-7 3 -1 9 13 15 38 16 59 13 27 -4z m-42 -224 c-3 -5 -12 -10 -18 -10 -7 0 -6
4 3 10 19 12 23 12 15 0z m-65 -20 c0 -5 -4 -10 -10 -10 -5 0 -10 5 -10 10 0
6 5 10 10 10 6 0 10 -4 10 -10z m53 -17 c-7 -2 -13 -11 -13 -19 0 -8 -7 -14
-15 -14 -8 0 -15 4 -15 8 0 14 23 32 40 31 10 0 11 -2 3 -6z m30 -80 c-7 -2
-19 -2 -25 0 -7 3 -2 5 12 5 14 0 19 -2 13 -5z m-38 -43 c3 -5 -1 -10 -9 -10
-9 0 -16 5 -16 10 0 6 4 10 9 10 6 0 13 -4 16 -10z m-78 -266 c-3 -3 -12 -4
-19 -1 -8 3 -5 6 6 6 11 1 17 -2 13 -5z m-82 -164 c3 -5 -1 -10 -9 -10 -9 0
-16 5 -16 10 0 6 4 10 9 10 6 0 13 -4 16 -10z m190 -80 c3 -6 -1 -7 -9 -4 -18
7 -21 14 -7 14 6 0 13 -4 16 -10z m-195 -50 c0 -5 -4 -10 -10 -10 -5 0 -10 5
-10 10 0 6 5 10 10 10 6 0 10 -4 10 -10z m60 -29 c0 -5 -7 -14 -15 -21 -10 -9
-15 -9 -15 -1 0 6 5 11 11 11 5 0 7 5 4 10 -3 6 -1 10 4 10 6 0 11 -4 11 -9z
m313 -60 c5 -5 -6 -7 -25 -6 -18 2 -36 4 -40 4 -5 1 -8 6 -8 11 0 12 60 4 73
-9z m-198 -11 c3 -5 -3 -10 -14 -10 -12 0 -21 5 -21 10 0 6 6 10 14 10 8 0 18
-4 21 -10z m78 -7 c-7 -2 -19 -2 -25 0 -7 3 -2 5 12 5 14 0 19 -2 13 -5z
m-119 -30 c3 -10 8 -23 11 -29 3 -6 -1 -14 -10 -18 -13 -4 -15 -1 -10 14 4 13
1 22 -9 26 -9 3 -13 10 -10 15 8 14 21 10 28 -8z m77 -16 c-13 -13 -26 -3 -16
12 3 6 11 8 17 5 6 -4 6 -10 -1 -17z m69 9 c0 -9 -30 -14 -35 -6 -4 6 3 10 14
10 12 0 21 -2 21 -4z m107 -73 c0 -15 -62 -19 -71 -4 -9 13 3 19 38 18 20 -1
33 -6 33 -14z m-147 3 c0 -11 -19 -15 -25 -6 -3 5 1 10 9 10 9 0 16 -2 16 -4z
m-45 -16 c3 -5 2 -10 -4 -10 -5 0 -13 5 -16 10 -3 6 -2 10 4 10 5 0 13 -4 16
-10z m253 -2 c-3 -7 -11 -13 -18 -13 -7 0 -15 6 -17 13 -3 7 4 12 17 12 13 0
20 -5 18 -12z m-245 -35 c-7 -2 -21 -2 -30 0 -10 3 -4 5 12 5 17 0 24 -2 18
-5z m12 -103 c3 -5 2 -10 -4 -10 -5 0 -13 5 -16 10 -3 6 -2 10 4 10 5 0 13 -4
16 -10z m95 -21 c0 -6 9 -9 20 -6 11 3 23 1 26 -4 5 -9 -34 -15 -66 -10 -8 1
-25 2 -37 2 -16 -1 -21 4 -17 14 7 18 74 21 74 4z m38 -86 c-15 -18 -21 -9
-13 18 6 16 9 18 16 8 4 -8 3 -19 -3 -26z m131 23 c-11 -9 -69 -14 -69 -6 0 6
17 10 37 10 20 0 34 -2 32 -4z m-39 -41 c-7 -8 -16 -15 -21 -15 -5 0 -1 9 8
20 9 11 19 17 21 15 3 -3 -1 -11 -8 -20z m-100 -15 c0 -5 -4 -10 -10 -10 -5 0
-10 5 -10 10 0 6 5 10 10 10 6 0 10 -4 10 -10z m34 -15 c3 -9 0 -15 -9 -15 -8
0 -15 7 -15 15 0 8 4 15 9 15 5 0 11 -7 15 -15z m-85 -21 c10 -9 -35 -3 -49 6
-11 8 -7 9 15 4 17 -4 32 -8 34 -10z m171 -17 c0 -5 -4 -5 -10 -2 -5 3 -10 1
-10 -4 0 -6 5 -11 10 -11 6 0 10 -4 10 -9 0 -10 -58 3 -69 15 -3 4 1 5 9 2 17
-5 40 14 40 34 0 10 3 9 10 -2 5 -8 10 -19 10 -23z m-56 -98 c29 -8 36 -13 27
-22 -9 -9 -14 -9 -19 0 -4 7 -26 17 -47 22 -22 5 -31 9 -20 10 11 0 37 -4 59
-10z m-74 -39 c0 -5 -7 -10 -15 -10 -8 0 -15 5 -15 10 0 6 7 10 15 10 8 0 15
-4 15 -10z m87 -28 c-9 -2 -15 -8 -12 -13 4 -5 1 -9 -4 -9 -14 0 -14 13 1 28
6 6 16 8 22 4 7 -4 4 -8 -7 -10z m-127 4 c0 -3 -4 -8 -10 -11 -5 -3 -10 -1
-10 4 0 6 5 11 10 11 6 0 10 -2 10 -4z m57 -21 c0 -12 -3 -12 -16 -3 -9 7 -18
14 -20 15 -2 2 5 3 16 3 11 0 20 -7 20 -15z m187 -70 c-4 -8 -12 -15 -19 -15
-8 0 -11 -8 -8 -19 5 -18 -20 -36 -37 -26 -5 3 -11 1 -15 -5 -3 -5 3 -10 14
-10 12 0 21 -4 21 -10 0 -13 -10 -13 -49 1 -25 9 -29 14 -20 25 6 7 8 18 4 24
-4 6 5 10 21 10 27 0 27 1 8 16 -15 12 -15 15 -2 10 9 -2 29 -1 45 4 40 12 43
12 37 -5z m-11 -117 c9 -5 17 -14 17 -21 0 -8 -3 -9 -8 -1 -7 10 -28 14 -98
16 -22 1 -30 6 -27 14 5 14 83 9 116 -8z m0 -55 c-7 -2 -21 -2 -30 0 -10 3 -4
5 12 5 17 0 24 -2 18 -5z"/>
<path d="M2634 2785 c-17 -13 -17 -14 -2 -15 9 0 20 5 23 11 11 17 0 20 -21 4z"/>
<path d="M3102 2779 c-7 -19 -9 -19 -21 -5 -19 23 -31 20 -31 -10 0 -21 4 -24
20 -19 27 9 25 -1 -5 -29 -29 -27 -31 -36 -11 -36 15 0 48 28 76 64 13 18 13
19 -1 14 -12 -5 -15 -1 -11 18 5 29 -6 32 -16 3z"/>
<path d="M2623 2735 c-3 -9 -3 -29 0 -45 4 -18 2 -30 -6 -34 -7 -2 -4 -5 7 -5
13 -1 17 -7 13 -20 -2 -10 0 -26 5 -35 24 -42 18 -54 -28 -64 -25 -6 -53 -8
-63 -5 -12 3 -24 -3 -33 -16 -10 -14 -21 -19 -32 -15 -9 4 -16 1 -16 -6 0 -8
8 -10 23 -7 12 3 63 14 112 24 55 12 107 30 133 47 24 15 53 32 65 37 23 10
15 9 -60 -7 -21 -4 -24 -3 -13 5 24 17 6 21 -24 6 -34 -18 -33 -18 -39 -1 -3
8 1 17 9 20 9 3 12 1 9 -4 -3 -6 -1 -10 5 -10 7 0 9 7 6 16 -3 9 -6 18 -6 20
0 3 -4 2 -10 -1 -6 -4 -8 13 -6 45 3 38 0 50 -10 50 -8 0 -14 5 -14 10 0 16
-20 12 -27 -5z"/>
<path d="M2452 2700 c0 -19 2 -27 5 -17 2 9 2 25 0 35 -3 9 -5 1 -5 -18z"/>
<path d="M3116 2691 c-3 -5 1 -11 9 -15 15 -6 29 7 18 18 -9 9 -21 8 -27 -3z"/>
<path d="M3033 2656 c20 -21 13 -40 -14 -33 -11 3 -19 1 -19 -4 0 -5 5 -9 11
-9 6 0 9 -6 6 -13 -3 -8 -1 -20 4 -28 6 -10 9 -6 9 16 0 22 3 26 9 15 6 -8 8
-17 5 -21 -2 -4 3 -10 12 -13 8 -3 12 -2 9 4 -3 6 0 13 8 16 9 3 18 16 21 29
4 14 17 27 33 33 24 8 21 9 -22 8 -27 0 -59 4 -70 9 -19 8 -19 8 -2 -9z"/>
<path d="M3190 2655 c0 -9 6 -12 15 -9 8 4 15 10 15 15 0 5 -7 9 -15 9 -8 0
-15 -7 -15 -15z"/>
<path d="M3668 2573 c-15 -25 -14 -28 20 -82 36 -56 137 -271 154 -326 5 -16
18 -63 29 -104 11 -41 35 -106 54 -145 65 -135 88 -275 60 -375 -18 -61 -18
-63 2 -90 26 -35 77 -135 92 -182 9 -28 16 -36 30 -32 10 3 22 0 25 -6 4 -6
16 -11 27 -11 19 0 19 14 19 691 l0 691 -42 -7 c-24 -4 -55 -15 -70 -26 -30
-21 -82 -25 -125 -8 -15 6 -46 11 -68 10 -22 0 -68 6 -103 14 -83 20 -85 19
-104 -12z"/>
<path d="M2550 2550 c0 -5 4 -10 9 -10 6 0 13 5 16 10 3 6 -1 10 -9 10 -9 0
-16 -4 -16 -10z"/>
<path d="M3165 2550 c-4 -7 3 -8 22 -4 38 9 42 14 10 14 -14 0 -29 -5 -32 -10z"/>
<path d="M1495 2540 c3 -5 11 -10 16 -10 6 0 7 5 4 10 -3 6 -11 10 -16 10 -6
0 -7 -4 -4 -10z"/>
<path d="M3043 2534 c-3 -8 0 -21 7 -27 10 -9 11 -9 6 1 -4 7 -2 19 4 27 9 11
9 15 1 15 -6 0 -14 -7 -18 -16z"/>
<path d="M2975 2520 c-3 -5 -1 -10 4 -10 6 0 11 5 11 10 0 6 -2 10 -4 10 -3 0
-8 -4 -11 -10z"/>
<path d="M3184 2515 c-19 -14 -19 -14 1 -15 20 -1 20 -1 1 -15 -10 -8 -24 -16
-30 -18 -7 -2 -6 -10 4 -22 14 -17 13 -18 -2 -12 -10 3 -20 2 -23 -3 -4 -6 0
-10 7 -11 7 0 3 -5 -8 -11 -19 -9 -20 -14 -11 -44 7 -22 17 -34 29 -34 10 0
18 -4 18 -10 0 -5 -11 -10 -25 -10 -16 0 -25 6 -25 15 0 23 -16 18 -28 -9 -8
-19 -8 -26 1 -29 8 -3 7 -10 -5 -23 -19 -22 -57 -103 -63 -135 -2 -11 -11 -34
-20 -51 -19 -39 -19 -43 1 -24 8 9 24 16 34 16 10 0 20 7 24 15 3 8 11 15 18
15 7 0 -2 -14 -20 -31 -37 -33 -36 -40 1 -43 23 -1 23 -2 9 -23 -8 -13 -18
-23 -23 -23 -5 0 -9 -7 -9 -15 0 -8 -6 -14 -12 -13 -7 2 -14 -7 -16 -19 -4
-25 13 -32 21 -9 4 9 14 12 25 9 11 -2 23 0 26 6 4 6 2 11 -3 11 -6 0 -11 7
-11 16 0 11 5 14 16 10 18 -7 74 29 74 47 0 8 -3 8 -12 -1 -17 -17 -33 -15
-19 2 10 12 9 17 -6 24 -10 5 -25 7 -33 4 -12 -4 -13 -2 -2 9 6 7 12 21 12 32
0 11 6 18 18 16 32 -3 41 1 41 19 0 24 6 50 14 58 13 13 7 26 -8 20 -13 -5
-13 -2 0 18 13 19 13 25 3 30 -7 3 -4 4 6 3 17 -2 20 5 21 46 2 41 -1 47 -19
47 -17 0 -18 2 -6 9 8 6 17 8 21 5 4 -2 12 10 18 27 9 26 8 30 -4 25 -9 -3
-15 1 -15 10 0 8 4 12 10 9 5 -3 7 0 4 8 -3 8 -1 18 5 22 13 7 15 52 2 59 -4
3 -17 -1 -27 -9z m-19 -135 c-3 -5 -11 -10 -16 -10 -6 0 -7 5 -4 10 3 6 11 10
16 10 6 0 7 -4 4 -10z m-15 -90 c0 -5 -5 -10 -11 -10 -5 0 -7 5 -4 10 3 6 8
10 11 10 2 0 4 -4 4 -10z m-33 -127 c-4 -3 1 -12 11 -19 9 -7 13 -14 7 -15 -5
-1 -19 -3 -30 -5 -11 -1 -30 -6 -42 -10 -14 -4 -23 -2 -23 4 0 6 13 13 29 17
20 4 28 11 24 21 -3 9 1 14 13 14 9 0 14 -3 11 -7z"/>
<path d="M1483 2513 c9 -2 23 -2 30 0 6 3 -1 5 -18 5 -16 0 -22 -2 -12 -5z"/>
<path d="M1651 2505 c-18 -8 -43 -15 -54 -15 -39 0 -6 -14 38 -16 34 -2 45 1
45 11 0 8 5 15 10 15 6 0 10 5 10 10 0 13 -8 12 -49 -5z"/>
<path d="M1155 2490 c-4 -6 5 -10 19 -10 14 0 26 5 26 10 0 6 -9 10 -19 10
-11 0 -23 -4 -26 -10z"/>
<path d="M1427 2483 c-14 -13 -6 -23 18 -23 14 0 25 5 25 11 0 5 -5 7 -11 3
-6 -3 -14 -1 -18 5 -4 6 -10 8 -14 4z"/>
<path d="M2585 2471 c-3 -5 4 -13 16 -16 28 -9 33 -2 9 13 -11 6 -21 8 -25 3z"/>
<path d="M1130 2461 c0 -10 30 -24 37 -17 3 2 -5 9 -16 16 -12 6 -21 7 -21 1z"/>
<path d="M2690 2460 c0 -5 5 -10 10 -10 6 0 10 5 10 10 0 6 -4 10 -10 10 -5 0
-10 -4 -10 -10z"/>
<path d="M1663 2449 c12 -7 27 -7 45 0 25 9 24 9 -18 10 -36 0 -41 -2 -27 -10z"/>
<path d="M1188 2443 c7 -3 16 -2 19 1 4 3 -2 6 -13 5 -11 0 -14 -3 -6 -6z"/>
<path d="M1460 2440 c0 -5 5 -10 11 -10 5 0 7 5 4 10 -3 6 -8 10 -11 10 -2 0
-4 -4 -4 -10z"/>
<path d="M1805 2440 c-3 -5 -1 -10 4 -10 6 0 11 5 11 10 0 6 -2 10 -4 10 -3 0
-8 -4 -11 -10z"/>
<path d="M2525 2441 c3 -5 1 -12 -5 -16 -5 -3 -10 -11 -10 -17 0 -7 6 -6 15 2
17 14 20 40 4 40 -5 0 -8 -4 -4 -9z"/>
<path d="M2625 2435 c-25 -12 -26 -14 -9 -15 12 0 27 7 34 15 15 18 14 18 -25
0z"/>
<path d="M1148 2418 c9 -9 15 -9 24 0 9 9 7 12 -12 12 -19 0 -21 -3 -12 -12z"/>
<path d="M1206 2421 c-18 -7 -18 -8 -2 -14 19 -8 36 -1 36 14 0 10 -7 11 -34
0z"/>
<path d="M1588 2413 c7 -3 16 -2 19 1 4 3 -2 6 -13 5 -11 0 -14 -3 -6 -6z"/>
<path d="M1666 2405 c-3 -8 -1 -15 5 -15 6 0 8 -9 4 -20 -5 -17 -2 -19 16 -17
25 4 36 37 12 37 -13 0 -13 3 -3 15 10 12 9 15 -8 15 -11 0 -22 -7 -26 -15z"/>
<path d="M1490 2394 c0 -8 6 -22 14 -30 13 -12 16 -12 23 0 4 8 17 14 27 13
10 -1 21 4 24 12 3 10 -3 12 -26 6 -18 -3 -33 -2 -37 4 -9 16 -25 13 -25 -5z"/>
<path d="M2610 2385 c-13 -14 -19 -25 -14 -25 11 1 54 36 54 44 0 13 -18 5
-40 -19z"/>
<path d="M1178 2393 c7 -3 16 -2 19 1 4 3 -2 6 -13 5 -11 0 -14 -3 -6 -6z"/>
<path d="M1217 2375 c-4 -8 3 -10 19 -7 29 5 30 8 5 15 -11 3 -22 -1 -24 -8z"/>
<path d="M1815 2360 c-8 -13 5 -13 25 0 13 8 13 10 -2 10 -9 0 -20 -4 -23 -10z"/>
<path d="M1545 2350 c-3 -6 1 -7 9 -4 18 7 21 14 7 14 -6 0 -13 -4 -16 -10z"/>
<path d="M1605 2351 c-6 -5 -19 -11 -30 -14 -11 -3 -2 -5 20 -5 22 0 34 2 27
5 -6 2 -10 9 -6 14 7 12 1 12 -11 0z"/>
<path d="M2634 2341 c4 -5 1 -11 -5 -13 -7 -2 -5 -9 5 -17 14 -12 16 -10 16
13 0 14 -5 26 -11 26 -5 0 -8 -4 -5 -9z"/>
<path d="M1680 2320 c0 -5 9 -10 19 -10 10 0 21 -7 25 -15 3 -9 0 -15 -9 -15
-8 0 -15 -4 -15 -9 0 -5 16 -9 36 -8 29 1 33 3 20 12 -14 10 -13 13 2 29 16
16 16 17 -9 11 -16 -4 -30 -2 -33 4 -9 14 -36 14 -36 1z"/>
<path d="M2518 2312 c-21 -12 -28 -25 -28 -48 0 -17 -2 -47 -5 -65 l-5 -34 12
28 c7 15 20 27 29 27 10 0 21 5 24 10 4 6 -6 10 -22 10 -26 1 -27 2 -10 15 11
7 25 11 32 9 7 -3 16 -1 20 5 3 7 -3 11 -16 11 -18 0 -19 2 -9 15 7 8 22 15
34 16 20 0 21 1 1 9 -27 12 -26 12 -57 -8z"/>
<path d="M1230 2316 c0 -8 51 -13 56 -5 3 5 -9 9 -25 9 -17 0 -31 -2 -31 -4z"/>
<path d="M1610 2300 c16 -11 67 -14 57 -4 -3 4 -21 8 -39 10 -24 3 -29 1 -18
-6z"/>
<path d="M2595 2291 c-19 -8 -19 -8 0 -19 19 -11 19 -12 -3 -18 -18 -5 -20 -9
-11 -20 9 -11 15 -9 31 12 11 14 27 23 34 20 8 -3 21 -3 30 1 11 4 5 10 -23
19 -21 8 -38 13 -38 13 0 0 -9 -4 -20 -8z"/>
<path d="M1295 2278 c-5 -15 -1 -45 7 -53 3 -3 8 10 10 29 4 34 -8 50 -17 24z"/>
<path d="M1557 2283 c-23 -4 -26 -7 -16 -19 6 -8 21 -14 33 -13 20 0 21 1 1 9
-16 7 -17 9 -3 9 9 1 20 6 23 11 3 6 3 9 -2 9 -4 -1 -21 -4 -36 -6z"/>
<path d="M1635 2260 c-11 -5 -14 -9 -7 -9 6 -1 12 -12 12 -25 0 -19 4 -23 20
-19 16 4 18 8 9 19 -9 11 -7 15 6 20 13 5 14 9 3 15 -15 10 -17 10 -43 -1z"/>
<path d="M3350 2260 c-8 -5 -10 -10 -5 -10 6 0 4 -4 -3 -9 -11 -7 -11 -9 1
-14 10 -4 16 2 20 19 2 13 4 24 3 24 0 0 -8 -5 -16 -10z"/>
<path d="M433 2233 c-1 -10 1 -25 3 -33 8 -22 23 7 17 31 -7 24 -19 25 -20 2z"/>
<path d="M2687 2233 c-43 -5 -41 -23 3 -23 15 0 30 7 34 15 3 8 4 14 3 13 -1
-1 -19 -3 -40 -5z"/>
<path d="M558 2196 c-22 -16 -23 -26 -3 -26 9 0 15 -9 15 -21 0 -11 10 -29 22
-39 l22 -17 -22 -12 c-12 -6 -22 -17 -22 -23 0 -6 3 -8 7 -5 16 16 29 -16 27
-62 -2 -34 1 -53 12 -62 8 -7 12 -20 9 -30 -4 -11 -1 -19 5 -19 8 0 11 -11 8
-32 -3 -18 3 -62 13 -97 15 -53 17 -76 9 -123 -5 -32 -12 -63 -15 -68 -3 -6
-1 -10 4 -10 17 0 13 -51 -6 -72 -9 -10 -11 -18 -5 -18 6 0 15 8 21 18 8 14
12 15 23 3 11 -11 11 -14 0 -18 -10 -4 -10 -8 -1 -19 9 -11 8 -14 -2 -14 -56
0 -192 77 -273 154 -22 20 -46 34 -53 31 -8 -2 -11 0 -8 5 3 6 -2 13 -12 17
-10 3 -44 26 -76 50 -33 23 -65 43 -72 43 -7 0 -15 7 -19 15 -6 17 19 21 29 5
3 -5 12 -10 18 -10 7 0 -1 11 -18 24 -20 16 -32 20 -37 13 -5 -8 -15 -4 -32
13 -16 14 -26 18 -26 11 0 -19 66 -77 128 -112 29 -17 50 -34 47 -39 -3 -4 2
-13 10 -20 8 -7 15 -9 15 -4 0 4 6 0 13 -10 8 -10 12 -30 9 -43 -4 -23 -5 -23
-25 -6 -19 17 -20 17 -9 -3 11 -21 11 -41 -1 -60 -4 -7 1 -14 13 -17 11 -3 20
-10 20 -16 0 -8 -6 -9 -19 -1 -32 16 -42 12 -23 -11 65 -80 105 -124 181 -199
132 -131 213 -232 197 -247 -3 -3 5 -14 17 -25 17 -15 18 -18 5 -14 -27 8 -22
-9 12 -41 29 -27 41 -51 20 -38 -9 6 -14 -10 -13 -42 1 -7 -3 -13 -7 -13 -5 0
-15 -3 -23 -6 -12 -4 -14 0 -10 18 5 19 3 21 -7 11 -11 -10 -17 -10 -28 0 -12
9 -16 9 -19 0 -6 -17 -23 -16 -23 1 0 15 -33 26 -100 32 -25 3 -56 6 -70 9
-14 2 -19 2 -12 -1 24 -11 11 -23 -18 -17 -17 3 -30 1 -30 -5 0 -5 -9 -12 -20
-15 -11 -3 -20 -1 -20 4 0 5 -7 9 -15 9 -19 0 -19 -7 0 -27 10 -10 35 -15 68
-16 29 0 57 -4 64 -9 7 -6 14 -4 19 4 6 9 10 5 14 -12 5 -20 12 -25 36 -25 34
0 95 -43 89 -62 -3 -8 4 -13 14 -13 10 0 21 -6 24 -14 4 -10 0 -14 -14 -11
-18 4 -18 2 -4 -26 9 -16 20 -29 26 -29 5 0 9 -6 8 -12 -3 -28 2 -49 10 -43
10 6 24 -26 19 -43 -2 -6 5 -17 14 -24 32 -24 5 -44 -64 -47 -10 -1 -18 -7
-18 -14 0 -7 -9 -18 -20 -25 -18 -11 -20 -10 -20 8 0 11 -3 20 -7 20 -11 0
-40 -20 -31 -20 5 0 0 -8 -10 -18 -9 -11 -20 -17 -24 -15 -12 6 -108 -9 -108
-17 0 -4 9 -10 20 -13 11 -3 20 -1 20 5 0 6 11 8 24 4 14 -3 36 -2 51 4 16 6
32 6 43 1 9 -6 31 -16 49 -23 26 -10 31 -17 27 -35 -5 -18 -2 -23 12 -22 11 0
14 3 7 6 -18 7 -16 23 2 23 22 0 18 -37 -4 -50 -22 -11 -24 -50 -4 -50 9 0 11
-8 7 -25 -5 -21 -1 -27 25 -38 17 -7 28 -16 24 -20 -3 -4 1 -7 10 -7 15 0 74
-96 65 -105 -2 -2 -30 10 -63 26 -88 42 -190 61 -297 54 -49 -3 -116 -6 -149
-6 -32 -1 -59 -5 -59 -10 0 -15 -69 -22 -85 -9 -13 11 -24 9 -60 -10 -40 -20
-45 -27 -45 -57 0 -30 3 -33 30 -33 16 0 33 7 38 16 17 31 192 88 240 78 59
-11 72 -16 72 -25 0 -6 -4 -8 -9 -4 -5 3 -12 1 -15 -4 -6 -9 16 -21 40 -21 8
0 32 11 52 25 86 59 136 53 205 -24 l37 -41 205 0 c162 0 205 3 205 13 0 26
-25 67 -42 67 -9 0 -20 9 -23 20 -5 15 -15 20 -39 20 -36 0 -74 32 -77 65 -5
49 1 87 14 82 6 -2 11 -10 9 -17 -2 -8 3 -10 13 -6 9 3 18 6 21 6 2 0 1 7 -2
15 -4 10 0 15 15 15 20 0 46 32 34 44 -3 3 -1 6 5 6 7 0 12 -7 12 -15 0 -18
16 -20 26 -4 3 6 1 15 -6 19 -7 4 -9 13 -6 19 4 6 2 11 -3 11 -6 0 -11 4 -11
10 0 5 12 8 28 6 15 -2 21 -1 15 1 -7 2 -13 8 -14 11 0 4 -2 15 -4 24 -4 23 1
23 27 -2 12 -10 25 -17 29 -14 12 7 -1 34 -17 34 -10 0 -8 6 6 20 11 11 31 20
44 20 14 0 28 5 32 11 5 9 -1 10 -20 5 -19 -5 -26 -3 -21 4 4 7 -2 9 -19 6
-14 -3 -40 -1 -58 5 -23 6 -34 5 -40 -4 -5 -7 -8 1 -8 21 0 33 16 44 26 17 8
-21 25 -19 18 3 -4 13 -1 12 14 -5 22 -26 44 -31 36 -9 -3 8 -18 19 -34 26
-15 6 -38 23 -50 37 -16 19 -24 22 -30 13 -4 -7 -13 -9 -19 -5 -9 5 -9 10 0
21 9 11 8 14 -5 14 -19 0 -22 20 -3 21 6 0 1 5 -13 11 l-25 10 23 9 c27 10 27
14 1 40 -19 19 -20 21 -3 33 9 7 14 18 10 24 -4 8 -2 10 7 6 24 -9 28 12 7 31
-12 11 -20 31 -20 50 0 17 -6 37 -12 44 -10 11 -10 13 0 7 11 -7 16 4 13 31
-1 6 3 14 9 18 8 5 7 11 -2 22 -15 18 -20 38 -22 81 0 17 -6 32 -13 32 -7 0
-10 17 -9 50 3 47 1 50 -21 50 -21 0 -22 3 -13 20 8 16 8 20 -4 20 -18 0 -31
37 -18 53 10 12 -10 42 -21 31 -2 -3 -4 7 -4 21 0 14 4 25 9 25 5 0 6 5 3 10
-4 6 -16 8 -27 4 -17 -5 -18 -3 -9 14 12 22 5 33 -16 25 -9 -3 -14 0 -13 8 3
22 -11 59 -23 59 -5 0 -3 8 5 18 9 10 16 35 16 60 -1 34 -4 42 -19 42 -26 0
-24 28 3 52 l22 19 -22 6 c-17 4 -20 8 -11 19 13 16 4 34 -17 34 -8 0 -12 5
-9 10 3 6 1 10 -6 10 -8 0 -8 4 1 15 7 8 8 15 3 15 -5 0 -9 9 -9 20 0 11 5 20
10 20 5 0 1 9 -9 20 -11 13 -14 20 -6 20 8 0 7 6 -4 16 -9 9 -14 22 -11 29 2
7 -4 40 -14 74 -11 33 -17 68 -13 77 3 9 0 20 -7 24 -8 5 -18 23 -24 42 -6 18
-18 33 -26 33 -8 0 -19 10 -25 23 -11 25 -14 26 -37 8z m62 -766 c12 -8 11
-10 -7 -10 -12 0 -25 5 -28 10 -8 13 15 13 35 0z m77 -26 c-3 -3 -12 -4 -19
-1 -8 3 -5 6 6 6 11 1 17 -2 13 -5z m-37 -29 c0 -9 -51 -25 -61 -19 -17 10 1
24 32 24 16 0 29 -2 29 -5z m20 -25 c0 -5 -4 -10 -9 -10 -6 0 -13 5 -16 10 -3
6 1 10 9 10 9 0 16 -4 16 -10z m38 -12 c-3 -7 -13 -15 -24 -17 -16 -3 -17 -1
-5 13 16 19 34 21 29 4z m7 -46 c-3 -3 -11 0 -18 7 -9 10 -8 11 6 5 10 -3 15
-9 12 -12z m335 -827 c0 -5 4 -4 9 4 6 9 16 11 27 7 17 -7 16 -9 -11 -23 -20
-11 -30 -12 -33 -4 -2 6 -8 11 -14 11 -6 0 -7 -8 -4 -17 5 -15 4 -15 -9 1 -21
27 -19 34 10 32 14 0 25 -5 25 -11z m-370 -26 c0 -16 -32 -23 -41 -8 -7 10 -8
7 -7 -10 2 -13 -2 -26 -8 -28 -6 -2 -11 9 -11 26 0 25 5 31 26 33 30 4 41 1
41 -13z m310 11 c0 -5 -5 -10 -11 -10 -5 0 -7 5 -4 10 3 6 8 10 11 10 2 0 4
-4 4 -10z m23 -64 c4 -10 1 -13 -9 -9 -15 6 -19 23 -5 23 5 0 11 -7 14 -14z
m-13 -56 c0 -15 -7 -20 -25 -20 -14 0 -25 4 -25 9 0 5 -6 11 -12 14 -7 2 -1 2
14 0 14 -2 29 1 33 6 10 16 15 13 15 -9z m-80 -31 c0 -5 -4 -9 -10 -9 -5 0
-10 7 -10 16 0 8 5 12 10 9 6 -3 10 -10 10 -16z"/>
<path d="M2520 2185 c0 -8 -6 -15 -12 -15 -7 -1 1 -7 17 -14 36 -16 46 -11 19
9 -12 9 -14 14 -6 15 7 0 10 5 7 10 -9 15 -25 12 -25 -5z"/>
<path d="M2588 2193 c-20 -5 -24 -23 -5 -23 6 1 23 7 37 15 22 12 22 14 5 13
-11 0 -28 -2 -37 -5z"/>
<path d="M3318 2178 c-22 -22 -23 -29 -3 -22 8 4 15 1 15 -5 0 -6 5 -11 10
-11 6 0 10 9 10 21 0 16 4 19 21 14 15 -5 20 -3 17 6 -7 20 -50 18 -70 -3z"/>
<path d="M1330 2180 c0 -5 15 -10 33 -9 27 0 29 2 12 9 -28 12 -45 12 -45 0z"/>
<path d="M1750 2186 c0 -2 7 -7 16 -10 8 -3 12 -2 9 4 -6 10 -25 14 -25 6z"/>
<path d="M447 2143 c-3 -15 -1 -29 4 -31 14 -5 11 -23 -7 -43 -15 -16 -14 -17
7 -12 18 5 21 3 16 -10 -4 -10 -2 -17 2 -17 5 0 7 -10 4 -22 -4 -21 -3 -21 7
-5 7 11 9 32 5 50 -3 18 -8 48 -11 67 -6 46 -20 58 -27 23z"/>
<path d="M1298 2154 c6 -3 10 -10 6 -15 -7 -12 57 -11 76 1 18 11 19 11 -45
15 -27 2 -44 1 -37 -1z"/>
<path d="M2595 2150 c3 -5 8 -10 11 -10 2 0 4 5 4 10 0 6 -5 10 -11 10 -5 0
-7 -4 -4 -10z"/>
<path d="M2625 2150 c-4 -6 0 -10 7 -10 9 0 9 -3 -2 -10 -9 -6 -10 -10 -3 -10
6 0 19 -3 29 -7 11 -4 15 -3 11 4 -4 6 -2 13 4 15 6 2 0 9 -15 16 -16 7 -28 8
-31 2z"/>
<path d="M2470 2131 c0 -22 37 -35 59 -20 13 8 12 9 -7 6 -13 -3 -20 -1 -16 5
4 6 0 14 -7 19 -21 13 -29 11 -29 -10z"/>
<path d="M1780 2125 c7 -8 17 -12 22 -9 6 4 5 10 -3 15 -22 14 -33 10 -19 -6z"/>
<path d="M181 2114 c0 -11 3 -14 6 -6 3 7 2 16 -1 19 -3 4 -6 -2 -5 -13z"/>
<path d="M2034 2116 c-10 -8 -17 -16 -14 -19 3 -2 14 4 24 14 23 22 18 25 -10
5z"/>
<path d="M2090 2120 c0 -5 5 -10 11 -10 5 0 7 5 4 10 -3 6 -8 10 -11 10 -2 0
-4 -4 -4 -10z"/>
<path d="M110 2111 c0 -6 4 -13 10 -16 6 -3 7 1 4 9 -7 18 -14 21 -14 7z"/>
<path d="M2562 2099 c-15 -23 -15 -29 -2 -29 13 0 32 38 22 44 -4 2 -13 -4
-20 -15z"/>
<path d="M157 2090 c-3 -11 -1 -23 4 -26 5 -3 9 6 9 20 0 31 -6 34 -13 6z"/>
<path d="M3195 2100 c-3 -5 -1 -10 4 -10 6 0 11 5 11 10 0 6 -2 10 -4 10 -3 0
-8 -4 -11 -10z"/>
<path d="M3290 2106 c0 -9 30 -14 35 -6 4 6 -3 10 -14 10 -12 0 -21 -2 -21 -4z"/>
<path d="M3133 2088 c-13 -6 -23 -15 -23 -20 0 -13 13 -9 40 12 27 21 18 25
-17 8z"/>
<path d="M2638 2083 c7 -3 16 -2 19 1 4 3 -2 6 -13 5 -11 0 -14 -3 -6 -6z"/>
<path d="M1730 2069 c0 -5 5 -7 10 -4 6 3 10 8 10 11 0 2 -4 4 -10 4 -5 0 -10
-5 -10 -11z"/>
<path d="M211 2051 c-6 -10 -8 -21 -4 -24 3 -4 0 -15 -8 -24 -13 -16 -12 -17
4 -4 15 12 17 11 17 -6 0 -10 -5 -24 -11 -30 -8 -8 -5 -13 11 -18 12 -4 24 -4
27 -2 8 9 -8 67 -18 67 -5 0 -7 14 -4 30 6 34 0 39 -14 11z"/>
<path d="M1316 2049 c-19 -19 -19 -19 7 -19 28 0 32 6 19 26 -5 8 -13 5 -26
-7z"/>
<path d="M1390 2060 c-9 -6 -10 -10 -3 -10 6 0 15 5 18 10 8 12 4 12 -15 0z"/>
<path d="M2060 2060 c-13 -8 -12 -10 3 -10 9 0 17 5 17 10 0 12 -1 12 -20 0z"/>
<path d="M2465 2056 c-1 -6 -8 -30 -14 -53 -8 -29 -8 -49 -1 -69 20 -51 1
-362 -24 -402 -4 -8 2 -24 17 -42 29 -34 41 -78 32 -119 -5 -22 0 -36 22 -62
15 -19 29 -36 30 -39 2 -2 14 2 26 10 12 7 36 17 52 21 28 6 28 7 5 8 -14 1
-34 8 -44 16 -11 8 -28 15 -38 15 -25 0 -23 16 3 23 12 3 22 0 26 -9 3 -8 11
-14 19 -14 10 0 7 7 -8 22 -14 14 -18 23 -10 26 7 2 9 8 6 14 -5 7 2 9 20 6
14 -3 29 -1 32 3 3 5 -4 9 -15 9 -12 0 -21 4 -21 10 0 14 -51 25 -59 12 -4 -6
-11 -5 -19 4 -11 12 -9 14 8 14 11 0 20 5 20 11 0 7 -10 9 -27 5 -22 -5 -24
-4 -11 4 20 12 68 3 69 -14 0 -11 17 21 18 37 1 4 -15 7 -34 7 -19 0 -35 5
-35 11 0 6 6 9 13 6 7 -2 23 4 36 14 23 19 23 19 2 19 -12 0 -21 -4 -21 -10 0
-14 -27 -13 -36 2 -5 7 -2 9 8 5 11 -4 18 1 21 14 4 15 2 19 -9 15 -8 -3 -14
-1 -14 5 0 6 -8 18 -17 27 -16 16 -15 17 15 20 36 4 44 19 10 18 -14 -1 -23 5
-23 14 0 8 -4 21 -8 28 -6 9 7 12 55 13 35 1 54 4 43 6 -11 3 -25 9 -31 14 -7
6 -22 5 -38 -1 -15 -5 -32 -10 -39 -10 -17 0 4 17 28 23 17 4 17 5 -4 6 -17 1
-21 5 -17 17 3 9 6 20 6 25 0 5 9 9 20 9 11 0 20 -5 20 -11 0 -17 43 -5 46 13
1 12 -3 15 -14 10 -14 -5 -15 -3 -5 9 10 12 10 18 0 29 -6 7 -7 10 -2 7 6 -3
17 -1 25 4 13 8 13 10 1 18 -12 8 -12 12 -2 25 14 17 5 21 -24 10 -11 -4 -13
-9 -6 -13 14 -9 -9 -61 -26 -61 -19 0 -15 -18 5 -23 13 -4 13 -5 -4 -6 -29 -1
-53 26 -30 35 12 5 13 10 5 26 -8 15 -8 22 1 28 9 6 6 11 -9 20 -17 9 -20 14
-11 25 8 10 7 14 -7 18 -17 4 -17 4 0 12 12 5 22 2 30 -9 7 -10 19 -14 28 -11
19 7 21 35 2 35 -8 0 -11 5 -7 12 5 8 2 9 -9 5 -12 -5 -17 -1 -17 13 0 20 13
34 23 24 9 -9 97 -11 97 -2 0 4 -10 8 -22 9 -13 0 -47 4 -76 8 -36 5 -55 4
-57 -3z m95 -746 c13 -9 13 -10 0 -10 -8 0 -22 5 -30 10 -13 9 -13 10 0 10 8
0 22 -5 30 -10z"/>
<path d="M3358 2053 c7 -3 16 -2 19 1 4 3 -2 6 -13 5 -11 0 -14 -3 -6 -6z"/>
<path d="M1755 2040 c3 -5 13 -10 21 -10 8 0 12 5 9 10 -3 6 -13 10 -21 10 -8
0 -12 -4 -9 -10z"/>
<path d="M2692 2020 c9 -13 16 -16 23 -9 7 7 5 13 -5 19 -24 15 -31 11 -18
-10z"/>
<path d="M2988 2023 c7 -3 16 -2 19 1 4 3 -2 6 -13 5 -11 0 -14 -3 -6 -6z"/>
<path d="M1366 2005 c-3 -9 0 -15 8 -15 7 0 19 7 26 15 10 12 9 15 -8 15 -11
0 -22 -7 -26 -15z"/>
<path d="M2570 2010 c0 -5 12 -10 26 -10 14 0 23 4 19 10 -3 6 -15 10 -26 10
-10 0 -19 -4 -19 -10z"/>
<path d="M2670 2010 c0 -5 -9 -10 -21 -10 -11 0 -18 -4 -15 -9 3 -5 -8 -14
-25 -21 -36 -15 -33 -34 6 -38 25 -3 27 -2 16 12 -8 10 -9 16 -3 16 6 0 18 7
27 17 13 13 19 13 25 4 10 -17 22 2 14 23 -7 18 -24 22 -24 6z"/>
<path d="M3278 2013 c7 -3 16 -2 19 1 4 3 -2 6 -13 5 -11 0 -14 -3 -6 -6z"/>
<path d="M2988 1983 c7 -3 16 -2 19 1 4 3 -2 6 -13 5 -11 0 -14 -3 -6 -6z"/>
<path d="M1380 1968 c0 -12 38 -10 45 2 4 6 -5 9 -19 8 -15 -1 -26 -6 -26 -10z"/>
<path d="M3380 1959 c0 -11 4 -18 10 -14 5 3 7 12 3 20 -7 21 -13 19 -13 -6z"/>
<path d="M1830 1966 c0 -2 7 -7 16 -10 8 -3 12 -2 9 4 -6 10 -25 14 -25 6z"/>
<path d="M2715 1960 c3 -5 8 -10 11 -10 2 0 4 5 4 10 0 6 -5 10 -11 10 -5 0
-7 -4 -4 -10z"/>
<path d="M2965 1960 c-8 -13 5 -13 25 0 13 8 13 10 -2 10 -9 0 -20 -4 -23 -10z"/>
<path d="M3341 1961 c-10 -6 -9 -10 3 -14 8 -3 18 -2 21 3 8 13 -9 20 -24 11z"/>
<path d="M500 1955 c0 -6 4 -24 9 -42 7 -22 6 -33 -2 -36 -8 -2 -6 -10 6 -21
22 -23 22 -30 -5 -49 -13 -8 -20 -18 -16 -22 4 -4 14 -2 22 4 18 15 37 6 30
-14 -4 -8 -10 -13 -14 -10 -4 3 -15 -6 -24 -20 -20 -30 -21 -46 -1 -19 8 10
15 15 15 10 0 -5 7 -3 16 5 13 10 17 10 24 -1 6 -10 10 -6 16 16 4 16 10 34
14 39 12 16 20 75 11 75 -5 0 -14 -7 -21 -15 -7 -8 -16 -15 -20 -15 -11 0 -30
48 -25 62 3 7 -4 24 -15 38 -11 14 -20 20 -20 15z"/>
<path d="M3265 1940 c-8 -13 15 -13 35 0 12 8 11 10 -7 10 -12 0 -25 -4 -28
-10z"/>
<path d="M270 1920 c6 -11 13 -20 16 -20 2 0 0 9 -6 20 -6 11 -13 20 -16 20
-2 0 0 -9 6 -20z"/>
<path d="M1394 1920 c0 -13 5 -19 13 -16 7 3 14 1 14 -4 1 -6 2 -14 3 -19 0
-5 5 -13 10 -18 5 -4 6 -3 3 4 -4 6 -2 13 3 15 6 2 2 13 -9 25 -14 15 -17 23
-8 26 7 3 3 6 -8 6 -14 1 -21 -5 -21 -19z"/>
<path d="M2510 1930 c0 -13 20 -13 40 0 12 8 9 10 -12 10 -16 0 -28 -4 -28
-10z"/>
<path d="M3049 1915 c-1 -3 -2 -8 -3 -12 -1 -5 -5 -14 -10 -22 -6 -10 -5 -12
2 -7 7 4 12 5 12 1 0 -3 -10 -10 -22 -15 -23 -9 -23 -9 2 -9 14 0 34 6 44 14
17 13 17 15 3 21 -9 3 -13 12 -10 20 3 8 0 14 -6 14 -6 0 -12 -2 -12 -5z"/>
<path d="M3096 1903 c-6 -14 -5 -15 5 -6 7 7 10 15 7 18 -3 3 -9 -2 -12 -12z"/>
<path d="M3267 1890 c-27 -22 -42 -26 -32 -10 3 6 2 10 -4 10 -5 0 -9 -8 -8
-19 1 -13 7 -17 22 -14 35 8 85 34 85 43 0 17 -36 11 -63 -10z"/>
<path d="M250 1885 c0 -8 2 -15 4 -15 2 0 6 7 10 15 3 8 1 15 -4 15 -6 0 -10
-7 -10 -15z"/>
<path d="M555 1890 c3 -5 8 -10 11 -10 2 0 4 5 4 10 0 6 -5 10 -11 10 -5 0 -7
-4 -4 -10z"/>
<path d="M1899 1898 c-4 -13 -10 -47 -11 -63 -1 -11 -6 -26 -11 -32 -5 -7 -11
-44 -12 -83 -4 -78 -9 -90 -33 -90 -13 0 -14 -2 -3 -9 7 -5 23 -7 35 -4 17 3
15 1 -6 -12 -34 -19 -36 -35 -5 -36 16 -1 18 -2 5 -6 -22 -6 -24 -23 -3 -23 9
0 18 7 21 15 6 15 25 21 23 8 -5 -28 3 -53 16 -53 13 0 21 25 16 53 0 4 3 7 9
7 5 0 14 -19 20 -42 15 -57 31 -101 43 -113 12 -13 4 33 -18 105 -10 30 -18
65 -19 78 -1 21 -26 33 -26 12 0 -5 -10 -10 -21 -10 -17 0 -19 3 -11 13 6 7 9
23 5 35 -7 29 13 29 22 0 6 -21 8 -20 15 12 7 27 5 38 -6 46 -27 22 -38 154
-12 154 5 0 6 -5 2 -12 -5 -7 -3 -8 6 -3 10 6 9 11 -5 22 -14 9 -15 13 -4 13
12 0 12 2 -1 10 -14 9 -29 13 -31 8z"/>
<path d="M2608 1893 c7 -3 16 -2 19 1 4 3 -2 6 -13 5 -11 0 -14 -3 -6 -6z"/>
<path d="M300 1880 c0 -5 5 -10 11 -10 5 0 7 5 4 10 -3 6 -8 10 -11 10 -2 0
-4 -4 -4 -10z"/>
<path d="M1350 1875 c-11 -13 -10 -14 4 -9 9 3 16 10 16 15 0 13 -6 11 -20 -6z"/>
<path d="M2650 1883 c8 -3 28 -12 43 -20 27 -13 27 -13 15 7 -9 13 -23 20 -43
19 -16 0 -23 -3 -15 -6z"/>
<path d="M3310 1860 c-6 -11 -7 -20 -3 -20 5 0 14 9 21 20 7 11 8 20 2 20 -5
0 -14 -9 -20 -20z"/>
<path d="M270 1835 c0 -28 3 -33 17 -28 11 4 12 8 5 11 -17 5 -15 22 3 22 20
0 19 16 -1 24 -24 9 -24 9 -24 -29z"/>
<path d="M2635 1861 c-3 -5 -1 -12 5 -16 5 -3 10 1 10 9 0 18 -6 21 -15 7z"/>
<path d="M75 1850 c3 -5 8 -10 11 -10 2 0 4 5 4 10 0 6 -5 10 -11 10 -5 0 -7
-4 -4 -10z"/>
<path d="M130 1850 c0 -5 5 -10 11 -10 5 0 7 5 4 10 -3 6 -8 10 -11 10 -2 0
-4 -4 -4 -10z"/>
<path d="M3345 1850 c-3 -5 -1 -10 4 -10 6 0 11 5 11 10 0 6 -2 10 -4 10 -3 0
-8 -4 -11 -10z"/>
<path d="M1991 1834 c0 -11 3 -14 6 -6 3 7 2 16 -1 19 -3 4 -6 -2 -5 -13z"/>
<path d="M3060 1841 c-8 -6 -19 -7 -25 -5 -5 3 -1 -2 10 -11 14 -11 30 -14 52
-10 17 3 34 1 38 -4 7 -12 35 -3 35 10 0 5 -11 9 -24 9 -14 0 -28 5 -31 10 -8
12 -35 13 -55 1z"/>
<path d="M950 1823 c0 -11 5 -11 20 -3 11 6 20 13 20 15 0 2 -9 3 -20 2 -11
-1 -20 -7 -20 -14z"/>
<path d="M1394 1829 c-3 -5 9 -9 25 -9 17 0 31 2 31 4 0 8 -51 13 -56 5z"/>
<path d="M3255 1830 c-3 -5 -2 -10 4 -10 5 0 13 5 16 10 3 6 2 10 -4 10 -5 0
-13 -4 -16 -10z"/>
<path d="M38 1823 c7 -3 16 -2 19 1 4 3 -2 6 -13 5 -11 0 -14 -3 -6 -6z"/>
<path d="M1970 1816 c0 -8 4 -17 9 -20 5 -4 7 3 4 14 -6 23 -13 26 -13 6z"/>
<path d="M2620 1810 c-13 -9 -13 -10 0 -10 9 -1 5 -6 -10 -15 -17 -10 -20 -14
-9 -15 9 0 22 7 29 15 7 8 9 15 4 15 -5 0 -2 5 6 10 8 5 11 10 5 10 -5 0 -17
-5 -25 -10z"/>
<path d="M3368 1813 c6 -2 18 -2 25 0 6 3 1 5 -13 5 -14 0 -19 -2 -12 -5z"/>
<path d="M970 1790 c0 -5 5 -10 10 -10 6 0 10 5 10 10 0 6 -4 10 -10 10 -5 0
-10 -4 -10 -10z"/>
<path d="M1410 1780 c0 -5 5 -10 11 -10 5 0 7 5 4 10 -3 6 -8 10 -11 10 -2 0
-4 -4 -4 -10z"/>
<path d="M1318 1773 c7 -3 16 -2 19 1 4 3 -2 6 -13 5 -11 0 -14 -3 -6 -6z"/>
<path d="M3050 1770 c0 -5 5 -10 10 -10 6 0 10 5 10 10 0 6 -4 10 -10 10 -5 0
-10 -4 -10 -10z"/>
<path d="M3330 1770 c-8 -5 -10 -10 -5 -10 6 0 17 5 25 10 8 5 11 10 5 10 -5
0 -17 -5 -25 -10z"/>
<path d="M3385 1770 c-3 -5 -2 -10 4 -10 5 0 13 5 16 10 3 6 2 10 -4 10 -5 0
-13 -4 -16 -10z"/>
<path d="M575 1728 c-10 -24 -19 -56 -21 -72 -4 -28 -3 -28 14 -13 21 20 32
22 32 6 0 -5 -4 -8 -9 -5 -9 6 -25 -54 -17 -62 7 -6 30 19 41 43 7 18 9 18 12
3 6 -25 23 -22 23 3 0 12 -8 23 -20 26 -20 5 -24 41 -6 54 12 9 -3 31 -16 23
-7 -5 -9 0 -6 14 10 38 -9 24 -27 -20z"/>
<path d="M1360 1760 c0 -5 5 -10 10 -10 6 0 10 5 10 10 0 6 -4 10 -10 10 -5 0
-10 -4 -10 -10z"/>
<path d="M2538 1763 c7 -3 16 -2 19 1 4 3 -2 6 -13 5 -11 0 -14 -3 -6 -6z"/>
<path d="M965 1750 c-3 -5 -1 -10 4 -10 6 0 11 5 11 10 0 6 -2 10 -4 10 -3 0
-8 -4 -11 -10z"/>
<path d="M371 1724 c0 -11 3 -14 6 -6 3 7 2 16 -1 19 -3 4 -6 -2 -5 -13z"/>
<path d="M1030 1731 c0 -4 11 -6 25 -3 14 2 25 6 25 8 0 2 -11 4 -25 4 -14 0
-25 -4 -25 -9z"/>
<path d="M3285 1731 c3 -5 -5 -17 -17 -25 -12 -9 -18 -16 -13 -16 13 0 27 11
44 33 12 15 11 17 -3 17 -10 0 -15 -4 -11 -9z"/>
<path d="M3312 1709 l-24 -29 24 0 c15 0 19 3 10 8 -10 7 -8 12 5 24 10 8 25
18 33 21 11 4 9 5 -5 6 -11 0 -30 -13 -43 -30z"/>
<path d="M250 1710 c14 -10 27 -17 29 -14 6 5 -31 33 -44 33 -5 1 1 -8 15 -19z"/>
<path d="M994 1705 c-1 -14 2 -25 7 -25 5 0 9 11 9 25 0 33 -15 33 -16 0z"/>
<path d="M3220 1720 c0 -5 7 -7 15 -4 8 4 15 8 15 10 0 2 -7 4 -15 4 -8 0 -15
-4 -15 -10z"/>
<path d="M1370 1716 c0 -2 9 -6 20 -9 11 -3 20 -1 20 4 0 5 -9 9 -20 9 -11 0
-20 -2 -20 -4z"/>
<path d="M3500 1690 c0 -32 14 -40 24 -15 6 18 -2 45 -15 45 -5 0 -9 -13 -9
-30z"/>
<path d="M516 1694 c-5 -14 -4 -15 9 -4 17 14 19 20 6 20 -5 0 -12 -7 -15 -16z"/>
<path d="M1328 1703 c7 -3 16 -2 19 1 4 3 -2 6 -13 5 -11 0 -14 -3 -6 -6z"/>
<path d="M410 1689 c0 -6 -7 -9 -15 -5 -20 7 -19 -8 1 -28 14 -14 14 -16 0
-16 -10 0 -13 -6 -10 -15 4 -8 12 -15 19 -15 18 0 30 40 16 50 -7 3 -9 14 -5
23 3 9 3 17 0 17 -3 0 -6 -5 -6 -11z"/>
<path d="M455 1690 c-3 -5 -2 -10 4 -10 5 0 13 5 16 10 3 6 2 10 -4 10 -5 0
-13 -4 -16 -10z"/>
<path d="M1063 1666 c4 -10 -2 -16 -20 -18 l-25 -3 20 -25 c11 -14 24 -21 28
-17 5 4 3 12 -4 16 -10 6 -10 11 3 21 17 14 20 40 4 40 -6 0 -9 -6 -6 -14z"/>
<path d="M1482 1673 c-6 -3 -10 -9 -7 -14 3 -5 1 -17 -5 -28 -10 -19 -36 -21
-79 -5 -12 4 -12 2 0 -13 7 -10 14 -19 14 -20 1 -1 17 2 36 7 26 7 38 18 47
42 13 35 13 37 -6 31z"/>
<path d="M3200 1670 c0 -13 11 -13 30 0 12 8 11 10 -7 10 -13 0 -23 -4 -23
-10z"/>
<path d="M2550 1661 c0 -10 19 -25 25 -20 1 2 -3 10 -11 17 -8 7 -14 8 -14 3z"/>
<path d="M1400 1650 c-13 -8 -12 -10 3 -10 9 0 17 5 17 10 0 12 -1 12 -20 0z"/>
<path d="M3208 1633 c-15 -18 39 -17 72 2 24 13 24 14 -18 12 -24 -1 -48 -7
-54 -14z"/>
<path d="M3350 1629 c-17 -31 -6 -33 26 -5 28 24 28 25 7 26 -13 0 -27 -9 -33
-21z"/>
<path d="M3490 1640 c0 -5 5 -10 10 -10 6 0 10 5 10 10 0 6 -4 10 -10 10 -5 0
-10 -4 -10 -10z"/>
<path d="M436 1625 c-29 -30 -17 -47 16 -22 10 8 13 18 9 26 -6 10 -12 9 -25
-4z"/>
<path d="M2955 1630 c-3 -6 1 -7 9 -4 18 7 21 14 7 14 -6 0 -13 -4 -16 -10z"/>
<path d="M3145 1630 c-3 -5 -1 -10 4 -10 6 0 11 5 11 10 0 6 -2 10 -4 10 -3 0
-8 -4 -11 -10z"/>
<path d="M1515 1620 c-3 -5 -1 -10 4 -10 6 0 11 5 11 10 0 6 -2 10 -4 10 -3 0
-8 -4 -11 -10z"/>
<path d="M2360 1610 c0 -5 5 -10 10 -10 6 0 10 5 10 10 0 6 -4 10 -10 10 -5 0
-10 -4 -10 -10z"/>
<path d="M2595 1599 c-50 -24 -50 -26 -20 -31 19 -4 25 -2 21 8 -3 8 -1 14 4
14 10 0 13 -12 11 -40 0 -10 1 -11 5 -2 3 6 15 12 27 12 16 0 18 3 9 12 -9 9
-7 14 5 23 29 22 -20 24 -62 4z"/>
<path d="M1089 1588 c-5 -10 -8 -18 -7 -19 2 0 17 -2 33 -4 17 -2 22 -1 13 2
-22 6 -24 23 -3 23 8 0 15 4 15 8 0 15 -42 7 -51 -10z"/>
<path d="M450 1586 c0 -7 7 -19 16 -26 13 -11 19 -9 42 13 19 19 22 27 11 27
-8 0 -20 -5 -27 -12 -9 -9 -12 -9 -12 0 0 7 -7 12 -15 12 -8 0 -15 -6 -15 -14z"/>
<path d="M3184 1585 c-16 -12 -16 -14 -3 -15 9 0 30 7 45 15 l29 15 -26 0
c-14 0 -34 -7 -45 -15z"/>
<path d="M3487 1593 c-4 -3 -7 -18 -6 -32 1 -26 1 -25 10 3 9 31 7 41 -4 29z"/>
<path d="M1460 1579 c0 -7 -9 -9 -22 -6 -22 6 -22 6 -4 -8 13 -10 22 -11 26
-5 4 6 15 7 26 3 18 -6 18 -6 2 10 -19 20 -28 22 -28 6z"/>
<path d="M2359 1578 c15 -21 31 -23 31 -6 0 6 -3 8 -7 5 -3 -4 -13 -1 -22 6
-14 11 -14 10 -2 -5z"/>
<path d="M585 1570 c-3 -5 -4 -10 -1 -10 2 0 12 -3 20 -6 12 -5 15 -2 10 10
-7 18 -20 21 -29 6z"/>
<path d="M1378 1573 c7 -3 16 -2 19 1 4 3 -2 6 -13 5 -11 0 -14 -3 -6 -6z"/>
<path d="M3030 1569 c0 -5 5 -7 10 -4 6 3 10 8 10 11 0 2 -4 4 -10 4 -5 0 -10
-5 -10 -11z"/>
<path d="M3314 1555 c10 -7 15 -19 11 -25 -6 -9 -2 -9 14 -1 27 15 27 27 -1
35 -36 9 -44 6 -24 -9z"/>
<path d="M20 1540 c0 -14 7 -20 23 -20 20 1 20 2 4 11 -9 6 -15 14 -12 20 4 5
1 9 -4 9 -6 0 -11 -9 -11 -20z"/>
<path d="M500 1550 c-8 -5 -11 -12 -7 -16 4 -4 13 -2 19 4 15 15 7 24 -12 12z"/>
<path d="M1077 1543 c-4 -6 -2 -13 5 -15 19 -7 58 3 52 13 -3 5 -13 5 -24 -1
-13 -7 -20 -6 -22 2 -3 9 -6 9 -11 1z"/>
<path d="M3245 1540 c-16 -7 -17 -9 -3 -9 9 -1 20 4 23 9 7 11 7 11 -20 0z"/>
<path d="M550 1529 c0 -5 5 -7 10 -4 6 3 10 8 10 11 0 2 -4 4 -10 4 -5 0 -10
-5 -10 -11z"/>
<path d="M637 1533 c-4 -3 -7 -11 -7 -17 0 -6 5 -5 12 2 6 6 9 14 7 17 -3 3
-9 2 -12 -2z"/>
<path d="M3120 1529 c0 -5 5 -7 10 -4 6 3 10 8 10 11 0 2 -4 4 -10 4 -5 0 -10
-5 -10 -11z"/>
<path d="M1850 1520 c0 -5 -6 -7 -14 -4 -10 4 -12 -2 -9 -20 3 -16 1 -26 -6
-26 -6 0 -11 -7 -11 -15 0 -9 -10 -20 -22 -25 l-23 -9 25 0 c24 -1 23 -2 -10
-31 -19 -16 -30 -29 -23 -30 8 0 9 -9 4 -27 -4 -16 -6 -34 -4 -40 3 -7 -1 -13
-7 -13 -10 0 -10 -4 0 -15 7 -8 18 -15 24 -15 7 0 6 3 -2 8 -9 6 -6 12 12 20
25 11 47 0 26 -13 -17 -10 -11 -25 7 -18 12 5 14 3 8 -7 -5 -8 -4 -11 3 -7 19
12 43 -4 37 -24 -4 -12 -2 -19 6 -19 7 0 5 -6 -6 -13 -17 -13 -17 -14 4 -20
30 -7 29 -60 -1 -81 -12 -9 -17 -16 -10 -16 6 0 12 -6 12 -13 0 -7 7 -22 15
-33 13 -18 14 -17 9 9 -2 15 -1 33 3 40 12 19 11 101 -1 110 -8 6 -8 10 0 13
7 3 8 23 1 65 -6 38 -7 63 -1 67 8 6 10 24 5 63 0 5 -5 7 -11 4 -5 -3 -8 0 -5
7 2 7 6 24 9 38 2 14 7 33 11 42 5 13 2 15 -17 11 -21 -6 -22 -5 -9 11 13 15
13 19 0 27 -18 11 -29 11 -29 -1z m30 -190 c0 -5 -5 -10 -11 -10 -5 0 -7 5 -4
10 3 6 8 10 11 10 2 0 4 -4 4 -10z m-35 -40 c-3 -5 2 -10 12 -10 15 0 15 -2 3
-9 -8 -6 -18 -7 -22 -5 -12 8 -10 34 3 34 5 0 7 -4 4 -10z"/>
<path d="M3280 1520 c0 -6 7 -10 15 -10 8 0 15 2 15 4 0 2 -7 6 -15 10 -8 3
-15 1 -15 -4z"/>
<path d="M2600 1510 c0 -6 7 -10 15 -10 8 0 15 2 15 4 0 2 -7 6 -15 10 -8 3
-15 1 -15 -4z"/>
<path d="M46 1502 c-3 -6 -1 -14 5 -17 14 -9 20 -2 10 14 -6 8 -11 9 -15 3z"/>
<path d="M597 1503 c-12 -12 -7 -22 8 -17 8 4 15 10 15 15 0 11 -14 12 -23 2z"/>
<path d="M1154 1494 c9 -8 21 -12 27 -8 13 7 -7 24 -29 24 -10 0 -10 -4 2 -16z"/>
<path d="M1467 1504 c-3 -3 -23 -6 -44 -6 -32 0 -34 -2 -15 -9 25 -10 82 -1
82 12 0 10 -14 12 -23 3z"/>
<path d="M3020 1500 c-12 -8 -10 -10 8 -10 13 0 20 4 17 10 -7 12 -6 12 -25 0z"/>
<path d="M3167 1504 c-10 -11 3 -24 23 -24 13 0 17 5 14 15 -6 15 -26 20 -37
9z"/>
<path d="M3302 1480 c-7 -12 -8 -20 -2 -20 5 0 10 5 10 10 0 6 5 10 11 10 5 0
7 -4 4 -10 -7 -11 8 -14 18 -4 5 6 -16 34 -25 34 -2 0 -9 -9 -16 -20z"/>
<path d="M3471 1484 c0 -11 3 -14 6 -6 3 7 2 16 -1 19 -3 4 -6 -2 -5 -13z"/>
<path d="M2587 1484 c-8 -8 1 -24 12 -24 4 0 8 7 8 15 0 16 -9 20 -20 9z"/>
<path d="M85 1470 c4 -6 11 -8 16 -5 14 9 11 15 -7 15 -8 0 -12 -5 -9 -10z"/>
<path d="M1355 1469 c-11 -16 -1 -19 13 -3 7 8 8 14 3 14 -5 0 -13 -5 -16 -11z"/>
<path d="M2650 1470 c0 -5 4 -10 9 -10 6 0 13 5 16 10 3 6 -1 10 -9 10 -9 0
-16 -4 -16 -10z"/>
<path d="M3120 1470 c0 -5 4 -10 9 -10 6 0 13 5 16 10 3 6 -1 10 -9 10 -9 0
-16 -4 -16 -10z"/>
<path d="M3210 1470 c-9 -6 -10 -10 -3 -10 6 0 15 5 18 10 8 12 4 12 -15 0z"/>
<path d="M1380 1448 c0 -4 14 -8 30 -8 17 0 30 2 30 4 0 2 -13 6 -30 8 -16 3
-30 1 -30 -4z"/>
<path d="M3575 1450 c-4 -6 -10 -8 -14 -6 -4 3 -7 -5 -8 -17 0 -12 1 -16 4 -9
3 6 11 12 19 12 8 0 14 7 14 15 0 17 -6 19 -15 5z"/>
<path d="M2600 1440 c0 -5 5 -10 10 -10 6 0 10 5 10 10 0 6 -4 10 -10 10 -5 0
-10 -4 -10 -10z"/>
<path d="M1160 1429 c0 -6 -7 -17 -16 -24 -15 -11 -15 -12 4 -17 15 -4 21 0
25 18 2 14 0 27 -4 30 -5 3 -9 0 -9 -7z"/>
<path d="M1220 1430 c-12 -8 -10 -10 8 -10 13 0 20 4 17 10 -7 12 -6 12 -25 0z"/>
<path d="M2639 1422 c-11 -14 -11 -15 0 -5 7 6 20 9 27 6 8 -3 14 -3 14 0 0
14 -30 14 -41 -1z"/>
<path d="M3085 1430 c3 -5 14 -10 23 -10 15 0 15 2 2 10 -20 13 -33 13 -25 0z"/>
<path d="M1350 1421 c0 -5 -13 -11 -30 -14 -17 -4 -30 -13 -30 -21 0 -8 -5
-16 -12 -18 -15 -5 -1 -28 18 -28 8 0 14 9 14 20 0 12 9 24 23 29 13 5 29 16
36 25 11 14 11 16 -3 16 -9 0 -16 -4 -16 -9z"/>
<path d="M1435 1420 c-3 -5 1 -10 9 -10 9 0 16 5 16 10 0 6 -4 10 -9 10 -6 0
-13 -4 -16 -10z"/>
<path d="M3265 1420 c-8 -13 5 -13 25 0 13 8 13 10 -2 10 -9 0 -20 -4 -23 -10z"/>
<path d="M1488 1403 c7 -3 16 -2 19 1 4 3 -2 6 -13 5 -11 0 -14 -3 -6 -6z"/>
<path d="M3325 1400 c-3 -5 -2 -10 4 -10 5 0 13 5 16 10 3 6 2 10 -4 10 -5 0
-13 -4 -16 -10z"/>
<path d="M3512 1394 c-13 -15 -8 -34 9 -34 6 0 7 5 4 10 -9 14 8 13 23 -2 9
-9 15 -9 24 0 9 9 8 12 -6 12 -11 0 -24 6 -30 14 -10 13 -13 13 -24 0z"/>
<path d="M1203 1373 c9 -2 23 -2 30 0 6 3 -1 5 -18 5 -16 0 -22 -2 -12 -5z"/>
<path d="M3230 1360 c0 -11 4 -20 9 -20 17 0 19 15 5 28 -12 11 -14 9 -14 -8z"/>
<path d="M3605 1370 c-19 -8 -19 -9 2 -9 12 -1 25 4 28 9 7 12 -2 12 -30 0z"/>
<path d="M3140 1360 c0 -5 7 -7 15 -4 8 4 15 8 15 10 0 2 -7 4 -15 4 -8 0 -15
-4 -15 -10z"/>
<path d="M1396 1351 c-9 -14 43 -23 62 -11 14 9 12 10 -10 5 -16 -3 -28 -1
-28 5 0 12 -17 13 -24 1z"/>
<path d="M3321 1349 c-13 -5 -22 -11 -20 -13 7 -7 59 6 59 15 0 11 -8 11 -39
-2z"/>
<path d="M3457 1343 c-4 -3 -7 -11 -7 -17 0 -6 5 -5 12 2 6 6 9 14 7 17 -3 3
-9 2 -12 -2z"/>
<path d="M3206 1325 c5 -11 -2 -15 -27 -16 -19 -1 -26 -3 -16 -6 31 -8 67 5
61 22 -4 8 -10 15 -15 15 -4 0 -6 -7 -3 -15z"/>
<path d="M3525 1330 c-3 -5 1 -10 10 -10 9 0 13 5 10 10 -3 6 -8 10 -10 10 -2
0 -7 -4 -10 -10z"/>
<path d="M3566 1329 c3 -5 11 -9 19 -9 8 0 16 4 19 9 3 5 -5 9 -19 9 -14 0
-22 -4 -19 -9z"/>
<path d="M1428 1303 c7 -3 16 -2 19 1 4 3 -2 6 -13 5 -11 0 -14 -3 -6 -6z"/>
<path d="M1980 1300 c0 -5 5 -10 11 -10 5 0 7 5 4 10 -3 6 -8 10 -11 10 -2 0
-4 -4 -4 -10z"/>
<path d="M1270 1271 c0 -17 5 -33 12 -37 6 -4 8 -3 4 4 -3 5 0 13 6 16 10 5
10 7 1 12 -7 3 -9 12 -6 20 3 8 0 14 -6 14 -6 0 -11 -13 -11 -29z"/>
<path d="M1310 1290 c0 -5 5 -10 10 -10 6 0 10 5 10 10 0 6 -4 10 -10 10 -5 0
-10 -4 -10 -10z"/>
<path d="M189 1288 c-9 -27 -7 -58 3 -58 6 0 3 -6 -8 -14 -15 -12 -16 -17 -7
-27 10 -10 14 -9 19 4 3 9 17 17 30 17 13 0 24 4 24 10 0 5 -7 7 -15 4 -8 -4
-15 -2 -15 4 0 5 7 12 15 16 22 8 18 26 -5 26 -11 0 -20 5 -20 10 0 8 -18 15
-21 8z"/>
<path d="M264 1274 c10 -7 23 -11 27 -8 17 10 9 19 -18 21 -26 1 -26 0 -9 -13z"/>
<path d="M2010 1280 c0 -5 11 -10 24 -10 14 0 28 5 31 10 4 6 -7 10 -24 10
-17 0 -31 -4 -31 -10z"/>
<path d="M3442 1278 c2 -6 10 -13 16 -14 7 -1 8 0 2 3 -5 2 -8 9 -4 14 3 5 0
9 -6 9 -7 0 -10 -5 -8 -12z"/>
<path d="M1967 1273 c-14 -13 -7 -42 11 -45 13 -2 17 -13 17 -43 0 -35 3 -40
25 -43 20 -2 26 2 27 17 1 11 -5 25 -13 32 -24 19 -16 32 16 26 17 -4 30 -2
30 3 0 6 -7 10 -15 10 -9 0 -12 6 -9 15 4 10 0 15 -14 15 -12 0 -22 -9 -25
-21 -3 -12 -10 -18 -16 -14 -6 3 -9 11 -6 16 3 5 -1 6 -9 3 -11 -4 -13 0 -9
15 5 21 2 26 -10 14z"/>
<path d="M100 1264 c0 -4 8 -13 18 -20 16 -13 16 -13 -2 -14 -11 0 -17 -2 -14
-5 3 -4 18 -3 33 1 23 6 25 8 11 16 -9 5 -14 13 -11 19 4 5 -3 9 -14 9 -12 0
-21 -3 -21 -6z"/>
<path d="M3584 1248 c-4 -14 -9 -16 -18 -9 -9 8 -18 5 -33 -9 -12 -10 -23 -16
-26 -13 -3 3 -23 2 -44 -1 -37 -7 -39 -9 -57 -69 -27 -87 -115 -334 -136 -382
-67 -153 -121 -285 -126 -311 -5 -26 -1 -37 24 -62 17 -17 33 -40 37 -51 3
-12 11 -21 16 -21 5 0 9 -11 9 -24 0 -17 -7 -26 -25 -30 -14 -4 -30 -17 -35
-29 -5 -12 -9 -16 -9 -9 -1 10 -6 10 -22 1 -15 -8 -19 -8 -15 0 6 9 -30 32
-56 35 -3 1 -10 5 -15 10 -5 5 -3 6 5 2 6 -4 12 -2 12 4 0 12 -53 2 -58 -12
-2 -4 -8 -6 -13 -2 -5 3 -9 0 -9 -5 0 -6 -4 -11 -10 -11 -5 0 -10 7 -10 15 0
13 -3 13 -13 3 -12 -10 -12 -15 0 -26 18 -18 17 -20 -12 -17 -27 3 -111 -32
-101 -42 8 -8 -70 -43 -95 -43 -23 0 -26 -35 -4 -56 13 -14 16 -14 21 0 3 8
13 15 22 15 9 1 37 4 61 7 31 5 42 3 37 -5 -4 -6 13 -2 38 9 40 17 45 17 48 3
3 -15 4 -15 20 0 18 19 48 23 48 7 0 -5 4 -10 10 -10 5 0 9 5 7 11 -1 6 4 14
11 16 6 3 12 0 12 -6 0 -6 8 -11 18 -11 11 0 27 -9 37 -20 10 -11 13 -20 7
-20 -6 0 -13 5 -15 10 -3 6 -4 5 -3 -2 3 -15 46 -19 64 -5 8 6 12 6 12 -1 0
-5 -14 -15 -31 -21 -23 -8 -30 -15 -25 -27 3 -8 6 -20 6 -25 0 -5 74 -9 173
-8 94 0 163 4 153 8 -15 6 -9 12 35 34 30 14 77 35 104 47 96 40 105 45 105
53 0 5 -5 5 -12 1 -7 -4 -8 -3 -4 4 4 7 23 12 42 12 19 0 33 4 30 8 -3 5 -22
7 -43 5 -21 -2 -61 -5 -90 -6 -28 -1 -55 -5 -59 -9 -10 -11 -24 -10 -24 1 0 5
43 19 95 32 53 12 97 24 99 28 2 3 -22 7 -54 7 -32 1 -67 4 -76 8 -15 6 -13
11 15 36 l32 30 -21 22 c-20 21 -20 23 -4 35 10 7 32 13 50 13 55 0 139 20
150 35 9 12 34 16 99 17 77 1 84 3 63 14 -12 7 -42 13 -64 14 -42 0 -274 -49
-328 -70 -16 -6 -31 -8 -34 -5 -3 3 0 5 6 5 7 0 12 4 12 10 0 6 -9 6 -23 1
-22 -8 -23 -7 -19 15 2 13 0 24 -6 24 -6 0 -16 2 -24 5 -7 3 -19 1 -27 -4 -13
-8 -13 -12 0 -27 13 -16 12 -16 -8 -5 -13 6 -23 16 -23 20 0 15 48 41 75 41
32 0 29 23 -4 28 l-22 4 23 21 c13 12 23 29 22 37 0 8 -2 23 -2 33 -2 18 -52
26 -52 7 0 -5 -9 -10 -20 -10 -11 0 -20 -3 -20 -7 0 -5 -17 -9 -38 -10 -35 -2
-33 -1 36 34 39 20 72 41 72 46 0 5 -7 7 -15 3 -8 -3 -15 -1 -15 4 0 6 6 10
13 11 6 0 2 5 -10 11 -25 12 -32 31 -8 22 24 -9 18 6 -12 32 -28 24 -28 24 -5
24 16 0 21 4 15 13 -4 6 -6 20 -5 30 2 11 -6 21 -22 27 -33 12 -34 24 -1 16
14 -4 25 -2 25 4 0 5 -4 10 -10 10 -5 0 -10 11 -10 25 0 19 -4 23 -17 18 -16
-6 -15 -3 2 17 l20 23 -23 -6 -24 -6 24 23 c20 19 25 20 40 9 9 -9 18 -10 22
-5 3 6 -1 13 -10 16 -8 3 -13 10 -10 14 3 5 -4 8 -16 8 -29 -1 -34 20 -6 29
21 7 20 8 -9 12 -18 2 -33 8 -33 13 0 5 23 6 50 3 52 -6 67 6 29 23 -20 9 -21
11 -5 27 9 9 24 20 32 25 8 5 16 22 17 38 2 24 7 30 30 32 20 2 27 8 23 18 -3
8 3 20 14 26 28 18 25 25 -10 30 -23 3 -31 0 -36 -14z m-139 -58 c3 -5 1 -10
-4 -10 -6 0 -11 5 -11 10 0 6 2 10 4 10 3 0 8 -4 11 -10z m80 -60 c-3 -5 -12
-10 -18 -10 -7 0 -6 4 3 10 19 12 23 12 15 0z m-41 -756 c30 -29 14 -27 -34 6
-13 8 -13 10 2 10 9 0 24 -7 32 -16z m111 -164 c-3 -5 -10 -10 -16 -10 -5 0
-9 5 -9 10 0 6 7 10 16 10 8 0 12 -4 9 -10z m-165 -10 c0 -5 -7 -10 -16 -10
-8 0 -12 5 -9 10 3 6 10 10 16 10 5 0 9 -4 9 -10z m120 -58 c0 -5 -7 -9 -15
-9 -8 0 -15 4 -15 9 0 4 7 8 15 8 8 0 15 -4 15 -8z m-730 -22 c0 -4 -6 -10
-14 -13 -10 -4 -12 0 -9 14 5 18 23 18 23 -1z m380 -73 c0 -7 -9 -13 -20 -13
-25 0 -26 13 -2 19 9 3 18 5 20 6 1 0 2 -5 2 -12z"/>
<path d="M302 1243 c-6 -2 -10 -9 -7 -13 7 -11 35 -2 35 11 0 10 -8 10 -28 2z"/>
<path d="M1765 1230 c-3 -5 -1 -10 4 -10 6 0 11 5 11 10 0 6 -2 10 -4 10 -3 0
-8 -4 -11 -10z"/>
<path d="M1305 1220 c-3 -5 1 -10 9 -10 9 0 16 5 16 10 0 6 -4 10 -9 10 -6 0
-13 -4 -16 -10z"/>
<path d="M3229 1219 c-10 -6 -7 -9 11 -10 14 0 19 -3 13 -6 -7 -2 -13 -9 -13
-14 0 -13 23 -11 43 4 16 11 15 13 -12 23 -17 7 -35 8 -42 3z"/>
<path d="M1219 1204 c-15 -19 -7 -26 18 -17 17 7 18 10 8 20 -10 10 -16 9 -26
-3z"/>
<path d="M290 1199 c0 -5 -9 -9 -20 -9 -11 0 -20 -4 -20 -10 0 -6 10 -6 27 1
20 7 28 6 35 -3 6 -11 8 -11 8 0 0 7 10 16 23 21 19 7 16 9 -15 9 -21 0 -38
-4 -38 -9z"/>
<path d="M1351 1191 c-10 -7 -11 -13 -2 -27 8 -16 10 -16 11 -3 0 9 10 21 23
27 20 10 21 11 2 11 -11 0 -26 -3 -34 -8z"/>
<path d="M1972 1180 c0 -14 2 -19 5 -12 2 6 2 18 0 25 -3 6 -5 1 -5 -13z"/>
<path d="M208 1166 c-25 -24 -23 -26 25 -25 23 1 32 4 20 6 -12 2 -23 12 -25
20 -3 15 -5 15 -20 -1z"/>
<path d="M2610 1170 c0 -5 -7 -10 -15 -10 -8 0 -15 -4 -15 -10 0 -5 6 -10 13
-10 8 0 8 -3 -2 -9 -10 -6 -2 -9 24 -8 32 1 35 2 16 11 -27 12 -27 26 -1 26
11 0 20 5 20 10 0 6 -9 10 -20 10 -11 0 -20 -4 -20 -10z"/>
<path d="M3206 1144 c-5 -14 -4 -15 9 -4 17 14 19 20 6 20 -5 0 -12 -7 -15
-16z"/>
<path d="M63 1125 c-13 -12 -23 -24 -23 -26 0 -7 58 -4 66 4 4 4 2 7 -4 7 -7
0 -12 4 -12 9 0 5 6 9 13 8 6 0 23 1 37 2 23 2 24 3 5 11 -32 14 -59 9 -82
-15z"/>
<path d="M1810 1140 c-13 -8 -13 -10 2 -10 9 0 20 5 23 10 8 13 -5 13 -25 0z"/>
<path d="M2064 1135 c3 -10 -1 -15 -12 -16 -12 0 -11 -3 7 -12 19 -9 25 -9 28
0 3 7 11 9 19 6 8 -3 14 1 14 10 0 8 -10 17 -22 21 -35 9 -41 7 -34 -9z"/>
<path d="M2440 1119 c0 -17 -11 -24 -32 -20 -13 2 -9 -16 7 -29 8 -6 19 -9 24
-6 5 4 28 2 50 -3 22 -5 43 -6 46 -2 4 3 14 6 23 7 53 3 55 4 43 17 -6 8 -8
17 -4 20 3 4 1 7 -5 7 -7 0 -12 -7 -12 -15 0 -8 -5 -15 -11 -15 -5 0 -8 4 -4
9 3 5 1 12 -4 16 -6 3 -8 12 -4 20 3 8 0 15 -6 15 -6 0 -11 -4 -11 -9 0 -5
-11 -12 -25 -15 -27 -7 -34 -26 -10 -26 8 0 15 -5 15 -11 0 -6 -7 -8 -16 -5
-9 3 -25 6 -37 6 -20 1 -21 2 -4 14 23 17 22 32 -3 39 -15 4 -20 0 -20 -14z"/>
<path d="M440 1120 c0 -12 28 -25 36 -17 3 3 -4 10 -15 17 -15 7 -21 7 -21 0z"/>
<path d="M1740 1121 c0 -6 5 -13 10 -16 6 -3 10 1 10 9 0 9 -4 16 -10 16 -5 0
-10 -4 -10 -9z"/>
<path d="M1445 1110 c-3 -5 -2 -10 4 -10 5 0 13 5 16 10 3 6 2 10 -4 10 -5 0
-13 -4 -16 -10z"/>
<path d="M1840 1110 c0 -5 5 -10 11 -10 5 0 7 5 4 10 -3 6 -8 10 -11 10 -2 0
-4 -4 -4 -10z"/>
<path d="M286 1085 c-3 -9 0 -15 9 -15 9 0 12 6 9 15 -4 8 -7 15 -9 15 -2 0
-5 -7 -9 -15z"/>
<path d="M1706 1084 c-8 -21 -8 -24 4 -24 6 0 10 6 10 14 0 8 6 17 13 19 7 4
6 6 -4 6 -9 1 -20 -6 -23 -15z"/>
<path d="M1796 1085 c-3 -8 -1 -15 4 -15 6 0 10 7 10 15 0 8 -2 15 -4 15 -2 0
-6 -7 -10 -15z"/>
<path d="M528 1083 c6 -2 18 -2 25 0 6 3 1 5 -13 5 -14 0 -19 -2 -12 -5z"/>
<path d="M1746 1075 c-10 -7 -15 -18 -12 -24 4 -5 2 -12 -4 -16 -5 -3 -10 -1
-10 4 0 6 -7 11 -15 11 -11 0 -14 -9 -12 -34 2 -31 4 -33 18 -20 8 8 24 14 33
14 13 0 16 5 12 17 -4 9 -1 20 6 25 10 6 10 8 -1 8 -11 0 -11 3 -1 15 15 19
11 19 -14 0z"/>
<path d="M3548 1083 c7 -3 16 -2 19 1 4 3 -2 6 -13 5 -11 0 -14 -3 -6 -6z"/>
<path d="M126 1064 c-9 -24 -7 -28 9 -14 17 14 20 30 6 30 -5 0 -12 -7 -15
-16z"/>
<path d="M1965 1070 c3 -5 13 -10 21 -10 8 0 12 5 9 10 -3 6 -13 10 -21 10 -8
0 -12 -4 -9 -10z"/>
<path d="M1270 1050 c0 -5 5 -10 11 -10 5 0 7 5 4 10 -3 6 -8 10 -11 10 -2 0
-4 -4 -4 -10z"/>
<path d="M1341 1051 c-10 -6 -5 -14 18 -30 17 -12 31 -18 31 -13 0 5 -10 14
-22 20 -21 11 -20 12 9 6 17 -3 34 0 38 5 3 6 0 11 -7 12 -7 0 -22 2 -33 4
-11 2 -26 0 -34 -4z"/>
<path d="M1830 1051 c0 -5 5 -13 10 -16 6 -3 10 -2 10 4 0 5 -4 13 -10 16 -5
3 -10 2 -10 -4z"/>
<path d="M3168 1053 c7 -3 16 -2 19 1 4 3 -2 6 -13 5 -11 0 -14 -3 -6 -6z"/>
<path d="M245 1040 c28 -12 47 -12 40 0 -3 6 -18 10 -33 9 -24 0 -25 -1 -7 -9z"/>
<path d="M1803 1036 c3 -8 1 -16 -5 -18 -6 -2 1 -9 15 -15 25 -12 25 -12 10
18 -15 30 -30 41 -20 15z"/>
<path d="M2547 1032 c6 -25 76 -25 81 -1 2 12 -7 16 -42 17 -38 2 -44 0 -39
-16z"/>
<path d="M3585 1040 c-3 -5 -1 -10 4 -10 6 0 11 5 11 10 0 6 -2 10 -4 10 -3 0
-8 -4 -11 -10z"/>
<path d="M2084 1027 c-8 -9 -7 -15 5 -24 14 -11 14 -12 -1 -13 -10 0 -18 -4
-18 -10 0 -15 26 -12 40 5 7 8 9 15 6 15 -11 0 17 26 34 33 8 3 -1 6 -20 6
-19 0 -40 -5 -46 -12z"/>
<path d="M125 1020 c-8 -13 5 -13 25 0 13 8 13 10 -2 10 -9 0 -20 -4 -23 -10z"/>
<path d="M183 1023 c9 -2 25 -2 35 0 9 3 1 5 -18 5 -19 0 -27 -2 -17 -5z"/>
<path d="M2000 1020 c-13 -8 -12 -10 3 -10 9 0 17 5 17 10 0 12 -1 12 -20 0z"/>
<path d="M48 1013 c7 -3 16 -2 19 1 4 3 -2 6 -13 5 -11 0 -14 -3 -6 -6z"/>
<path d="M580 1005 c0 -8 2 -15 4 -15 2 0 6 7 10 15 3 8 1 15 -4 15 -6 0 -10
-7 -10 -15z"/>
<path d="M1960 1007 c0 -10 8 -17 18 -17 9 0 13 4 7 8 -5 4 -13 11 -17 16 -5
5 -8 2 -8 -7z"/>
<path d="M1790 990 c0 -5 5 -10 11 -10 5 0 7 5 4 10 -3 6 -8 10 -11 10 -2 0
-4 -4 -4 -10z"/>
<path d="M2635 990 c-3 -5 3 -10 14 -10 12 0 21 5 21 10 0 6 -6 10 -14 10 -8
0 -18 -4 -21 -10z"/>
<path d="M48 983 c7 -3 16 -2 19 1 4 3 -2 6 -13 5 -11 0 -14 -3 -6 -6z"/>
<path d="M596 971 c-3 -5 5 -8 19 -8 14 0 22 3 19 8 -3 5 -11 9 -19 9 -8 0
-16 -4 -19 -9z"/>
<path d="M1323 966 c3 -8 1 -17 -6 -19 -7 -2 -8 -8 -4 -13 10 -10 39 25 31 37
-9 15 -26 10 -21 -5z"/>
<path d="M1697 972 c-26 -3 -27 -6 -21 -38 6 -31 4 -34 -17 -35 l-24 -1 24 -7
c22 -6 22 -7 6 -21 -16 -13 -15 -14 6 -22 12 -5 24 -6 27 -3 3 3 0 5 -7 5 -8
0 -9 6 -3 18 4 9 7 31 6 49 -2 22 2 30 11 27 7 -3 15 3 19 12 8 20 8 20 -27
16z"/>
<path d="M1980 970 c-13 -8 -12 -10 3 -10 9 0 17 5 17 10 0 12 -1 12 -20 0z"/>
<path d="M1855 960 c3 -5 12 -7 20 -3 21 7 19 13 -6 13 -11 0 -18 -4 -14 -10z"/>
<path d="M1900 944 c0 -17 6 -39 14 -50 13 -17 14 -14 5 26 -12 55 -19 63 -19
24z"/>
<path d="M2100 960 c-8 -5 -12 -12 -9 -15 8 -8 39 5 39 16 0 11 -11 11 -30 -1z"/>
<path d="M3088 963 c7 -3 16 -2 19 1 4 3 -2 6 -13 5 -11 0 -14 -3 -6 -6z"/>
<path d="M2010 951 c0 -5 7 -15 17 -22 15 -13 15 -12 4 9 -12 23 -21 28 -21
13z"/>
<path d="M1210 939 c0 -5 5 -7 10 -4 6 3 10 8 10 11 0 2 -4 4 -10 4 -5 0 -10
-5 -10 -11z"/>
<path d="M2148 920 c2 -16 9 -30 14 -30 6 0 8 7 4 15 -3 10 3 17 19 21 32 8
22 24 -14 24 -25 0 -27 -3 -23 -30z"/>
<path d="M1804 928 c-5 -8 0 -9 15 -5 30 7 51 -1 51 -21 0 -8 3 -13 6 -9 3 3
3 15 -1 26 -7 23 -58 30 -71 9z"/>
<path d="M1710 909 c-12 -8 -7 -9 18 -6 38 4 39 1 10 -24 -21 -19 -21 -19 -1
-19 14 0 24 10 32 30 9 29 9 30 -17 30 -15 0 -34 -5 -42 -11z"/>
<path d="M2207 914 c-3 -3 -3 -12 0 -20 4 -11 9 -12 19 -3 8 6 11 15 8 20 -6
10 -18 12 -27 3z"/>
<path d="M3495 910 c3 -5 13 -10 21 -10 8 0 13 -4 9 -10 -3 -5 -12 -7 -20 -3
-8 3 -15 0 -15 -6 0 -14 16 -14 42 0 21 11 21 12 3 25 -22 16 -49 19 -40 4z"/>
<path d="M2638 898 c6 -6 8 -17 5 -24 -3 -9 0 -12 9 -9 21 8 18 33 -5 39 -14
3 -17 2 -9 -6z"/>
<path d="M1785 890 c-3 -5 1 -10 10 -10 9 0 13 5 10 10 -3 6 -8 10 -10 10 -2
0 -7 -4 -10 -10z"/>
<path d="M2044 891 c3 -5 17 -8 31 -8 14 0 25 3 25 8 0 5 -14 9 -31 9 -16 0
-28 -4 -25 -9z"/>
<path d="M2128 872 c-10 -2 -18 -10 -18 -18 0 -8 8 -14 18 -14 14 0 15 2 2 10
-12 8 -9 10 12 10 15 0 29 4 33 9 5 10 -12 10 -47 3z"/>
<path d="M85 850 c5 -16 2 -20 -19 -20 -14 0 -28 5 -31 10 -3 6 -13 10 -21 10
-12 0 -15 -21 -13 -125 1 -121 2 -125 23 -124 31 1 61 14 61 28 0 10 6 13 23
9 4 0 21 -2 37 -4 53 -4 110 -20 143 -39 30 -18 33 -18 67 -2 19 9 35 12 35 6
0 -11 56 -6 105 10 25 8 26 9 8 10 -14 1 -23 7 -23 17 0 13 -7 15 -35 10 -35
-7 -51 9 -17 17 9 3 0 3 -21 2 -24 -2 -40 1 -43 9 -3 8 -17 11 -34 8 -23 -3
-30 0 -30 12 0 9 -6 16 -13 16 -15 0 -56 40 -56 55 0 6 -9 11 -21 13 -20 3
-29 22 -10 22 6 0 10 6 10 14 0 8 -20 20 -45 27 -25 7 -45 17 -45 21 0 4 -9 8
-21 8 -16 0 -19 -4 -14 -20z m41 -11 c9 -16 -21 -42 -42 -36 -17 4 -17 5 3 12
13 4 19 12 16 21 -6 16 13 19 23 3z m54 -30 c0 -5 -4 -9 -10 -9 -5 0 -10 7
-10 16 0 8 5 12 10 9 6 -3 10 -10 10 -16z"/>
<path d="M185 860 c3 -5 24 -10 46 -10 21 0 39 5 39 10 0 6 -21 10 -46 10 -27
0 -43 -4 -39 -10z"/>
<path d="M1800 855 l-23 -12 21 -12 c17 -9 27 -7 54 8 18 10 43 18 56 17 12
-2 22 1 22 6 0 13 -104 7 -130 -7z"/>
<path d="M1926 813 c-6 -31 -9 -90 -6 -113 1 -8 10 14 19 50 17 63 17 90 1 90
-5 0 -11 -12 -14 -27z"/>
<path d="M1783 818 c31 -11 34 -24 10 -50 -18 -20 -8 -23 22 -5 11 7 20 19 20
27 0 15 -46 41 -69 39 -6 0 1 -5 17 -11z"/>
<path d="M1875 821 c3 -6 -3 -14 -12 -20 -11 -6 -13 -11 -5 -11 7 0 20 6 27
14 12 12 12 15 -1 20 -8 3 -12 2 -9 -3z"/>
<path d="M2100 815 c0 -10 29 -24 34 -17 3 6 -3 12 -14 15 -11 3 -20 4 -20 2z"/>
<path d="M1760 784 l-25 -15 29 3 c16 2 31 9 34 16 5 15 -6 14 -38 -4z"/>
<path d="M1858 758 c-17 -17 -17 -18 2 -28 25 -13 40 -12 16 1 -14 9 -15 13
-6 19 7 4 11 12 9 17 -2 5 -12 1 -21 -9z"/>
<path d="M2150 766 c0 -2 9 -6 20 -9 11 -3 18 -1 14 4 -5 9 -34 13 -34 5z"/>
<path d="M966 744 c-9 -22 -8 -24 9 -18 8 4 15 12 15 20 0 19 -16 18 -24 -2z"/>
<path d="M2218 733 c7 -3 16 -2 19 1 4 3 -2 6 -13 5 -11 0 -14 -3 -6 -6z"/>
<path d="M2560 730 c0 -5 5 -10 10 -10 6 0 10 5 10 10 0 6 -4 10 -10 10 -5 0
-10 -4 -10 -10z"/>
<path d="M1775 700 c-3 -5 -1 -10 4 -10 6 0 11 5 11 10 0 6 -2 10 -4 10 -3 0
-8 -4 -11 -10z"/>
<path d="M1857 695 c6 -17 25 -15 31 3 2 7 -5 12 -17 12 -14 0 -19 -5 -14 -15z"/>
<path d="M2590 700 c0 -13 30 -13 50 0 11 7 7 10 -17 10 -18 0 -33 -4 -33 -10z"/>
<path d="M3655 680 c3 -5 12 -10 20 -10 8 0 17 5 20 10 4 6 -5 10 -20 10 -15
0 -24 -4 -20 -10z"/>
<path d="M2245 640 c-4 -6 7 -10 25 -10 18 0 29 4 25 10 -3 6 -15 10 -25 10
-10 0 -22 -4 -25 -10z"/>
<path d="M1880 600 c20 -13 33 -13 25 0 -3 6 -14 10 -23 10 -15 0 -15 -2 -2
-10z"/>
<path d="M3900 600 c-13 -8 -12 -10 3 -10 9 0 26 -6 37 -12 17 -11 22 -10 29
0 5 8 19 11 37 8 19 -4 15 -1 -11 8 -48 17 -75 19 -95 6z"/>
<path d="M98 533 c7 -3 16 -2 19 1 4 3 -2 6 -13 5 -11 0 -14 -3 -6 -6z"/>
<path d="M2393 523 c-7 -3 -13 -12 -13 -21 0 -15 2 -15 17 1 18 18 16 27 -4
20z"/>
<path d="M2400 493 c0 -5 5 -14 12 -21 9 -9 7 -12 -11 -12 -12 0 -19 -4 -16
-10 9 -15 47 8 43 27 -3 17 -28 31 -28 16z"/>
<path d="M1760 460 c-24 -15 -7 -18 20 -3 14 7 18 13 10 13 -8 0 -22 -4 -30
-10z"/>
<path d="M2755 460 c-3 -5 -2 -10 4 -10 5 0 13 5 16 10 3 6 2 10 -4 10 -5 0
-13 -4 -16 -10z"/>
<path d="M1712 440 c-7 -11 -9 -20 -4 -20 4 0 13 9 20 20 7 11 9 20 4 20 -4 0
-13 -9 -20 -20z"/>
<path d="M2454 445 c11 -8 24 -15 30 -15 5 0 1 7 -10 15 -10 8 -23 14 -29 14
-5 0 -1 -6 9 -14z"/>
<path d="M1158 443 c7 -3 16 -2 19 1 4 3 -2 6 -13 5 -11 0 -14 -3 -6 -6z"/>
<path d="M1235 440 c-3 -5 -16 -11 -28 -11 -20 -1 -21 -2 -2 -6 11 -3 23 -10
27 -16 8 -14 13 -9 22 21 7 22 -7 31 -19 12z"/>
<path d="M2888 443 c7 -3 16 -2 19 1 4 3 -2 6 -13 5 -11 0 -14 -3 -6 -6z"/>
<path d="M1265 419 c-4 -6 -4 -13 -1 -16 3 -4 6 -1 6 6 0 7 5 9 12 5 7 -4 8
-3 4 4 -9 15 -13 15 -21 1z"/>
<path d="M1782 410 c-15 -25 -16 -43 -1 -38 7 2 13 16 15 31 3 32 2 33 -14 7z"/>
<path d="M2467 404 c6 -15 31 -26 37 -16 2 4 -6 12 -19 18 -18 9 -22 9 -18 -2z"/>
<path d="M2735 410 c-3 -5 1 -10 10 -10 9 0 13 5 10 10 -3 6 -8 10 -10 10 -2
0 -7 -4 -10 -10z"/>
<path d="M1200 399 c0 -5 5 -7 10 -4 6 3 10 8 10 11 0 2 -4 4 -10 4 -5 0 -10
-5 -10 -11z"/>
<path d="M1296 395 c-15 -8 -35 -15 -44 -15 -13 0 -13 -3 -4 -12 10 -10 17
-10 32 0 26 16 30 15 30 -3 0 -8 5 -15 11 -15 6 0 8 7 5 16 -4 9 -1 23 5 30
15 18 1 18 -35 -1z"/>
<path d="M2348 403 c6 -2 18 -2 25 0 6 3 1 5 -13 5 -14 0 -19 -2 -12 -5z"/>
<path d="M210 380 c0 -5 5 -10 10 -10 6 0 10 5 10 10 0 6 -4 10 -10 10 -5 0
-10 -4 -10 -10z"/>
<path d="M2717 370 c3 -11 9 -20 15 -20 5 0 4 9 -2 20 -6 11 -12 20 -14 20 -2
0 -2 -9 1 -20z"/>
<path d="M3036 382 c-3 -6 -1 -14 5 -17 14 -9 20 -2 10 14 -6 8 -11 9 -15 3z"/>
<path d="M1206 365 c-19 -15 -19 -15 2 -15 13 0 22 6 22 15 0 18 0 18 -24 0z"/>
<path d="M1373 370 c-13 -5 -23 -14 -23 -19 0 -5 14 -3 30 5 44 23 39 32 -7
14z"/>
<path d="M1720 372 c0 -8 43 -32 57 -32 3 0 -6 9 -20 20 -27 22 -37 25 -37 12z"/>
<path d="M2580 350 c-9 -6 -10 -10 -3 -10 6 0 15 5 18 10 8 12 4 12 -15 0z"/>
<path d="M1266 341 c-3 -5 3 -11 14 -14 24 -6 36 8 14 17 -20 8 -22 8 -28 -3z"/>
<path d="M2390 325 c0 -9 6 -12 15 -9 8 4 12 10 9 15 -8 14 -24 10 -24 -6z"/>
<path d="M2452 328 c2 -5 7 -9 11 -9 4 1 14 1 22 1 26 0 16 15 -10 16 -15 1
-25 -2 -23 -8z"/>
<path d="M2548 308 c-21 -21 -22 -28 -7 -28 7 0 18 8 25 18 8 10 13 12 14 5 0
-15 20 -18 20 -3 0 21 -35 27 -52 8z"/>
<path d="M2730 315 c14 -16 40 -20 40 -6 0 9 -24 21 -42 21 -6 0 -6 -6 2 -15z"/>
<path d="M1235 310 c3 -5 8 -10 11 -10 2 0 4 5 4 10 0 6 -5 10 -11 10 -5 0 -7
-4 -4 -10z"/>
<path d="M1315 310 c-3 -5 -1 -10 4 -10 6 0 11 5 11 10 0 6 -2 10 -4 10 -3 0
-8 -4 -11 -10z"/>
<path d="M1810 316 c0 -2 7 -6 15 -10 8 -3 15 -1 15 4 0 6 -7 10 -15 10 -8 0
-15 -2 -15 -4z"/>
<path d="M1448 303 c7 -3 16 -2 19 1 4 3 -2 6 -13 5 -11 0 -14 -3 -6 -6z"/>
<path d="M2867 295 c-4 -8 -2 -17 3 -20 6 -4 10 -4 10 -1 0 2 3 11 6 20 3 9 2
16 -4 16 -5 0 -12 -7 -15 -15z"/>
<path d="M0 240 c0 -39 3 -51 10 -40 6 9 10 10 10 3 0 -21 40 -51 61 -46 10 3
19 9 19 14 0 5 -7 6 -15 3 -8 -4 -15 -2 -15 4 0 5 7 12 15 16 25 9 17 36 -16
50 -21 9 -27 15 -18 19 8 3 4 6 -10 6 -18 1 -21 4 -13 14 8 10 6 13 -9 13 -16
0 -19 -7 -19 -56z"/>
<path d="M2470 279 c0 -5 5 -7 10 -4 6 3 10 8 10 11 0 2 -4 4 -10 4 -5 0 -10
-5 -10 -11z"/>
<path d="M2630 275 c0 -8 7 -15 15 -15 9 0 12 6 9 15 -4 8 -10 15 -15 15 -5 0
-9 -7 -9 -15z"/>
<path d="M2707 284 c-10 -11 3 -24 24 -24 21 0 26 -16 7 -23 -23 -8 -2 -16 23
-9 18 5 24 14 25 35 0 18 -3 24 -10 17 -13 -13 -59 -13 -51 0 7 11 -8 14 -18
4z"/>
<path d="M1110 269 c0 -5 5 -7 10 -4 6 3 10 8 10 11 0 2 -4 4 -10 4 -5 0 -10
-5 -10 -11z"/>
<path d="M2805 270 c-3 -5 -1 -10 4 -10 6 0 11 5 11 10 0 6 -2 10 -4 10 -3 0
-8 -4 -11 -10z"/>
<path d="M2590 260 c0 -5 4 -10 9 -10 6 0 13 5 16 10 3 6 -1 10 -9 10 -9 0
-16 -4 -16 -10z"/>
<path d="M2875 250 c-8 -13 5 -13 25 0 13 8 13 10 -2 10 -9 0 -20 -4 -23 -10z"/>
<path d="M2655 240 c-3 -5 -1 -10 4 -10 6 0 11 5 11 10 0 6 -2 10 -4 10 -3 0
-8 -4 -11 -10z"/>
<path d="M2838 243 c7 -3 16 -2 19 1 4 3 -2 6 -13 5 -11 0 -14 -3 -6 -6z"/>
<path d="M1911 224 c0 -11 3 -14 6 -6 3 7 2 16 -1 19 -3 4 -6 -2 -5 -13z"/>
<path d="M2515 230 c3 -5 8 -10 11 -10 2 0 4 5 4 10 0 6 -5 10 -11 10 -5 0 -7
-4 -4 -10z"/>
<path d="M1870 215 c-8 -9 -8 -15 -2 -15 12 0 26 19 19 26 -2 2 -10 -2 -17
-11z"/>
<path d="M2453 195 c0 -11 4 -12 14 -4 7 6 13 13 13 15 0 2 -6 4 -13 4 -8 0
-14 -7 -14 -15z"/>
<path d="M2530 201 c0 -5 -10 -7 -22 -5 -21 4 -21 4 -3 -4 11 -5 26 -7 33 -5
14 6 16 23 2 23 -5 0 -10 -4 -10 -9z"/>
<path d="M2680 201 c0 -5 -9 -11 -21 -14 -32 -9 -12 -27 29 -27 31 1 34 3 21
13 -9 7 -14 18 -12 25 3 6 0 12 -6 12 -6 0 -11 -4 -11 -9z"/>
<path d="M2762 184 c-25 -29 -24 -44 2 -19 9 9 20 14 25 11 15 -10 40 5 34 20
-8 22 -36 16 -61 -12z"/>
<path d="M2595 180 c-4 -6 3 -10 14 -10 25 0 27 6 6 13 -8 4 -17 2 -20 -3z"/>
<path d="M2465 160 c3 -5 13 -10 21 -10 8 0 12 5 9 10 -3 6 -13 10 -21 10 -8
0 -12 -4 -9 -10z"/>
<path d="M1977 143 c-10 -9 -9 -23 1 -23 5 0 17 7 28 15 19 14 19 14 -2 15
-11 0 -24 -3 -27 -7z"/>
<path d="M2567 136 c-8 -20 13 -33 24 -15 7 11 9 10 9 -5 0 -12 5 -16 16 -12
9 3 23 6 32 6 27 0 -7 27 -44 35 -23 4 -33 2 -37 -9z"/>
<path d="M2468 120 c12 -12 22 -25 22 -30 0 -6 15 -9 33 -9 17 1 24 3 15 6
-10 2 -18 9 -18 14 0 5 -6 9 -14 9 -8 0 -16 7 -20 15 -3 8 -13 15 -23 15 -14
0 -14 -3 5 -20z"/>
<path d="M2514 128 c-3 -4 5 -12 16 -18 11 -6 20 -9 21 -8 8 29 5 36 -13 35
-11 -1 -22 -5 -24 -9z"/>
<path d="M2679 139 c-8 -40 -7 -53 6 -66 16 -16 45 -11 45 7 0 7 -8 9 -20 5
-21 -7 -27 4 -10 21 8 8 6 15 -5 24 -8 7 -15 11 -16 9z"/>
<path d="M1880 120 c0 -5 5 -10 10 -10 6 0 10 5 10 10 0 6 -4 10 -10 10 -5 0
-10 -4 -10 -10z"/>
<path d="M1848 113 c7 -3 16 -2 19 1 4 3 -2 6 -13 5 -11 0 -14 -3 -6 -6z"/>
<path d="M2085 80 c-3 -5 -1 -10 5 -10 6 0 8 -4 5 -10 -3 -5 -2 -10 4 -10 5 0
13 5 16 10 3 6 1 10 -5 10 -6 0 -8 5 -5 10 3 6 2 10 -4 10 -5 0 -13 -4 -16
-10z"/>
<path d="M2588 83 c6 -3 12 -9 12 -14 0 -5 7 -9 15 -9 9 0 12 -6 8 -16 -5 -13
-2 -15 18 -9 13 4 29 12 34 17 7 7 2 8 -14 3 -20 -6 -23 -4 -18 9 4 11 1 16
-11 16 -9 0 -26 2 -37 4 -11 2 -14 1 -7 -1z"/>
<path d="M3055 80 c3 -5 10 -10 16 -10 5 0 9 5 9 10 0 6 -7 10 -16 10 -8 0
-12 -4 -9 -10z"/>
<path d="M3063 45 c-7 -8 -13 -16 -13 -19 0 -9 50 9 50 19 1 16 -24 16 -37 0z"/>
<path d="M571 27 c-15 -18 -4 -27 32 -27 29 0 30 0 12 20 -21 24 -29 25 -44 7z"/>
<path d="M3560 21 c0 -9 52 -22 59 -15 6 6 -1 11 -31 18 -16 3 -28 2 -28 -3z"/>
<path d="M3518 13 c6 -2 18 -2 25 0 6 3 1 5 -13 5 -14 0 -19 -2 -12 -5z"/>
<path d="M3650 10 c0 -5 5 -10 10 -10 6 0 10 5 10 10 0 6 -4 10 -10 10 -5 0
-10 -4 -10 -10z"/>
</g>
</svg>
