<svg width="17.000000" height="20.000000" viewBox="0 0 17 20" fill="none" xmlns="http://www.w3.org/2000/svg" xmlns:xlink="http://www.w3.org/1999/xlink">
	<desc>
			Created with Pixso.
	</desc>
	<defs/>
	<path id="Vector" d="M8 0C9.06 0 10.07 0.42 10.82 1.17C11.57 1.92 12 2.93 12 4L14.03 4C14.55 3.99 15.05 4.2 15.42 4.56C15.79 4.92 16.01 5.41 16.03 5.92L16.46 17.92C16.47 18.19 16.42 18.46 16.33 18.71C16.23 18.96 16.08 19.19 15.9 19.38C15.71 19.58 15.49 19.73 15.24 19.84C14.99 19.94 14.73 19.99 14.46 20L1.53 20C1.26 19.99 1 19.94 0.75 19.84C0.5 19.73 0.28 19.58 0.09 19.38C-0.09 19.19 -0.24 18.96 -0.34 18.71C-0.43 18.46 -0.48 18.19 -0.47 17.92L-0.04 5.92C-0.02 5.41 0.2 4.92 0.57 4.56C0.94 4.2 1.44 3.99 1.96 4L4 4C4 2.93 4.42 1.92 5.17 1.17C5.92 0.42 6.93 0 8 0ZM4 6L1.96 6L1.53 18L14.46 18L14.03 6L12 6L12 7C11.99 7.25 11.9 7.5 11.72 7.68C11.55 7.87 11.31 7.98 11.05 7.99C10.8 8.01 10.55 7.92 10.35 7.76C10.16 7.6 10.03 7.37 10 7.11L10 7L10 6L6 6L6 7C5.99 7.25 5.9 7.5 5.72 7.68C5.55 7.87 5.31 7.98 5.05 7.99C4.8 8.01 4.55 7.92 4.35 7.76C4.16 7.6 4.03 7.37 4 7.11L4 7L4 6ZM8 2C7.49 1.99 7 2.19 6.63 2.53C6.26 2.87 6.04 3.34 6 3.85L6 4L10 4C10 3.46 9.78 2.96 9.41 2.58C9.03 2.21 8.53 2 8 2Z" fill="#5C5C5E" fill-opacity="1.000000" fill-rule="nonzero"/>
</svg>
