<svg width="38.000000" height="38.000000" viewBox="0 0 38 38" fill="none" xmlns="http://www.w3.org/2000/svg" xmlns:xlink="http://www.w3.org/1999/xlink">
	<desc>
			Created with Pixso.
	</desc>
	<defs>
		<clipPath id="clip2_588">
			<rect id="ShoppingCartSimple" width="22.000000" height="22.000000" transform="translate(8.000000 8.000000)" fill="white" fill-opacity="0"/>
		</clipPath>
	</defs>
	<rect id="Button" rx="6.000000" width="38.000000" height="38.000000" fill="#4B2995" fill-opacity="1.000000"/>
	<g clip-path="url(#clip2_588)">
		<path id="Vector" d="M16.25 26.56C16.25 26.83 16.16 27.1 16.01 27.32C15.86 27.55 15.65 27.72 15.4 27.83C15.14 27.93 14.87 27.96 14.6 27.91C14.34 27.85 14.09 27.72 13.9 27.53C13.71 27.34 13.57 27.09 13.52 26.83C13.47 26.56 13.5 26.28 13.6 26.03C13.7 25.78 13.88 25.57 14.11 25.41C14.33 25.26 14.6 25.18 14.87 25.18C15.23 25.18 15.58 25.33 15.84 25.59C16.1 25.84 16.25 26.19 16.25 26.56ZM23.81 25.18C23.54 25.18 23.27 25.26 23.04 25.41C22.82 25.57 22.64 25.78 22.54 26.03C22.43 26.28 22.41 26.56 22.46 26.83C22.51 27.09 22.64 27.34 22.84 27.53C23.03 27.72 23.27 27.85 23.54 27.91C23.81 27.96 24.08 27.93 24.33 27.83C24.59 27.72 24.8 27.55 24.95 27.32C25.1 27.1 25.18 26.83 25.18 26.56C25.18 26.19 25.04 25.84 24.78 25.59C24.52 25.33 24.17 25.18 23.81 25.18ZM27.6 13.77C27.53 13.69 27.45 13.62 27.35 13.57C27.26 13.52 27.15 13.5 27.05 13.5L12.15 13.5L11.45 11.05C11.37 10.77 11.19 10.52 10.95 10.34C10.72 10.16 10.42 10.06 10.13 10.06L8.68 10.06C8.5 10.06 8.33 10.13 8.2 10.26C8.07 10.39 8 10.56 8 10.75C8 10.93 8.07 11.1 8.2 11.23C8.33 11.36 8.5 11.43 8.68 11.43L10.13 11.43L10.97 14.36L10.97 14.38L13.24 22.31C13.36 22.74 13.62 23.12 13.98 23.39C14.34 23.66 14.77 23.81 15.22 23.81L23.46 23.81C23.9 23.81 24.34 23.66 24.7 23.39C25.05 23.12 25.32 22.74 25.44 22.31L27.71 14.37C27.74 14.27 27.74 14.16 27.72 14.06C27.7 13.95 27.66 13.85 27.6 13.77Z" fill="#F3F2F2" fill-opacity="1.000000" fill-rule="nonzero"/>
	</g>
</svg>
