<svg width="32.000000" height="32.000000" viewBox="0 0 32 32" fill="none" xmlns="http://www.w3.org/2000/svg" xmlns:xlink="http://www.w3.org/1999/xlink">
	<desc>
			Created with Pixso.
	</desc>
	<defs>
		<clipPath id="clip220_984">
			<rect id="Icon" width="16.000000" height="16.000000" transform="translate(8.000000 8.000000)" fill="white" fill-opacity="0"/>
		</clipPath>
	</defs>
	<rect id="Icon" rx="16.000000" width="32.000000" height="32.000000" fill="#C47F17" fill-opacity="1.000000"/>
	<g clip-path="url(#clip220_984)">
		<path id="Vector" d="M21.99 12.08L21.23 16.26C21.16 16.61 20.98 16.92 20.71 17.15C20.44 17.37 20.1 17.49 19.75 17.5L12.5 17.5L12.78 19L19.5 19C19.79 19 20.08 19.08 20.33 19.25C20.58 19.41 20.77 19.65 20.88 19.92C20.99 20.2 21.02 20.5 20.97 20.79C20.91 21.08 20.77 21.35 20.56 21.56C20.35 21.77 20.08 21.91 19.79 21.97C19.5 22.02 19.2 21.99 18.92 21.88C18.65 21.77 18.41 21.58 18.25 21.33C18.08 21.08 18 20.79 18 20.5C18 20.32 18.02 20.16 18.08 20L14.41 20C14.47 20.16 14.49 20.32 14.5 20.5C14.5 20.74 14.44 20.98 14.33 21.19C14.21 21.4 14.05 21.59 13.85 21.73C13.66 21.87 13.43 21.95 13.19 21.99C12.95 22.02 12.7 21.99 12.47 21.9C12.25 21.82 12.04 21.68 11.88 21.5C11.72 21.32 11.6 21.11 11.54 20.87C11.48 20.64 11.48 20.39 11.53 20.16C11.59 19.92 11.7 19.7 11.86 19.52L10.13 10L9 10C8.86 10 8.74 9.94 8.64 9.85C8.55 9.75 8.5 9.63 8.5 9.5C8.5 9.36 8.55 9.24 8.64 9.14C8.74 9.05 8.86 9 9 9L10.13 9C10.36 9 10.59 9.08 10.76 9.23C10.94 9.38 11.07 9.58 11.11 9.81L11.41 11.5L21.5 11.5C21.57 11.5 21.64 11.51 21.71 11.54C21.77 11.57 21.83 11.62 21.88 11.68C21.92 11.73 21.96 11.8 21.98 11.87C22 11.94 22 12.01 21.99 12.08Z" fill="#FAFAFA" fill-opacity="1.000000" fill-rule="nonzero"/>
	</g>
</svg>
