<svg width="38.000000" height="38.000000" viewBox="0 0 38 38" fill="none" xmlns="http://www.w3.org/2000/svg" xmlns:xlink="http://www.w3.org/1999/xlink">
	<desc>
			Created with Pixso.
	</desc>
	<defs>
		<clipPath id="clip2_149">
			<rect id="Icon" width="22.000000" height="22.000000" transform="translate(8.000000 8.000000)" fill="white" fill-opacity="0"/>
		</clipPath>
	</defs>
	<rect id="Cart" rx="6.000000" width="38.000000" height="38.000000" fill="#F1E9C9" fill-opacity="1.000000"/>
	<g clip-path="url(#clip2_149)">
		<path id="Vector" d="M27.24 13.62L26.19 19.36C26.1 19.84 25.85 20.27 25.48 20.58C25.11 20.89 24.64 21.06 24.16 21.06L14.19 21.06L14.57 23.12L23.81 23.12C24.22 23.12 24.61 23.24 24.95 23.47C25.29 23.69 25.56 24.02 25.71 24.39C25.87 24.77 25.91 25.18 25.83 25.58C25.75 25.99 25.55 26.35 25.27 26.64C24.98 26.93 24.61 27.13 24.21 27.21C23.81 27.28 23.4 27.24 23.02 27.09C22.64 26.93 22.32 26.67 22.09 26.33C21.87 25.99 21.75 25.59 21.75 25.18C21.75 24.95 21.79 24.72 21.87 24.5L16.81 24.5C16.89 24.72 16.93 24.95 16.93 25.18C16.93 25.52 16.85 25.84 16.7 26.14C16.55 26.43 16.32 26.69 16.05 26.88C15.78 27.07 15.46 27.19 15.13 27.23C14.8 27.27 14.47 27.24 14.15 27.12C13.84 27.01 13.56 26.82 13.34 26.57C13.12 26.32 12.96 26.03 12.87 25.7C12.79 25.38 12.79 25.04 12.86 24.72C12.94 24.4 13.09 24.09 13.31 23.84L10.93 10.75L9.37 10.75C9.19 10.75 9.01 10.67 8.88 10.54C8.75 10.41 8.68 10.24 8.68 10.06C8.68 9.88 8.75 9.7 8.88 9.57C9.01 9.44 9.19 9.37 9.37 9.37L10.93 9.37C11.25 9.37 11.56 9.48 11.8 9.69C12.05 9.89 12.22 10.18 12.27 10.5L12.7 12.81L26.56 12.81C26.66 12.81 26.76 12.83 26.85 12.87C26.94 12.92 27.02 12.98 27.08 13.06C27.15 13.13 27.2 13.22 27.22 13.32C27.25 13.42 27.25 13.52 27.24 13.62Z" fill="#C47F17" fill-opacity="1.000000" fill-rule="nonzero"/>
	</g>
</svg>
