<svg width="32.000000" height="32.000000" viewBox="0 0 32 32" fill="none" xmlns="http://www.w3.org/2000/svg" xmlns:xlink="http://www.w3.org/1999/xlink">
	<desc>
			Created with Pixso.
	</desc>
	<defs>
		<clipPath id="clip220_995">
			<rect id="Icon" width="16.000000" height="16.000000" transform="translate(8.000000 8.000000)" fill="white" fill-opacity="0"/>
		</clipPath>
	</defs>
	<rect id="Icon" rx="16.000000" width="32.000000" height="32.000000" fill="#8047F8" fill-opacity="1.000000"/>
	<g clip-path="url(#clip220_995)">
		<path id="Vector" d="M13 11.5L13 9.5C13 9.36 13.05 9.24 13.14 9.14C13.24 9.05 13.36 9 13.5 9C13.63 9 13.75 9.05 13.85 9.14C13.94 9.24 14 9.36 14 9.5L14 11.5C14 11.63 13.94 11.75 13.85 11.85C13.75 11.94 13.63 12 13.5 12C13.36 12 13.24 11.94 13.14 11.85C13.05 11.75 13 11.63 13 11.5ZM15.5 12C15.63 12 15.75 11.94 15.85 11.85C15.94 11.75 16 11.63 16 11.5L16 9.5C16 9.36 15.94 9.24 15.85 9.14C15.75 9.05 15.63 9 15.5 9C15.36 9 15.24 9.05 15.14 9.14C15.05 9.24 15 9.36 15 9.5L15 11.5C15 11.63 15.05 11.75 15.14 11.85C15.24 11.94 15.36 12 15.5 12ZM17.5 12C17.63 12 17.75 11.94 17.85 11.85C17.94 11.75 18 11.63 18 11.5L18 9.5C18 9.36 17.94 9.24 17.85 9.14C17.75 9.05 17.63 9 17.5 9C17.36 9 17.24 9.05 17.14 9.14C17.05 9.24 17 9.36 17 9.5L17 11.5C17 11.63 17.05 11.75 17.14 11.85C17.24 11.94 17.36 12 17.5 12ZM23.5 15.5L23.5 16C23.49 16.63 23.25 17.24 22.82 17.71C22.38 18.17 21.79 18.45 21.15 18.49C20.81 19.45 20.23 20.31 19.46 21L21 21C21.13 21 21.25 21.05 21.35 21.14C21.44 21.24 21.5 21.36 21.5 21.5C21.5 21.63 21.44 21.75 21.35 21.85C21.25 21.94 21.13 22 21 22L10 22C9.86 22 9.74 21.94 9.64 21.85C9.55 21.75 9.5 21.63 9.5 21.5C9.5 21.36 9.55 21.24 9.64 21.14C9.74 21.05 9.86 21 10 21L11.53 21C10.89 20.43 10.38 19.74 10.03 18.96C9.68 18.19 9.5 17.35 9.5 16.5L9.5 13.5C9.5 13.36 9.55 13.24 9.64 13.14C9.74 13.05 9.86 13 10 13L21 13C21.66 13 22.29 13.26 22.76 13.73C23.23 14.2 23.5 14.83 23.5 15.5ZM22.5 15.5C22.49 15.19 22.4 14.88 22.22 14.63C22.04 14.38 21.79 14.19 21.5 14.08L21.5 16.5C21.5 16.81 21.47 17.12 21.42 17.43C21.73 17.34 22 17.15 22.2 16.89C22.39 16.63 22.49 16.32 22.5 16L22.5 15.5Z" fill="#FAFAFA" fill-opacity="1.000000" fill-rule="nonzero"/>
	</g>
</svg>
