<svg width="22.000000" height="22.000000" viewBox="0 0 22 22" fill="none" xmlns="http://www.w3.org/2000/svg" xmlns:xlink="http://www.w3.org/1999/xlink">
	<desc>
			Created with Pixso.
	</desc>
	<defs>
		<clipPath id="clip220_1010">
			<rect id="Icon" width="22.000000" height="22.000000" fill="white" fill-opacity="0"/>
		</clipPath>
	</defs>
	<g clip-path="url(#clip220_1010)">
		<path id="Vector (Stroke)" d="M11 1.37C11.37 1.37 11.68 1.68 11.68 2.06L11.68 19.93C11.68 20.31 11.37 20.62 11 20.62C10.62 20.62 10.31 20.31 10.31 19.93L10.31 2.06C10.31 1.68 10.62 1.37 11 1.37Z" fill="#8047F8" fill-opacity="1.000000" fill-rule="evenodd"/>
		<path id="Vector (Stroke)" d="M6.36 4.64C7.13 3.87 8.18 3.43 9.28 3.43L12.37 3.43C12.91 3.43 13.45 3.54 13.95 3.75C14.45 3.95 14.9 4.26 15.29 4.64C15.67 5.02 15.97 5.48 16.18 5.98C16.39 6.48 16.5 7.02 16.5 7.56C16.5 7.94 16.19 8.25 15.81 8.25C15.43 8.25 15.12 7.94 15.12 7.56C15.12 7.2 15.05 6.84 14.91 6.51C14.77 6.17 14.57 5.87 14.31 5.61C14.06 5.36 13.76 5.16 13.42 5.02C13.09 4.88 12.73 4.81 12.37 4.81L9.28 4.81C8.55 4.81 7.85 5.1 7.33 5.61C6.82 6.13 6.53 6.83 6.53 7.56C6.53 8.29 6.82 8.99 7.33 9.5C7.85 10.02 8.55 10.31 9.28 10.31L13.06 10.31C14.15 10.31 15.2 10.74 15.97 11.52C16.75 12.29 17.18 13.34 17.18 14.43C17.18 15.53 16.75 16.58 15.97 17.35C15.2 18.12 14.15 18.56 13.06 18.56L8.93 18.56C7.84 18.56 6.79 18.12 6.02 17.35C5.24 16.58 4.81 15.53 4.81 14.43C4.81 14.05 5.12 13.75 5.5 13.75C5.87 13.75 6.18 14.05 6.18 14.43C6.18 15.16 6.47 15.86 6.99 16.38C7.5 16.89 8.2 17.18 8.93 17.18L13.06 17.18C13.79 17.18 14.49 16.89 15 16.38C15.52 15.86 15.81 15.16 15.81 14.43C15.81 13.7 15.52 13 15 12.49C14.49 11.97 13.79 11.68 13.06 11.68L9.28 11.68C8.18 11.68 7.13 11.25 6.36 10.47C5.59 9.7 5.15 8.65 5.15 7.56C5.15 6.46 5.59 5.41 6.36 4.64Z" fill="#8047F8" fill-opacity="1.000000" fill-rule="evenodd"/>
	</g>
</svg>
