<svg width="22.000000" height="22.000000" viewBox="0 0 22 22" fill="none" xmlns="http://www.w3.org/2000/svg" xmlns:xlink="http://www.w3.org/1999/xlink">
	<desc>
			Created with Pixso.
	</desc>
	<defs>
		<clipPath id="clip220_3796">
			<rect id="Icon" width="22.000000" height="22.000000" fill="white" fill-opacity="0"/>
		</clipPath>
	</defs>
	<g clip-path="url(#clip220_3796)">
		<path id="Vector (Stroke)" d="M4.12 19.93C4.12 19.55 4.43 19.25 4.81 19.25L17.18 19.25C17.56 19.25 17.87 19.55 17.87 19.93C17.87 20.31 17.56 20.62 17.18 20.62L4.81 20.62C4.43 20.62 4.12 20.31 4.12 19.93Z" fill="#C47F17" fill-opacity="1.000000" fill-rule="evenodd"/>
		<path id="Vector (Stroke)" d="M11 6.87C9.86 6.87 8.93 7.79 8.93 8.93C8.93 10.07 9.86 11 11 11C12.13 11 13.06 10.07 13.06 8.93C13.06 7.79 12.13 6.87 11 6.87ZM7.56 8.93C7.56 7.03 9.1 5.5 11 5.5C12.89 5.5 14.43 7.03 14.43 8.93C14.43 10.83 12.89 12.37 11 12.37C9.1 12.37 7.56 10.83 7.56 8.93Z" fill="#C47F17" fill-opacity="1.000000" fill-rule="evenodd"/>
		<path id="Vector (Stroke)" d="M11 2.75C9.35 2.75 7.78 3.4 6.62 4.56C5.46 5.72 4.81 7.29 4.81 8.93C4.81 11.78 6.4 14.37 8.08 16.3C8.91 17.26 9.74 18.03 10.37 18.56C10.61 18.77 10.83 18.94 11 19.07C11.16 18.94 11.38 18.77 11.62 18.56C12.25 18.03 13.08 17.26 13.91 16.3C15.59 14.37 17.18 11.78 17.18 8.93C17.18 7.29 16.53 5.72 15.37 4.56C14.21 3.4 12.64 2.75 11 2.75ZM11 19.93C10.6 20.5 10.6 20.5 10.6 20.5L10.6 20.5L10.6 20.49L10.59 20.49L10.58 20.48C10.56 20.47 10.54 20.45 10.51 20.43C10.46 20.39 10.38 20.33 10.28 20.26C10.09 20.11 9.81 19.89 9.48 19.61C8.81 19.04 7.93 18.22 7.04 17.2C5.28 15.18 3.43 12.27 3.43 8.93C3.43 6.93 4.23 5 5.65 3.59C7.07 2.17 8.99 1.37 11 1.37C13 1.37 14.92 2.17 16.34 3.59C17.76 5 18.56 6.93 18.56 8.93C18.56 12.27 16.71 15.18 14.95 17.2C14.06 18.22 13.18 19.04 12.51 19.61C12.18 19.89 11.9 20.11 11.71 20.26C11.61 20.33 11.53 20.39 11.48 20.43C11.45 20.45 11.43 20.47 11.41 20.48L11.4 20.49L11.39 20.49L11.39 20.5L11.39 20.5C11.39 20.5 11.39 20.5 11 19.93ZM11 19.93L11.39 20.5C11.15 20.66 10.84 20.66 10.6 20.5L11 19.93Z" fill="#C47F17" fill-opacity="1.000000" fill-rule="evenodd"/>
	</g>
</svg>
