<svg width="143.000000" height="38.000000" viewBox="0 0 143 38" fill="none" xmlns="http://www.w3.org/2000/svg" xmlns:xlink="http://www.w3.org/1999/xlink">
	<desc>
			Created with Pixso.
	</desc>
	<defs>
		<clipPath id="clip220_978">
			<rect id="Icon" width="22.000000" height="22.000000" transform="translate(8.000000 8.000000)" fill="white" fill-opacity="0"/>
		</clipPath>
	</defs>
	<rect id="Location" rx="6.000000" width="143.000000" height="38.000000" fill="#EBE5F9" fill-opacity="1.000000"/>
	<g clip-path="url(#clip220_978)">
		<path id="Vector" d="M19 9.37C16.99 9.37 15.07 10.17 13.65 11.59C12.23 13.01 11.43 14.93 11.43 16.93C11.43 23.4 18.31 28.29 18.6 28.5C18.72 28.58 18.85 28.62 19 28.62C19.14 28.62 19.27 28.58 19.39 28.5C19.68 28.29 26.56 23.4 26.56 16.93C26.56 14.93 25.76 13.01 24.34 11.59C22.92 10.17 21 9.37 19 9.37ZM19 14.18C19.54 14.18 20.07 14.34 20.52 14.65C20.98 14.95 21.33 15.38 21.54 15.88C21.74 16.38 21.8 16.94 21.69 17.47C21.59 18 21.32 18.49 20.94 18.88C20.55 19.26 20.06 19.52 19.53 19.63C19 19.74 18.45 19.68 17.94 19.47C17.44 19.27 17.01 18.91 16.71 18.46C16.41 18.01 16.25 17.48 16.25 16.93C16.25 16.2 16.53 15.5 17.05 14.99C17.57 14.47 18.27 14.18 19 14.18Z" fill="#8047F8" fill-opacity="1.000000" fill-rule="nonzero"/>
	</g>
	<path id="City" d="M81.89 24L83.15 24L83.15 13.5L81.89 13.5L81.89 24ZM127.98 18.37Q128.75 19.07 130.44 19.56Q131.78 19.95 132.3 20.35Q132.48 20.49 132.59 20.67Q132.81 21 132.81 21.48Q132.81 21.89 132.63 22.2Q132.5 22.45 132.25 22.63Q131.7 23.06 130.66 23.06Q129.55 23.06 128.88 22.54Q128.6 22.32 128.44 22.03Q128.22 21.64 128.22 21.11L126.9 21.11Q126.9 21.63 127.07 22.09Q127.19 22.39 127.38 22.66Q127.38 22.67 127.39 22.68Q127.87 23.35 128.75 23.74Q128.92 23.81 129.09 23.87Q129.83 24.13 130.66 24.13Q132.24 24.13 133.18 23.4Q133.64 23.05 133.87 22.59Q134.13 22.09 134.13 21.47Q134.13 20.72 133.8 20.17Q133.8 20.16 133.79 20.15Q133.45 19.59 132.75 19.17Q132.05 18.75 130.81 18.4Q129.57 18.05 129.05 17.63Q128.73 17.37 128.61 17.03Q128.54 16.83 128.54 16.6Q128.54 16.13 128.75 15.78Q128.87 15.57 129.08 15.41Q129.62 14.99 130.59 14.99Q131.64 14.99 132.21 15.5Q132.37 15.64 132.48 15.81Q132.79 16.26 132.79 16.92L134.11 16.92Q134.11 16.5 133.99 16.11Q133.88 15.74 133.67 15.4Q133.57 15.24 133.45 15.1Q133.04 14.61 132.42 14.3Q131.62 13.91 130.59 13.91Q129.19 13.91 128.28 14.57Q128.21 14.62 128.15 14.67Q127.64 15.09 127.41 15.63Q127.21 16.08 127.21 16.62Q127.21 17.13 127.4 17.56Q127.59 18.01 127.98 18.37ZM36.46 24L36.46 20.1L38.81 20.1Q40.5 20.1 41.4 19.32Q41.62 19.13 41.78 18.91Q42.31 18.19 42.31 17.08Q42.31 16.2 41.92 15.54Q41.71 15.17 41.38 14.88Q41.35 14.85 41.32 14.82Q40.4 14.04 38.82 14.04L35.15 14.04L35.15 24L36.46 24ZM73.23 24L74.17 21.4L78.34 21.4L79.29 24L80.64 24L76.83 14.04L75.68 14.04L71.88 24L73.23 24ZM120.2 19.97L122.53 19.97L124.69 24L126.1 24L126.1 23.91L123.77 19.69Q124.52 19.4 125 18.86Q125.08 18.76 125.16 18.66Q125.3 18.46 125.41 18.25Q125.67 17.7 125.67 17.04Q125.67 15.89 125.11 15.18Q124.96 14.98 124.76 14.81Q123.85 14.04 122.17 14.04L118.88 14.04L118.88 24L120.2 24L120.2 19.97ZM58.47 16.6L58.47 14.81L57.21 14.81L57.21 16.6L55.86 16.6L55.86 17.58L57.21 17.58L57.21 22.16Q57.21 23.11 57.64 23.62Q57.72 23.72 57.82 23.8Q58.23 24.13 58.92 24.13Q59.39 24.13 59.89 24L59.89 22.97Q59.51 23.05 59.29 23.05Q58.85 23.05 58.66 22.83Q58.66 22.83 58.66 22.83Q58.47 22.61 58.47 22.16L58.47 17.58L59.86 17.58L59.86 16.6L58.47 16.6ZM38.82 19.03L36.46 19.03L36.46 15.12L38.9 15.12Q39.79 15.14 40.33 15.58Q40.38 15.63 40.43 15.68Q40.59 15.83 40.71 16.01Q41 16.46 41 17.1Q41 17.86 40.63 18.33Q40.54 18.44 40.43 18.53Q39.87 19.03 38.82 19.03ZM122.21 18.9L120.2 18.9L120.2 15.12L122.21 15.12Q123.25 15.13 123.8 15.62Q123.9 15.71 123.98 15.82Q124.35 16.28 124.35 17.04Q124.35 17.58 124.11 17.99Q123.97 18.21 123.77 18.39Q123.73 18.42 123.7 18.45Q123.13 18.9 122.21 18.9ZM77.95 20.32L74.57 20.32L76.25 15.66L77.95 20.32ZM43.79 18.27Q43.36 19.14 43.36 20.23L43.36 20.32Q43.36 21.83 44.08 22.82Q44.18 22.96 44.29 23.09Q44.66 23.5 45.12 23.75Q45.82 24.13 46.73 24.13Q47.54 24.13 48.2 23.82Q48.35 23.74 48.5 23.65Q48.76 23.49 48.98 23.28Q49.41 22.88 49.68 22.32Q50.09 21.46 50.09 20.38L50.09 20.29Q50.09 18.75 49.36 17.75Q49.26 17.62 49.16 17.51Q48.8 17.1 48.35 16.85Q47.64 16.46 46.72 16.46Q45.95 16.46 45.32 16.75Q45.14 16.83 44.98 16.93Q44.78 17.05 44.61 17.2Q44.11 17.63 43.79 18.27ZM54.63 17.69Q54.97 17.69 55.25 17.73L55.25 16.56Q55.06 16.46 54.69 16.46Q54.15 16.46 53.73 16.68Q53.26 16.93 52.93 17.45L52.91 16.6L51.68 16.6L51.68 24L52.94 24L52.94 18.75Q53.14 18.28 53.48 18.02Q53.93 17.69 54.63 17.69ZM61.29 18.27Q60.86 19.14 60.86 20.23L60.86 20.32Q60.86 21.83 61.58 22.82Q61.68 22.96 61.79 23.09Q62.16 23.5 62.62 23.75Q63.32 24.13 64.23 24.13Q65.04 24.13 65.7 23.82Q65.85 23.74 66 23.65Q66.26 23.49 66.48 23.28Q66.91 22.88 67.18 22.32Q67.59 21.46 67.59 20.38L67.59 20.29Q67.59 18.75 66.86 17.75Q66.76 17.62 66.66 17.51Q66.3 17.1 65.85 16.85Q65.14 16.46 64.22 16.46Q63.45 16.46 62.82 16.75Q62.64 16.83 62.48 16.93Q62.28 17.05 62.11 17.2Q61.61 17.63 61.29 18.27ZM86.52 23.71Q87.26 24.13 88.25 24.13Q89.35 24.13 90.13 23.63Q90.66 23.28 91.03 22.7L90.26 22.1Q89.95 22.5 89.56 22.76Q89.5 22.79 89.45 22.83Q88.98 23.1 88.31 23.1Q87.79 23.1 87.37 22.89Q87.03 22.73 86.76 22.43Q86.67 22.33 86.59 22.22Q86.14 21.6 86.12 20.66L91.13 20.66L91.13 20.13Q91.13 18.36 90.33 17.41Q90.09 17.13 89.8 16.93Q89.1 16.46 88.09 16.46Q87.7 16.46 87.34 16.56Q86.88 16.68 86.45 16.95Q86.24 17.08 86.06 17.25Q85.58 17.68 85.27 18.3Q84.85 19.17 84.85 20.27L84.85 20.5Q84.85 21.87 85.5 22.78Q85.63 22.97 85.8 23.14Q86.12 23.49 86.52 23.71ZM93.09 17.48Q92.29 18.51 92.29 20.24Q92.29 22.04 93.1 23.09Q93.51 23.63 94.06 23.89Q94.57 24.13 95.2 24.13Q96.09 24.13 96.72 23.73Q97.02 23.54 97.27 23.26L97.27 23.89Q97.27 24.74 96.85 25.24Q96.81 25.3 96.75 25.36Q96.68 25.43 96.6 25.49Q96.11 25.87 95.31 25.87Q94.87 25.87 94.49 25.73Q93.83 25.5 93.32 24.87L92.67 25.63Q92.68 25.64 92.69 25.65Q93.09 26.23 93.84 26.57Q94.43 26.83 95.03 26.89Q95.22 26.91 95.4 26.91Q96.58 26.91 97.36 26.35Q97.53 26.23 97.69 26.08Q97.86 25.91 98 25.72Q98.54 24.96 98.54 23.82L98.54 16.6L97.38 16.6L97.32 17.42Q97.05 17.07 96.69 16.85Q96.07 16.46 95.21 16.46Q94.52 16.46 93.98 16.74Q93.47 16.99 93.09 17.48ZM103.4 17.69Q103.74 17.69 104.02 17.73L104.02 16.56Q103.83 16.46 103.46 16.46Q102.92 16.46 102.5 16.68Q102.03 16.93 101.7 17.45L101.68 16.6L100.45 16.6L100.45 24L101.71 24L101.71 18.75Q101.91 18.28 102.25 18.02Q102.7 17.69 103.4 17.69ZM106.4 23.71Q107.14 24.13 108.12 24.13Q109.23 24.13 110.01 23.63Q110.54 23.28 110.91 22.7L110.14 22.1Q109.83 22.5 109.44 22.76Q109.38 22.79 109.33 22.83Q108.86 23.1 108.19 23.1Q107.67 23.1 107.25 22.89Q106.91 22.73 106.64 22.43Q106.55 22.33 106.47 22.22Q106.02 21.6 106 20.66L111.01 20.66L111.01 20.13Q111.01 18.36 110.21 17.41Q109.97 17.13 109.68 16.93Q108.98 16.46 107.97 16.46Q107.58 16.46 107.22 16.56Q106.75 16.68 106.33 16.95Q106.12 17.08 105.94 17.25Q105.46 17.68 105.15 18.3Q104.73 19.17 104.73 20.27L104.73 20.5Q104.73 21.87 105.38 22.78Q105.51 22.97 105.68 23.14Q106 23.49 106.4 23.71ZM45.2 22.35Q44.63 21.61 44.63 20.38Q44.63 18.99 45.21 18.25Q45.5 17.87 45.88 17.68Q46.25 17.5 46.72 17.5Q47.2 17.5 47.59 17.7Q47.97 17.88 48.25 18.26Q48.83 19.01 48.83 20.23Q48.83 21.59 48.26 22.34Q47.99 22.7 47.63 22.89Q47.24 23.1 46.73 23.1Q46.23 23.1 45.83 22.89Q45.47 22.71 45.2 22.35ZM62.7 22.35Q62.13 21.61 62.13 20.38Q62.13 18.99 62.71 18.25Q63 17.87 63.38 17.68Q63.75 17.5 64.22 17.5Q64.7 17.5 65.09 17.7Q65.47 17.88 65.75 18.26Q66.33 19.01 66.33 20.23Q66.33 21.59 65.76 22.34Q65.49 22.7 65.13 22.89Q64.74 23.1 64.23 23.1Q63.73 23.1 63.33 22.89Q62.97 22.71 62.7 22.35ZM87.37 17.64Q87.7 17.5 88.09 17.5Q88.62 17.5 89 17.74Q89.19 17.86 89.35 18.03Q89.81 18.56 89.87 19.52L89.87 19.62L86.16 19.62Q86.28 18.62 86.8 18.06Q87.06 17.78 87.37 17.64ZM107.25 17.64Q107.58 17.5 107.97 17.5Q108.5 17.5 108.88 17.74Q109.07 17.86 109.22 18.03Q109.69 18.56 109.74 19.52L109.74 19.62L106.04 19.62Q106.16 18.62 106.68 18.06Q106.94 17.78 107.25 17.64ZM94.08 22.34Q93.56 21.63 93.56 20.38Q93.56 18.97 94.08 18.25Q94.32 17.93 94.63 17.75Q95.02 17.54 95.53 17.54Q96.06 17.54 96.48 17.76Q96.96 18.03 97.27 18.59L97.27 21.97Q96.98 22.54 96.51 22.81Q96.09 23.06 95.51 23.06Q95 23.06 94.61 22.84Q94.3 22.66 94.08 22.34ZM111.71 25.49L112.43 25.98Q112.94 25.56 113.28 24.87Q113.62 24.18 113.62 23.49L113.62 22.5L112.38 22.5L112.38 23.64Q112.38 23.73 112.37 23.81Q112.3 24.67 111.71 25.49Z" fill="#4B2995" fill-opacity="1.000000" fill-rule="evenodd"/>
</svg>
