<svg width="32.000000" height="32.000000" viewBox="0 0 32 32" fill="none" xmlns="http://www.w3.org/2000/svg" xmlns:xlink="http://www.w3.org/1999/xlink">
	<desc>
			Created with Pixso.
	</desc>
	<defs>
		<clipPath id="clip220_992">
			<rect id="Icon" width="16.000000" height="16.000000" transform="translate(8.000000 8.000000)" fill="white" fill-opacity="0"/>
		</clipPath>
	</defs>
	<rect id="Icon" rx="16.000000" width="32.000000" height="32.000000" fill="#574F4D" fill-opacity="1.000000"/>
	<g clip-path="url(#clip220_992)">
		<path id="Vector" d="M22.36 12.42C22.36 12.42 22.36 12.42 22.36 12.42C22.36 12.42 22.36 12.42 22.36 12.41C22.27 12.26 22.14 12.13 21.98 12.04L16.48 8.95C16.33 8.87 16.17 8.82 16 8.82C15.82 8.82 15.66 8.87 15.51 8.95L10.01 12.04C9.85 12.13 9.72 12.26 9.63 12.41C9.63 12.42 9.63 12.42 9.63 12.42C9.63 12.42 9.63 12.42 9.63 12.42L9.63 12.43C9.54 12.58 9.49 12.74 9.5 12.91L9.5 19.08C9.5 19.25 9.54 19.43 9.63 19.58C9.72 19.74 9.85 19.86 10.01 19.95L15.51 23.04C15.65 23.12 15.8 23.16 15.96 23.17L16.04 23.17C16.2 23.16 16.35 23.12 16.48 23.04L21.98 19.95C22.14 19.86 22.27 19.74 22.36 19.58C22.45 19.43 22.49 19.25 22.5 19.08L22.5 12.91C22.5 12.74 22.45 12.57 22.36 12.42ZM16 9.82L20.98 12.62L19.06 13.71L14.02 10.93L16 9.82ZM16.05 15.42L11.02 12.62L13 11.51L18.04 14.29L16.05 15.42ZM16.5 21.89L16.55 16.29L18.56 15.14L18.56 17.53C18.56 17.66 18.61 17.79 18.7 17.88C18.8 17.97 18.92 18.03 19.06 18.03C19.19 18.03 19.32 17.97 19.41 17.88C19.5 17.79 19.56 17.66 19.56 17.53L19.56 14.58L21.5 13.48L21.5 19.08L16.5 21.89Z" fill="#FAFAFA" fill-opacity="1.000000" fill-rule="nonzero"/>
	</g>
</svg>
