<svg width="32.000000" height="32.000000" viewBox="0 0 32 32" fill="none" xmlns="http://www.w3.org/2000/svg" xmlns:xlink="http://www.w3.org/1999/xlink">
	<desc>
			Created with Pixso.
	</desc>
	<defs>
		<clipPath id="clip220_988">
			<rect id="Icon" width="16.000000" height="16.000000" transform="translate(8.000000 8.000000)" fill="white" fill-opacity="0"/>
		</clipPath>
	</defs>
	<rect id="Icon" rx="16.000000" width="32.000000" height="32.000000" fill="#DBAC2C" fill-opacity="1.000000"/>
	<g clip-path="url(#clip220_988)">
		<path id="Vector" d="M14.5 9L17.5 9C17.63 9 17.75 8.94 17.85 8.85C17.94 8.75 18 8.63 18 8.5C18 8.36 17.94 8.24 17.85 8.14C17.75 8.05 17.63 8 17.5 8L14.5 8C14.36 8 14.24 8.05 14.14 8.14C14.05 8.24 14 8.36 14 8.5C14 8.63 14.05 8.75 14.14 8.85C14.24 8.94 14.36 9 14.5 9Z" fill="#FAFAFA" fill-opacity="1.000000" fill-rule="nonzero"/>
		<path id="Vector" d="M16 10C14.81 10 13.65 10.35 12.66 11.01C11.67 11.67 10.91 12.6 10.45 13.7C10 14.8 9.88 16 10.11 17.17C10.34 18.33 10.91 19.4 11.75 20.24C12.59 21.08 13.66 21.65 14.82 21.88C15.99 22.11 17.19 21.99 18.29 21.54C19.39 21.08 20.32 20.32 20.98 19.33C21.64 18.34 22 17.18 22 16C21.99 14.4 21.36 12.88 20.23 11.76C19.11 10.63 17.59 10 16 10ZM18.83 13.88L16.35 16.35C16.26 16.44 16.13 16.5 16 16.5C15.86 16.5 15.73 16.44 15.64 16.35C15.54 16.26 15.49 16.13 15.49 16C15.49 15.86 15.54 15.73 15.64 15.64L18.11 13.16C18.16 13.11 18.21 13.06 18.28 13.03C18.34 13 18.41 12.98 18.48 12.98C18.55 12.98 18.62 12.99 18.69 13.01C18.75 13.04 18.81 13.08 18.86 13.13C18.91 13.18 18.95 13.24 18.98 13.3C19 13.37 19.01 13.44 19.01 13.51C19.01 13.58 18.99 13.65 18.96 13.71C18.93 13.78 18.88 13.83 18.83 13.88Z" fill="#FAFAFA" fill-opacity="1.000000" fill-rule="nonzero"/>
	</g>
</svg>
