<svg width="16.000000" height="16.000000" viewBox="0 0 16 16" fill="none" xmlns="http://www.w3.org/2000/svg" xmlns:xlink="http://www.w3.org/1999/xlink">
	<desc>
			Created with Pixso.
	</desc>
	<defs>
		<clipPath id="clip6_118">
			<rect id="Type=bank-regular" width="16.000000" height="16.000000" transform="translate(-0.333252 -0.500000)" fill="white" fill-opacity="0"/>
		</clipPath>
	</defs>
	<g clip-path="url(#clip6_118)">
		<path id="Vector (Stroke)" d="M7.4 1.07C7.56 0.97 7.76 0.97 7.92 1.07L14.42 5.07C14.61 5.19 14.7 5.42 14.64 5.63C14.58 5.85 14.39 6 14.16 6L1.16 6C0.94 6 0.74 5.85 0.68 5.63C0.62 5.42 0.71 5.19 0.9 5.07L7.4 1.07ZM2.93 5L12.4 5L7.66 2.08L2.93 5Z" fill="#8047F8" fill-opacity="1.000000" fill-rule="evenodd"/>
		<path id="Vector (Stroke)" d="M3.16 5C3.44 5 3.66 5.22 3.66 5.5L3.66 10.5C3.66 10.77 3.44 11 3.16 11C2.89 11 2.66 10.77 2.66 10.5L2.66 5.5C2.66 5.22 2.89 5 3.16 5Z" fill="#8047F8" fill-opacity="1.000000" fill-rule="evenodd"/>
		<path id="Vector (Stroke)" d="M6.16 5C6.44 5 6.66 5.22 6.66 5.5L6.66 10.5C6.66 10.77 6.44 11 6.16 11C5.89 11 5.66 10.77 5.66 10.5L5.66 5.5C5.66 5.22 5.89 5 6.16 5Z" fill="#8047F8" fill-opacity="1.000000" fill-rule="evenodd"/>
		<path id="Vector (Stroke)" d="M9.16 5C9.44 5 9.66 5.22 9.66 5.5L9.66 10.5C9.66 10.77 9.44 11 9.16 11C8.89 11 8.66 10.77 8.66 10.5L8.66 5.5C8.66 5.22 8.89 5 9.16 5Z" fill="#8047F8" fill-opacity="1.000000" fill-rule="evenodd"/>
		<path id="Vector (Stroke)" d="M12.16 5C12.44 5 12.66 5.22 12.66 5.5L12.66 10.5C12.66 10.77 12.44 11 12.16 11C11.89 11 11.66 10.77 11.66 10.5L11.66 5.5C11.66 5.22 11.89 5 12.16 5Z" fill="#8047F8" fill-opacity="1.000000" fill-rule="evenodd"/>
		<path id="Vector (Stroke)" d="M1.16 10.5C1.16 10.22 1.39 10 1.66 10L13.66 10C13.94 10 14.16 10.22 14.16 10.5C14.16 10.77 13.94 11 13.66 11L1.66 11C1.39 11 1.16 10.77 1.16 10.5Z" fill="#8047F8" fill-opacity="1.000000" fill-rule="evenodd"/>
		<path id="Vector (Stroke)" d="M0.16 12.5C0.16 12.22 0.39 12 0.66 12L14.66 12C14.94 12 15.16 12.22 15.16 12.5C15.16 12.77 14.94 13 14.66 13L0.66 13C0.39 13 0.16 12.77 0.16 12.5Z" fill="#8047F8" fill-opacity="1.000000" fill-rule="evenodd"/>
	</g>
</svg>
