<svg width="16.000000" height="16.000000" viewBox="0 0 16 16" fill="none" xmlns="http://www.w3.org/2000/svg" xmlns:xlink="http://www.w3.org/1999/xlink">
	<desc>
			Created with Pixso.
	</desc>
	<defs>
		<clipPath id="clip6_112">
			<rect id="Type=credit-card-regular" width="16.000000" height="16.000000" transform="translate(0.000000 -0.500000)" fill="white" fill-opacity="0"/>
		</clipPath>
	</defs>
	<g clip-path="url(#clip6_112)">
		<path id="Vector (Stroke)" d="M1 3.5C1 2.94 1.44 2.5 2 2.5L14 2.5C14.55 2.5 15 2.94 15 3.5L15 11.5C15 12.05 14.55 12.5 14 12.5L2 12.5C1.44 12.5 1 12.05 1 11.5L1 3.5ZM14 3.5L2 3.5L2 11.5L14 11.5L14 3.5Z" fill="#8047F8" fill-opacity="1.000000" fill-rule="evenodd"/>
		<path id="Vector (Stroke)" d="M10 10C10 9.72 10.22 9.5 10.5 9.5L12.5 9.5C12.77 9.5 13 9.72 13 10C13 10.27 12.77 10.5 12.5 10.5L10.5 10.5C10.22 10.5 10 10.27 10 10Z" fill="#8047F8" fill-opacity="1.000000" fill-rule="evenodd"/>
		<path id="Vector (Stroke)" d="M7 10C7 9.72 7.22 9.5 7.5 9.5L8.5 9.5C8.77 9.5 9 9.72 9 10C9 10.27 8.77 10.5 8.5 10.5L7.5 10.5C7.22 10.5 7 10.27 7 10Z" fill="#8047F8" fill-opacity="1.000000" fill-rule="evenodd"/>
		<path id="Vector (Stroke)" d="M1 5.55C1 5.28 1.22 5.05 1.5 5.05L14.5 5.05C14.77 5.05 15 5.28 15 5.55C15 5.83 14.77 6.05 14.5 6.05L1.5 6.05C1.22 6.05 1 5.83 1 5.55Z" fill="#8047F8" fill-opacity="1.000000" fill-rule="evenodd"/>
	</g>
</svg>
