<svg width="16.000000" height="16.000000" viewBox="0 0 16 16" fill="none" xmlns="http://www.w3.org/2000/svg" xmlns:xlink="http://www.w3.org/1999/xlink">
	<desc>
			Created with Pixso.
	</desc>
	<defs>
		<clipPath id="clip6_127">
			<rect id="Type=money-regular" width="16.000000" height="16.000000" transform="translate(-0.666504 -0.500000)" fill="white" fill-opacity="0"/>
		</clipPath>
	</defs>
	<g clip-path="url(#clip6_127)">
		<path id="Vector (Stroke)" d="M-0.17 4C-0.17 3.44 0.28 3 0.83 3L13.83 3C14.38 3 14.83 3.44 14.83 4L14.83 11C14.83 11.55 14.38 12 13.83 12L0.83 12C0.28 12 -0.17 11.55 -0.17 11L-0.17 4ZM13.83 4L0.83 4L0.83 11L13.83 11L13.83 4Z" fill="#8047F8" fill-opacity="1.000000" fill-rule="evenodd"/>
		<path id="Vector (Stroke)" d="M7.33 6C6.5 6 5.83 6.67 5.83 7.5C5.83 8.32 6.5 9 7.33 9C8.16 9 8.83 8.32 8.83 7.5C8.83 6.67 8.16 6 7.33 6ZM4.83 7.5C4.83 6.11 5.95 5 7.33 5C8.71 5 9.83 6.11 9.83 7.5C9.83 8.88 8.71 10 7.33 10C5.95 10 4.83 8.88 4.83 7.5Z" fill="#8047F8" fill-opacity="1.000000" fill-rule="evenodd"/>
		<path id="Vector (Stroke)" d="M9.95 3.17C10.13 2.96 10.45 2.94 10.66 3.12L14.66 6.62C14.87 6.8 14.89 7.12 14.7 7.32C14.52 7.53 14.21 7.55 14 7.37L10 3.87C9.79 3.69 9.77 3.37 9.95 3.17Z" fill="#8047F8" fill-opacity="1.000000" fill-rule="evenodd"/>
		<path id="Vector (Stroke)" d="M14.7 7.67C14.89 7.87 14.87 8.19 14.66 8.37L10.66 11.87C10.45 12.05 10.13 12.03 9.95 11.82C9.77 11.62 9.79 11.3 10 11.12L14 7.62C14.21 7.44 14.52 7.46 14.7 7.67Z" fill="#8047F8" fill-opacity="1.000000" fill-rule="evenodd"/>
		<path id="Vector (Stroke)" d="M4.7 3.17C4.89 3.37 4.87 3.69 4.66 3.87L0.66 7.37C0.45 7.55 0.13 7.53 -0.05 7.32C-0.23 7.12 -0.21 6.8 0 6.62L4 3.12C4.21 2.94 4.52 2.96 4.7 3.17Z" fill="#8047F8" fill-opacity="1.000000" fill-rule="evenodd"/>
		<path id="Vector (Stroke)" d="M-0.05 7.67C0.13 7.46 0.45 7.44 0.66 7.62L4.66 11.12C4.87 11.3 4.89 11.62 4.7 11.82C4.52 12.03 4.21 12.05 4 11.87L0 8.37C-0.21 8.19 -0.23 7.87 -0.05 7.67Z" fill="#574F4D" fill-opacity="1.000000" fill-rule="evenodd"/>
	</g>
</svg>
