<svg width="15.000000" height="19.000000" viewBox="0 0 15 19" fill="none" xmlns="http://www.w3.org/2000/svg" xmlns:xlink="http://www.w3.org/1999/xlink">
	<desc>
			Created with Pixso.
	</desc>
	<defs/>
	<path id="Vector (Stroke)" d="M7 0.75C5.35 0.75 3.78 1.4 2.62 2.56C1.46 3.72 0.81 5.29 0.81 6.93C0.81 9.78 2.4 12.37 4.08 14.3C4.91 15.26 5.74 16.03 6.37 16.56C6.61 16.77 6.83 16.94 7 17.07C7.16 16.94 7.38 16.77 7.62 16.56C8.25 16.03 9.08 15.26 9.91 14.3C11.59 12.37 13.18 9.78 13.18 6.93C13.18 5.29 12.53 3.72 11.37 2.56C10.21 1.4 8.64 0.75 7 0.75ZM7 17.93C6.6 18.5 6.6 18.5 6.6 18.5L6.6 18.5L6.6 18.49L6.59 18.49L6.58 18.48C6.56 18.47 6.54 18.45 6.51 18.43C6.46 18.39 6.38 18.33 6.28 18.26C6.09 18.11 5.81 17.89 5.48 17.61C4.81 17.04 3.93 16.22 3.04 15.2C1.28 13.18 -0.57 10.27 -0.57 6.93C-0.57 4.93 0.23 3 1.65 1.59C3.07 0.17 4.99 -0.63 7 -0.63C9 -0.63 10.92 0.17 12.34 1.59C13.76 3 14.56 4.93 14.56 6.93C14.56 10.27 12.71 13.18 10.95 15.2C10.06 16.22 9.18 17.04 8.51 17.61C8.18 17.89 7.9 18.11 7.71 18.26C7.61 18.33 7.53 18.39 7.48 18.43C7.45 18.45 7.43 18.47 7.41 18.48L7.4 18.49L7.39 18.49L7.39 18.5L7.39 18.5C7.39 18.5 7.39 18.5 7 17.93ZM7 17.93L7.39 18.5C7.15 18.66 6.84 18.66 6.6 18.5L7 17.93Z" fill="#C47F17" fill-opacity="1.000000" fill-rule="evenodd"/>
</svg>
