<svg width="20.000000" height="20.000000" viewBox="0 0 20 20" fill="none" xmlns="http://www.w3.org/2000/svg" xmlns:xlink="http://www.w3.org/1999/xlink">
	<desc>
			Created with Pixso.
	</desc>
	<defs>
		<clipPath id="clip1_1563">
			<rect id="Frame" width="20.000000" height="20.000000" fill="white" fill-opacity="0"/>
		</clipPath>
	</defs>
	<rect id="Frame" width="20.000000" height="20.000000" fill="#FFFFFF" fill-opacity="0"/>
	<g clip-path="url(#clip1_1563)">
		<path id="Vector" d="M17.4444 1.6665L2.55556 1.6665C2 1.6665 1.66667 2.11084 1.66667 2.55518L1.66667 17.333C1.66667 17.8887 2.11111 18.2222 2.55556 18.2222L10.5556 18.2222L10.5556 11.7778L8.33334 11.7778L8.33334 9.33301L10.5556 9.33301L10.5556 7.55518C10.5556 5.44434 11.8889 4.22217 13.7778 4.22217C14.6667 4.22217 15.4445 4.33301 15.6667 4.33301L15.6667 6.55518L14.3333 6.55518C13.3333 6.55518 13.1111 7 13.1111 7.77783L13.1111 9.33301L15.5556 9.33301L15.2222 11.8887L13.1111 11.8887L13.1111 18.333L17.3333 18.333C17.8889 18.333 18.2222 17.8887 18.2222 17.4443L18.2222 2.55518C18.3333 2.11084 17.8889 1.6665 17.4444 1.6665Z" fill="#000000" fill-opacity="1.000000" fill-rule="nonzero"/>
	</g>
</svg>
