<svg width="24.000000" height="24.000000" viewBox="0 0 24 24" fill="none" xmlns="http://www.w3.org/2000/svg" xmlns:xlink="http://www.w3.org/1999/xlink">
	<desc>
			Created with Pixso.
	</desc>
	<defs>
		<clipPath id="clip1_1447">
			<rect id="Frame" width="24.000000" height="24.000000" fill="white" fill-opacity="0"/>
		</clipPath>
	</defs>
	<rect id="Frame" width="24.000000" height="24.000000" fill="#FFFFFF" fill-opacity="0"/>
	<g clip-path="url(#clip1_1447)">
		<path id="Vector" d="M23.49 12.27C23.49 11.48 23.42 10.73 23.3 10L12 10L12 14.51L18.47 14.51C18.18 15.99 17.33 17.24 16.07 18.09L16.07 21.09L19.93 21.09C22.19 19 23.49 15.92 23.49 12.27Z" fill="#4285F4" fill-opacity="1.000000" fill-rule="nonzero"/>
		<path id="Vector" d="M12 24C15.24 24 17.95 22.92 19.93 21.09L16.07 18.09C14.99 18.81 13.62 19.25 12 19.25C8.87 19.25 6.22 17.14 5.27 14.29L1.29 14.29L1.29 17.38C3.26 21.3 7.31 24 12 24Z" fill="#34A853" fill-opacity="1.000000" fill-rule="nonzero"/>
		<path id="Vector" d="M5.27 14.29C5.02 13.57 4.89 12.8 4.89 12C4.89 11.2 5.03 10.43 5.27 9.71001L5.27 6.62L1.29 6.62C0.469999 8.24001 0 10.06 0 12C0 13.94 0.469999 15.76 1.29 17.38L5.27 14.29Z" fill="#FBBC05" fill-opacity="1.000000" fill-rule="nonzero"/>
		<path id="Vector" d="M12 4.75C13.77 4.75 15.35 5.36 16.6 6.55L20.02 3.13C17.95 1.19 15.24 0 12 0C7.31 0 3.26 2.7 1.29 6.62L5.27 9.71C6.22 6.86 8.87 4.75 12 4.75Z" fill="#EA4335" fill-opacity="1.000000" fill-rule="nonzero"/>
	</g>
</svg>
