<svg width="20.000000" height="20.000000" viewBox="0 0 20 20" fill="none" xmlns="http://www.w3.org/2000/svg" xmlns:xlink="http://www.w3.org/1999/xlink">
	<desc>
			Created with Pixso.
	</desc>
	<defs>
		<clipPath id="clip1_1558">
			<rect id="Frame" width="20.000000" height="20.000000" fill="white" fill-opacity="0"/>
		</clipPath>
	</defs>
	<rect id="Frame" width="20.000000" height="20.000000" fill="#FFFFFF" fill-opacity="0"/>
	<g clip-path="url(#clip1_1558)">
		<path id="Vector" d="M9.95834 2.95801C12.25 2.95801 12.5 2.95801 13.4167 3C14.25 3.0415 14.7083 3.1665 15 3.2915C15.375 3.4165 15.7083 3.6665 16 3.9165C16.2917 4.20801 16.5 4.5415 16.625 4.9165C16.75 5.20801 16.875 5.6665 16.9167 6.5C16.9583 7.4165 16.9583 7.6665 16.9583 9.95801C16.9583 12.25 16.9583 12.5 16.9167 13.4165C16.875 14.25 16.75 14.708 16.625 15C16.3333 15.75 15.75 16.333 15 16.625C14.7083 16.75 14.25 16.875 13.4167 16.9165C12.5 16.958 12.25 16.958 9.95834 16.958C7.66667 16.958 7.41667 16.958 6.5 16.9165C5.66667 16.875 5.20834 16.75 4.91667 16.625C4.54167 16.5 4.20834 16.25 3.91667 16C3.625 15.708 3.41667 15.375 3.29167 15C3.16667 14.708 3.04167 14.25 3 13.4165C2.95834 12.5 2.95834 12.25 2.95834 9.95801C2.95834 7.6665 2.95834 7.4165 3 6.5C3.04167 5.6665 3.16667 5.20801 3.29167 4.9165C3.41667 4.5415 3.66667 4.20801 3.91667 3.9165C4.20834 3.625 4.54167 3.4165 4.91667 3.2915C5.20834 3.1665 5.66667 3.0415 6.5 3C7.41667 2.95801 7.70834 2.95801 9.95834 2.95801ZM9.95834 1.4165C7.625 1.4165 7.33334 1.4165 6.41667 1.45801C5.5 1.5 4.875 1.625 4.33334 1.875C3.79167 2.08301 3.29167 2.4165 2.875 2.83301C2.45834 3.25 2.08334 3.7915 1.875 4.33301C1.66667 4.875 1.5 5.5 1.45834 6.4165C1.41667 7.33301 1.41667 7.625 1.41667 9.95801C1.41667 12.2915 1.41667 12.583 1.45834 13.5C1.5 14.4165 1.625 15.0415 1.875 15.583C2.08334 16.125 2.41667 16.6665 2.875 17.083C3.29167 17.5 3.83334 17.875 4.375 18.083C4.91667 18.2915 5.54167 18.458 6.45834 18.5C7.375 18.5415 7.66667 18.5415 10 18.5415C12.3333 18.5415 12.625 18.5415 13.5417 18.5C14.4583 18.458 15.0833 18.333 15.625 18.083C16.7917 17.625 17.6667 16.75 18.125 15.583C18.3333 15.0415 18.5 14.4165 18.5417 13.5C18.5833 12.583 18.5833 12.2915 18.5833 9.95801C18.5833 7.625 18.5833 7.33301 18.5417 6.4165C18.5 5.5 18.375 4.875 18.125 4.33301C17.9167 3.75 17.5833 3.25 17.125 2.83301C16.7083 2.4165 16.1667 2.0415 15.625 1.83301C15.0833 1.625 14.4583 1.45801 13.5417 1.4165C12.5833 1.4165 12.2917 1.4165 9.95834 1.4165Z" fill="#000000" fill-opacity="1.000000" fill-rule="nonzero"/>
		<path id="Vector" d="M9.95833 5.5835C7.54166 5.5835 5.58333 7.54199 5.58333 9.9585C5.58333 12.375 7.54166 14.3335 9.95833 14.3335C12.375 14.3335 14.3333 12.375 14.3333 9.9585C14.375 7.54199 12.4167 5.5835 9.95833 5.5835ZM9.95833 12.8335C8.375 12.8335 7.125 11.542 7.125 10C7.125 8.41699 8.41666 7.16699 9.95833 7.16699C11.5417 7.16699 12.7917 8.4585 12.7917 10C12.8333 11.542 11.5417 12.8335 9.95833 12.8335Z" fill="#000000" fill-opacity="1.000000" fill-rule="nonzero"/>
		<path id="Vector" d="M15.5833 5.4165C15.5833 5.99219 15.117 6.4585 14.5417 6.4585C13.9664 6.4585 13.5 5.99219 13.5 5.4165C13.5 4.84131 13.9664 4.375 14.5417 4.375C15.117 4.375 15.5833 4.84131 15.5833 5.4165Z" fill="#000000" fill-opacity="1.000000" fill-rule="evenodd"/>
	</g>
</svg>
