<svg width="48.000000" height="48.000000" viewBox="0 0 48 48" fill="none" xmlns="http://www.w3.org/2000/svg" xmlns:xlink="http://www.w3.org/1999/xlink">
	<desc>
			Created with Pixso.
	</desc>
	<defs>
		<clipPath id="clip1_1545">
			<rect id="IMAGE" width="48.000000" height="48.000000" fill="white" fill-opacity="0"/>
		</clipPath>
	</defs>
	<g clip-path="url(#clip1_1545)">
		<path id="Vector" d="M38 4L26.2599 4C24.66 4 23.14 4.64014 22.02 5.75977L5.75995 22.02C4.63635 23.145 4.00525 24.6699 4.00525 26.2598C4.00525 27.8501 4.63635 29.375 5.75995 30.5L17.5 42.2402C18.056 42.7979 18.7169 43.2407 19.4445 43.543C20.1721 43.8447 20.9521 44 21.74 44C23.2599 44 24.8199 43.4199 25.98 42.2402L42.24 26C43.3627 24.874 43.9953 23.3501 44 21.7598L44 10C44 6.68018 41.3199 4 38 4ZM32.666 18.667C33.1038 18.667 33.5372 18.5806 33.9417 18.4131C34.3461 18.2456 34.7136 18 35.0231 17.6904C35.3326 17.3809 35.5782 17.0137 35.7457 16.6094C35.9133 16.2046 35.9995 15.7715 35.9995 15.3335C35.9995 14.8955 35.9133 14.4624 35.7457 14.0576C35.5782 13.6533 35.3326 13.2861 35.0231 12.9766C34.7136 12.667 34.3461 12.4214 33.9417 12.2539C33.5372 12.0864 33.1038 12 32.666 12C31.7819 12 30.934 12.3511 30.3088 12.9766C29.6837 13.6016 29.3325 14.4492 29.3325 15.3335C29.3325 16.2178 29.6837 17.0654 30.3088 17.6904C30.934 18.3159 31.7819 18.667 32.666 18.667Z" fill="#8AB4F8" fill-opacity="1.000000" fill-rule="evenodd"/>
	</g>
</svg>
