<svg width="20.000000" height="20.000000" viewBox="0 0 20 20" fill="none" xmlns="http://www.w3.org/2000/svg" xmlns:xlink="http://www.w3.org/1999/xlink">
	<desc>
			Created with Pixso.
	</desc>
	<defs>
		<clipPath id="clip1_1570">
			<rect id="Frame" width="20.000000" height="20.000000" fill="white" fill-opacity="0"/>
		</clipPath>
	</defs>
	<rect id="Frame" width="20.000000" height="20.000000" fill="#FFFFFF" fill-opacity="0"/>
	<g clip-path="url(#clip1_1570)">
		<path id="Vector" d="M15.1 5.0083C14.647 4.7124 14.2584 4.32812 13.9577 3.87842C13.657 3.42871 13.4502 2.92334 13.35 2.3916C13.3083 2.1582 13.2833 1.9165 13.2833 1.6665L10.4167 1.6665L10.4167 13.1499C10.3917 13.772 10.1272 14.3608 9.67833 14.7925C9.22949 15.2241 8.63113 15.4658 8.00833 15.4663C7.69208 15.4663 7.37891 15.4043 7.0867 15.2832C6.79451 15.1621 6.52902 14.9849 6.30539 14.7612C5.85374 14.3096 5.60001 13.6968 5.60001 13.0581C5.60001 11.7334 6.68333 10.6499 8.00833 10.6499C8.25833 10.6499 8.49167 10.6914 8.71667 10.7583L8.71667 7.83301C8.48334 7.7998 8.25 7.7832 8.00833 7.7832C5.10001 7.7832 2.73334 10.1499 2.73334 13.0581C2.73334 14.8413 3.625 16.4248 4.98334 17.375C5.84167 17.9746 6.88333 18.333 8.00833 18.333C10.9167 18.333 13.2833 15.9663 13.2833 13.0581L13.2833 7.2334C14.4083 8.0415 15.7833 8.5166 17.2667 8.5166L17.2667 5.6499C16.4667 5.6499 15.725 5.4082 15.1 5.0083Z" fill="#000000" fill-opacity="1.000000" fill-rule="nonzero"/>
	</g>
</svg>
