<svg width="18.461876" height="15.003418" viewBox="0 0 18.4619 15.0034" fill="none" xmlns="http://www.w3.org/2000/svg" xmlns:xlink="http://www.w3.org/1999/xlink">
	<desc>
			Created with Pixso.
	</desc>
	<defs/>
	<path id="Vector" d="M16.2864 2.37256C17.0685 1.90381 17.669 1.16162 17.9518 0.276855C17.22 0.710938 16.4094 1.02637 15.5466 1.19629C14.8557 0.459961 13.8713 0 12.7819 0C10.69 0 8.99411 1.6958 8.99411 3.7876C8.99411 4.08447 9.02767 4.37354 9.09223 4.65088C5.94428 4.49268 3.15336 2.98486 1.28522 0.693359C0.95919 1.25293 0.7724 1.90332 0.7724 2.59766C0.7724 3.91162 1.44115 5.0708 2.45747 5.75C1.83653 5.73047 1.25253 5.56006 0.741814 5.27637C0.741539 5.29199 0.741539 5.30811 0.741539 5.32422C0.741539 7.15918 2.04716 8.68994 3.77989 9.03809C3.46203 9.12451 3.12743 9.1709 2.78194 9.1709C2.5379 9.1709 2.30059 9.14697 2.06937 9.10303C2.55133 10.6079 3.95013 11.7026 5.60757 11.7334C4.31128 12.749 2.67809 13.355 0.903542 13.355C0.597839 13.355 0.296318 13.3369 0 13.3018C1.67622 14.3765 3.66718 15.0034 5.80618 15.0034C12.7731 15.0034 16.5828 9.23193 16.5828 4.22656C16.5828 4.0625 16.5792 3.89941 16.5719 3.73682C17.3119 3.20264 17.9541 2.53564 18.4619 1.77588C17.7826 2.07715 17.0526 2.28076 16.2864 2.37256Z" fill="#000000" fill-opacity="1.000000" fill-rule="nonzero"/>
</svg>
