<svg width="20.000000" height="20.000000" viewBox="0 0 20 20" fill="none" xmlns="http://www.w3.org/2000/svg" xmlns:xlink="http://www.w3.org/1999/xlink">
	<desc>
			Created with Pixso.
	</desc>
	<defs>
		<clipPath id="clip1_1566">
			<rect id="Frame" width="20.000000" height="20.000000" fill="white" fill-opacity="0"/>
		</clipPath>
	</defs>
	<rect id="Frame" width="20.000000" height="20.000000" fill="#FFFFFF" fill-opacity="0"/>
	<g clip-path="url(#clip1_1566)">
		<path id="Vector" d="M19.7833 5.50439C19.7833 5.50439 19.5917 4.12939 18.9917 3.5293C18.2333 2.729 17.3833 2.729 16.9917 2.6792C14.2 2.4751 10 2.5 10 2.5C10 2.5 5.81667 2.4751 3.02499 2.6748C2.64166 2.7251 1.79167 2.7251 1.03334 3.5249C0.433334 4.125 0.233337 5.5 0.233337 5.5C0.233337 5.5 0.0333405 7.12109 0 8.7334L0 10.4209C0.0333405 12.0376 0.233337 13.6499 0.233337 13.6499C0.233337 13.6499 0.433334 15.0249 1.03334 15.6333C1.79167 16.4248 2.78334 16.3999 3.23334 16.4834C4.8 16.6333 9.825 16.6665 10 16.6665C10 16.6665 14.2083 16.6748 17 16.4751C17.3833 16.4248 18.2333 16.4248 18.9917 15.625C19.5917 15.0249 19.7917 13.6499 19.7917 13.6499C19.7917 13.6499 19.9917 12.0332 20 10.4209L20 8.7334C19.9833 7.12109 19.7833 5.50439 19.7833 5.50439ZM7.97501 12.5L7.97501 6.6582L13.3333 9.69189L7.97501 12.5Z" fill="#000000" fill-opacity="1.000000" fill-rule="nonzero"/>
	</g>
</svg>
