<svg width="33.000000" height="33.000000" viewBox="0 0 33 33" fill="none" xmlns="http://www.w3.org/2000/svg" xmlns:xlink="http://www.w3.org/1999/xlink">
	<desc>
			Created with Pixso.
	</desc>
	<defs/>
	<path id="Vector" d="M24.82 12.98C24.12 11.99 23.25 11.12 22.26 10.42C22.1 10.31 21.89 10.29 21.72 10.37L19.95 11.2C19.61 11.03 19.25 10.89 18.88 10.76L18.23 8.78L18.23 8.78C18.15 8.56 17.95 8.41 17.71 8.41L14.28 8.41C14.04 8.41 13.84 8.56 13.76 8.78L13.1 10.78L12.06 11.22L10.27 10.37C10.1 10.29 9.89 10.31 9.73 10.42C8.74 11.12 7.87 11.99 7.17 12.98C7.06 13.14 7.04 13.35 7.12 13.52L7.97 15.31L7.53 16.35L5.53 17.01L5.53 17.01C5.31 17.09 5.16 17.29 5.16 17.53L5.16 20.96C5.16 21.2 5.31 21.4 5.53 21.48L7.53 22.14L7.97 23.18L7.12 24.97C7.04 25.14 7.05 25.35 7.17 25.51C7.87 26.5 8.74 27.37 9.73 28.07C9.89 28.19 10.1 28.2 10.28 28.12L11.9 27.31L11.42 26.34L10.1 27C9.4 26.47 8.77 25.84 8.24 25.14L9.05 23.43C9.11 23.29 9.12 23.13 9.06 22.99L8.44 21.5C8.38 21.35 8.26 21.24 8.11 21.19L6.25 20.57L6.25 17.92L8.11 17.3C8.26 17.25 8.38 17.14 8.44 16.99L9.06 15.5C9.12 15.36 9.11 15.2 9.05 15.06L8.24 13.35C8.77 12.65 9.4 12.02 10.1 11.49L11.81 12.3C11.95 12.36 12.11 12.37 12.25 12.31L13.74 11.69C13.89 11.63 14 11.51 14.05 11.36L14.67 9.5L17.32 9.5L17.94 11.36C18 11.53 18.13 11.66 18.29 11.71C18.78 11.86 19.24 12.05 19.69 12.29C19.84 12.37 20.02 12.37 20.18 12.3L21.89 11.49C22.59 12.02 23.22 12.65 23.75 13.35L22.94 15.06C22.87 15.22 22.87 15.4 22.95 15.55C23.19 16 23.38 16.46 23.53 16.95C23.59 17.11 23.71 17.25 23.88 17.3L25.75 17.92L25.75 20.57L23.88 21.19C23.71 21.24 23.59 21.38 23.53 21.54C23.38 22.03 23.19 22.49 22.95 22.94C22.87 23.09 22.87 23.27 22.94 23.43L23.75 25.14L23.75 25.14C23.22 25.84 22.59 26.47 21.89 27L20.57 26.34L20.09 27.31L21.71 28.12C21.89 28.2 22.1 28.19 22.26 28.07C23.25 27.37 24.12 26.5 24.82 25.51C24.94 25.35 24.95 25.14 24.87 24.97L24.04 23.2C24.21 22.86 24.35 22.5 24.48 22.13L26.46 21.48C26.68 21.4 26.83 21.2 26.83 20.96L26.83 17.53C26.83 17.29 26.68 17.09 26.46 17.01L24.48 16.36L24.48 16.36C24.35 15.99 24.21 15.63 24.04 15.29L24.87 13.52C24.95 13.35 24.94 13.14 24.82 12.98L24.82 12.98Z" fill="#006D77" fill-opacity="1.000000" fill-rule="nonzero"/>
	<path id="Vector" d="M13.29 30.08L13.29 31.7C13.29 31.85 13.34 31.98 13.45 32.09C13.55 32.19 13.68 32.25 13.83 32.25L18.16 32.25C18.31 32.25 18.44 32.19 18.54 32.09C18.65 31.98 18.7 31.85 18.7 31.7L18.7 30.08C18.85 30.08 18.98 30.02 19.09 29.92C19.19 29.82 19.25 29.68 19.25 29.54L19.25 28.73C19.28 26.69 19.98 24.71 21.23 23.1C22.05 21.98 22.5 20.63 22.5 19.24C22.5 17.14 21.48 15.17 19.77 13.95C18.06 12.73 15.86 12.41 13.87 13.09C11.88 13.78 10.35 15.39 9.76 17.4C9.16 19.42 9.58 21.6 10.88 23.25C12.12 24.9 12.78 26.92 12.75 28.98L12.75 29.54C12.75 29.68 12.8 29.82 12.9 29.92C13.01 30.02 13.14 30.08 13.29 30.08L13.29 30.08ZM17.62 31.16L14.37 31.16L14.37 30.08L17.62 30.08L17.62 31.16ZM11.73 22.58C10.8 21.4 10.4 19.87 10.65 18.38C10.84 17.22 11.4 16.15 12.26 15.34C13.11 14.52 14.2 14.01 15.37 13.86C16.77 13.7 18.19 14.09 19.31 14.96C20.43 15.82 21.16 17.09 21.36 18.49C21.56 19.89 21.2 21.31 20.36 22.45C18.97 24.25 18.2 26.45 18.16 28.73L18.16 29L16.54 29L16.54 24.61C17.42 24.43 18.16 23.82 18.5 22.98C18.84 22.15 18.75 21.2 18.24 20.45C17.74 19.7 16.9 19.25 16 19.25C15.09 19.25 14.25 19.7 13.75 20.45C13.24 21.2 13.15 22.15 13.49 22.98C13.83 23.82 14.57 24.43 15.45 24.61L15.45 29L13.83 29L13.83 28.98C13.86 26.67 13.13 24.42 11.73 22.58L11.73 22.58ZM16 23.58C15.56 23.58 15.15 23.41 14.85 23.1C14.54 22.8 14.37 22.38 14.37 21.95C14.37 21.52 14.54 21.11 14.85 20.8C15.15 20.5 15.56 20.33 16 20.33C16.43 20.33 16.84 20.5 17.14 20.8C17.45 21.11 17.62 21.52 17.62 21.95C17.62 22.38 17.45 22.8 17.14 23.1C16.84 23.41 16.43 23.58 16 23.58L16 23.58Z" fill="#006D77" fill-opacity="1.000000" fill-rule="nonzero"/>
	<path id="Vector" d="M11.66 1.4L11.66 4.05C11.66 4.49 11.84 4.91 12.15 5.22C12.46 5.53 12.88 5.7 13.31 5.7L14.62 5.7L15.54 7.09C15.64 7.24 15.81 7.33 16 7.33C16.18 7.33 16.35 7.24 16.45 7.09L17.37 5.7L18.68 5.7C19.11 5.7 19.53 5.53 19.84 5.22C20.15 4.91 20.33 4.49 20.33 4.05L20.33 1.4C20.33 0.96 20.15 0.54 19.84 0.23C19.53 -0.08 19.11 -0.25 18.68 -0.25L13.31 -0.25C12.88 -0.25 12.46 -0.08 12.15 0.23C11.84 0.54 11.66 0.96 11.66 1.4L11.66 1.4ZM12.75 1.4C12.75 1.08 13 0.83 13.31 0.83L18.68 0.83C18.99 0.83 19.24 1.08 19.25 1.4L19.25 4.05C19.24 4.36 18.99 4.62 18.68 4.62L17.08 4.62C16.9 4.62 16.73 4.71 16.63 4.86L16 5.81L15.36 4.86L15.36 4.86C15.26 4.71 15.09 4.62 14.91 4.62L13.31 4.62C13 4.62 12.75 4.36 12.75 4.05L12.75 1.4Z" fill="#006D77" fill-opacity="1.000000" fill-rule="nonzero"/>
	<path id="Vector" d="M27.37 -0.25C26.08 -0.25 24.84 0.26 23.92 1.17C23.01 2.09 22.5 3.33 22.5 4.62C22.5 5.91 23.01 7.15 23.92 8.07C24.84 8.98 26.08 9.5 27.37 9.5C28.66 9.5 29.9 8.98 30.82 8.07C31.73 7.15 32.25 5.91 32.25 4.62C32.24 3.33 31.73 2.09 30.82 1.17C29.9 0.26 28.66 -0.25 27.37 -0.25ZM27.37 8.41C26.36 8.41 25.4 8.01 24.69 7.3C23.98 6.59 23.58 5.63 23.58 4.62C23.58 3.61 23.98 2.65 24.69 1.94C25.4 1.23 26.36 0.83 27.37 0.83C28.38 0.83 29.34 1.23 30.05 1.94C30.76 2.65 31.16 3.61 31.16 4.62C31.16 5.63 30.76 6.59 30.05 7.3C29.34 8.01 28.38 8.41 27.37 8.41Z" fill="#006D77" fill-opacity="1.000000" fill-rule="nonzero"/>
	<path id="Vector" d="M4.62 9.5C5.91 9.5 7.15 8.98 8.07 8.07C8.98 7.15 9.5 5.91 9.5 4.62C9.5 3.33 8.98 2.09 8.07 1.17C7.15 0.26 5.91 -0.25 4.62 -0.25C3.33 -0.25 2.09 0.26 1.17 1.17C0.26 2.09 -0.25 3.33 -0.25 4.62C-0.25 5.91 0.26 7.15 1.17 8.07C2.09 8.98 3.33 9.49 4.62 9.5ZM4.62 0.83C5.63 0.83 6.59 1.23 7.3 1.94C8.01 2.65 8.41 3.61 8.41 4.62C8.41 5.63 8.01 6.59 7.3 7.3C6.59 8.01 5.63 8.41 4.62 8.41C3.61 8.41 2.65 8.01 1.94 7.3C1.23 6.59 0.83 5.63 0.83 4.62C0.83 3.61 1.23 2.65 1.94 1.94C2.65 1.23 3.61 0.83 4.62 0.83Z" fill="#006D77" fill-opacity="1.000000" fill-rule="nonzero"/>
	<path id="Vector" d="M27.37 4.08C27.07 4.08 26.83 3.84 26.83 3.54C26.83 3.24 27.07 2.99 27.37 2.99L28.45 2.99L28.45 1.91L27.37 1.91C26.79 1.91 26.25 2.22 25.96 2.72C25.67 3.23 25.67 3.85 25.96 4.35C26.25 4.85 26.79 5.16 27.37 5.16C27.67 5.16 27.91 5.4 27.91 5.7C27.91 6 27.67 6.24 27.37 6.24L26.29 6.24L26.29 7.33L27.37 7.33C27.95 7.33 28.49 7.02 28.78 6.52C29.07 6.01 29.07 5.39 28.78 4.89C28.49 4.39 27.95 4.08 27.37 4.08Z" fill="#006D77" fill-opacity="1.000000" fill-rule="nonzero"/>
	<path id="Vector" d="M13.83 1.91L16 1.91L16 2.99L13.83 2.99L13.83 1.91Z" fill="#006D77" fill-opacity="1.000000" fill-rule="nonzero"/>
	<path id="Vector" d="M17.08 1.91L18.16 1.91L18.16 2.99L17.08 2.99L17.08 1.91Z" fill="#006D77" fill-opacity="1.000000" fill-rule="nonzero"/>
	<path id="Vector" d="M2.45 4.62L3.54 4.62L3.54 6.25L2.45 6.25L2.45 4.62Z" fill="#006D77" fill-opacity="1.000000" fill-rule="nonzero"/>
	<path id="Vector" d="M4.08 3.54L5.16 3.54L5.16 6.25L4.08 6.25L4.08 3.54Z" fill="#006D77" fill-opacity="1.000000" fill-rule="nonzero"/>
	<path id="Vector" d="M5.7 2.45L6.79 2.45L6.79 6.25L5.7 6.25L5.7 2.45Z" fill="#006D77" fill-opacity="1.000000" fill-rule="nonzero"/>
	<path id="Vector" d="M30.08 10.04L31.16 10.04L31.16 11.12L30.08 11.12L30.08 10.04Z" fill="#006D77" fill-opacity="1.000000" fill-rule="nonzero"/>
	<path id="Vector" d="M30.08 12.2L31.16 12.2L31.16 13.29L30.08 13.29L30.08 12.2Z" fill="#006D77" fill-opacity="1.000000" fill-rule="nonzero"/>
	<path id="Vector" d="M30.08 14.37L31.16 14.37L31.16 15.45L30.08 15.45L30.08 14.37Z" fill="#006D77" fill-opacity="1.000000" fill-rule="nonzero"/>
	<path id="Vector" d="M30.08 16.54L31.16 16.54L31.16 17.62L30.08 17.62L30.08 16.54Z" fill="#006D77" fill-opacity="1.000000" fill-rule="nonzero"/>
	<path id="Vector" d="M30.08 18.7L31.16 18.7L31.16 19.79L30.08 19.79L30.08 18.7Z" fill="#006D77" fill-opacity="1.000000" fill-rule="nonzero"/>
	<path id="Vector" d="M27.91 18.7L29 18.7L29 19.79L27.91 19.79L27.91 18.7Z" fill="#006D77" fill-opacity="1.000000" fill-rule="nonzero"/>
	<path id="Vector" d="M0.83 10.04L1.91 10.04L1.91 11.12L0.83 11.12L0.83 10.04Z" fill="#006D77" fill-opacity="1.000000" fill-rule="nonzero"/>
	<path id="Vector" d="M0.83 12.2L1.91 12.2L1.91 13.29L0.83 13.29L0.83 12.2Z" fill="#006D77" fill-opacity="1.000000" fill-rule="nonzero"/>
	<path id="Vector" d="M0.83 14.37L1.91 14.37L1.91 15.45L0.83 15.45L0.83 14.37Z" fill="#006D77" fill-opacity="1.000000" fill-rule="nonzero"/>
	<path id="Vector" d="M0.83 16.54L1.91 16.54L1.91 17.62L0.83 17.62L0.83 16.54Z" fill="#006D77" fill-opacity="1.000000" fill-rule="nonzero"/>
	<path id="Vector" d="M0.83 18.7L1.91 18.7L1.91 19.79L0.83 19.79L0.83 18.7Z" fill="#006D77" fill-opacity="1.000000" fill-rule="nonzero"/>
	<path id="Vector" d="M3 18.7L4.08 18.7L4.08 19.79L3 19.79L3 18.7Z" fill="#006D77" fill-opacity="1.000000" fill-rule="nonzero"/>
	<path id="Vector" d="M15.45 21.41L16.54 21.41L16.54 22.5L15.45 22.5L15.45 21.41Z" fill="#006D77" fill-opacity="1.000000" fill-rule="nonzero"/>
</svg>
