<svg width="28.000000" height="33.000000" viewBox="0 0 28 33" fill="none" xmlns="http://www.w3.org/2000/svg" xmlns:xlink="http://www.w3.org/1999/xlink">
	<desc>
			Created with Pixso.
	</desc>
	<defs/>
	<path id="Vector" d="M24.47 10.81L24.77 10.97L24.93 11.26C25.03 11.45 25.19 11.59 25.39 11.66C25.58 11.73 25.8 11.73 25.99 11.66C26.19 11.59 26.35 11.45 26.45 11.26L26.61 10.97L26.91 10.81C27.09 10.71 27.23 10.54 27.31 10.35C27.38 10.15 27.38 9.94 27.31 9.74C27.23 9.55 27.09 9.38 26.91 9.28L26.61 9.12L26.45 8.83C26.35 8.64 26.19 8.5 25.99 8.43C25.8 8.36 25.58 8.36 25.39 8.43C25.19 8.5 25.03 8.64 24.93 8.83L24.77 9.12L24.47 9.29C24.29 9.39 24.15 9.55 24.08 9.74C24 9.94 24 10.15 24.08 10.35C24.15 10.55 24.29 10.71 24.47 10.81L24.47 10.81ZM24.84 9.97L25.32 9.71C25.33 9.7 25.34 9.69 25.35 9.67L25.61 9.2C25.63 9.17 25.66 9.15 25.69 9.15C25.72 9.15 25.75 9.17 25.77 9.2L26.03 9.67C26.04 9.69 26.05 9.7 26.06 9.71L26.54 9.97L26.54 9.97C26.57 9.98 26.59 10.01 26.59 10.05C26.59 10.08 26.57 10.11 26.54 10.13L26.06 10.38L26.06 10.38C26.05 10.39 26.04 10.41 26.03 10.42L25.77 10.89C25.75 10.92 25.72 10.94 25.69 10.94C25.66 10.94 25.63 10.92 25.61 10.89L25.35 10.42C25.34 10.41 25.33 10.39 25.32 10.38L24.84 10.13C24.81 10.11 24.79 10.08 24.79 10.05C24.79 10.01 24.81 9.98 24.84 9.96L24.84 9.97Z" fill="#006D77" fill-opacity="1.000000" fill-rule="nonzero"/>
	<path id="Vector" d="M0.04 19.21L0.57 19.49L0.85 20.01C0.96 20.21 1.13 20.35 1.33 20.43C1.54 20.51 1.76 20.51 1.97 20.43C2.17 20.35 2.34 20.21 2.45 20.01L2.73 19.49L3.25 19.21C3.44 19.1 3.59 18.93 3.67 18.73C3.74 18.52 3.74 18.3 3.67 18.09C3.59 17.89 3.44 17.72 3.25 17.61L2.73 17.33L2.44 16.81C2.34 16.61 2.17 16.47 1.96 16.39C1.76 16.31 1.54 16.31 1.33 16.39C1.13 16.47 0.96 16.61 0.85 16.81L0.57 17.33L0.04 17.62C-0.15 17.72 -0.29 17.89 -0.37 18.1C-0.45 18.3 -0.45 18.53 -0.37 18.73C-0.29 18.93 -0.15 19.1 0.04 19.21L0.04 19.21ZM0.42 18.29L1.1 17.92L1.1 17.92C1.13 17.91 1.14 17.89 1.16 17.86L1.53 17.18L1.53 17.18C1.56 17.14 1.6 17.11 1.65 17.11C1.7 17.11 1.74 17.14 1.77 17.18L2.14 17.86L2.14 17.86C2.15 17.89 2.17 17.91 2.19 17.92L2.88 18.29L2.88 18.29C2.92 18.32 2.95 18.36 2.95 18.41C2.95 18.46 2.92 18.5 2.88 18.53L2.19 18.9C2.17 18.91 2.15 18.93 2.14 18.96L1.77 19.64L1.77 19.64C1.74 19.68 1.7 19.71 1.65 19.71C1.6 19.71 1.55 19.68 1.53 19.64L1.16 18.96L1.16 18.96C1.14 18.93 1.13 18.91 1.1 18.9L0.42 18.53C0.37 18.5 0.35 18.46 0.35 18.41C0.35 18.36 0.37 18.32 0.42 18.29Z" fill="#006D77" fill-opacity="1.000000" fill-rule="nonzero"/>
	<path id="Vector" d="M12.31 18.03C12.53 17.93 12.63 17.9 12.76 17.96C13.03 18.09 13.35 18.09 13.62 17.96C13.75 17.9 13.85 17.93 14.06 18.03L14.06 18.03C14.22 18.11 14.4 18.15 14.58 18.16C14.65 18.16 14.73 18.15 14.8 18.13C15 18.07 15.11 17.86 15.05 17.66C15 17.45 14.79 17.33 14.58 17.39C14.51 17.37 14.44 17.35 14.37 17.32C14.12 17.21 13.75 17.05 13.3 17.26C13.23 17.29 13.15 17.29 13.08 17.26C12.63 17.05 12.25 17.21 12.01 17.32C11.94 17.35 11.87 17.37 11.8 17.39C11.69 17.35 11.58 17.36 11.49 17.41C11.39 17.46 11.32 17.54 11.29 17.65C11.26 17.75 11.28 17.86 11.33 17.95C11.39 18.04 11.48 18.11 11.58 18.13C11.87 18.22 12.12 18.11 12.31 18.03L12.31 18.03Z" fill="#006D77" fill-opacity="1.000000" fill-rule="nonzero"/>
	<path id="Vector" d="M13.7 18.61L12.67 18.61C12.46 18.61 12.29 18.78 12.29 19C12.29 19.21 12.46 19.39 12.67 19.39L13.7 19.39C13.91 19.39 14.09 19.21 14.09 19C14.09 18.78 13.91 18.61 13.7 18.61L13.7 18.61Z" fill="#006D77" fill-opacity="1.000000" fill-rule="nonzero"/>
	<path id="Vector" d="M20.94 23.96L20.85 23.92C20.82 23.51 20.78 23.09 20.72 22.68L20.72 22.68C20.67 22.36 20.47 22.09 20.18 21.94L18.74 21.22C18.46 21.08 18.13 21.08 17.86 21.22C17.58 21.35 17.39 21.61 17.33 21.91C17.32 22 17.3 22.09 17.28 22.18L17.28 22.18C17.18 22.07 17.1 21.95 17.02 21.83C16.72 21.38 16.56 20.85 16.48 20.42L16.48 20.42C17.13 19.86 17.75 19.26 18.32 18.61C18.86 18.03 19.26 17.32 19.55 16.56C22.41 15.87 22.56 12.97 22.65 11.18L22.65 11.18C22.68 10.72 22.57 10.27 22.36 9.88C22.14 9.48 21.82 9.15 21.43 8.92C21.32 7.82 21 6.54 20.49 5.56L20.49 5.56C20.65 5.51 20.78 5.41 20.85 5.26C20.94 5.08 20.93 4.88 20.82 4.71C20.02 3.41 18.52 2.29 16.77 1.65C16.84 1.5 16.83 1.33 16.76 1.19C16.69 1.04 16.57 0.93 16.41 0.88C16.01 0.76 15.61 0.66 15.2 0.58C15.2 0.44 15.15 0.31 15.07 0.2C14.9 -0.02 14.65 -0.16 14.38 -0.18C13.59 -0.28 12.79 -0.28 12 -0.18C11.73 -0.15 11.48 -0.02 11.31 0.2C11.21 0.34 11.16 0.52 11.19 0.7C9.69 1.14 8.62 2.02 8.09 3.03C8.09 3.04 8.07 3.06 8.05 3.06C6.71 3.48 5.6 4.42 4.97 5.67C4.88 5.86 4.9 6.08 5.03 6.24C5.15 6.4 5.35 6.48 5.54 6.45C5.28 7.24 5.09 8.06 4.99 8.89C4.59 9.12 4.26 9.45 4.03 9.85C3.81 10.25 3.7 10.71 3.73 11.17C3.82 12.97 3.97 15.87 6.83 16.55C7.13 17.32 7.52 18.02 8.06 18.61C8.64 19.25 9.25 19.85 9.9 20.42C9.79 20.96 9.6 21.46 9.36 21.83L9.36 21.83C9.28 21.95 9.2 22.07 9.1 22.18C9.08 22.08 9.06 21.99 9.05 21.91L9.05 21.91C8.99 21.61 8.8 21.35 8.52 21.22C8.24 21.07 7.92 21.07 7.64 21.22L6.2 21.94C5.91 22.09 5.71 22.36 5.66 22.68C5.6 23.09 5.56 23.5 5.53 23.92L5.44 23.96C2.69 25.12 0.5 27.68 -0.73 31.17C-0.79 31.37 -0.76 31.59 -0.64 31.76C-0.52 31.93 -0.33 32.03 -0.12 32.03L26.5 32.03C26.71 32.03 26.9 31.93 27.02 31.76C27.14 31.59 27.17 31.37 27.1 31.17C25.88 27.68 23.69 25.12 20.94 23.96L20.94 23.96ZM15.75 1.88C15.79 2.05 15.91 2.19 16.08 2.24C17.72 2.74 19.15 3.7 19.97 4.83C19.81 4.86 19.67 4.96 19.59 5.11C19.52 5.26 19.53 5.45 19.62 5.59C20.11 6.39 20.46 7.57 20.61 8.62C20.24 8.55 19.84 8.5 19.42 8.45C19.15 7.6 18.64 6.81 17.91 6.08L17.91 6.08C17.8 5.97 17.63 5.94 17.49 6C17.35 6.06 17.25 6.2 17.25 6.35C17.25 6.53 17.23 6.71 17.19 6.89C16.74 6.47 16.27 6.09 15.77 5.74C15.66 5.04 15.52 4.45 15.41 3.92C15.19 2.97 15.03 2.23 15.1 1.35C15.33 1.4 15.57 1.45 15.82 1.52C15.75 1.63 15.73 1.75 15.75 1.88L15.75 1.88ZM15.98 8.17C15.97 7.67 15.94 7.22 15.9 6.8L15.9 6.8C16.3 7.12 16.69 7.47 17.05 7.84C17.13 7.93 17.24 7.97 17.36 7.96C17.48 7.95 17.59 7.89 17.65 7.79C17.76 7.61 17.84 7.43 17.9 7.23C18.17 7.58 18.39 7.95 18.56 8.36C17.71 8.27 16.82 8.21 15.98 8.17L15.98 8.17ZM12.1 0.58C12.82 0.5 13.56 0.5 14.28 0.58C14.33 0.59 14.37 0.6 14.41 0.63C14.17 1.94 14.38 2.89 14.65 4.09C14.87 5.09 15.15 6.32 15.2 8.13C14.42 8.1 13.71 8.09 13.19 8.09C12.66 8.09 11.96 8.1 11.18 8.13C11.23 6.32 11.51 5.09 11.73 4.09C12 2.89 12.21 1.94 11.97 0.63L11.97 0.63C12.01 0.6 12.05 0.59 12.1 0.58L12.1 0.58ZM10.4 8.17C9.56 8.21 8.67 8.27 7.81 8.36C7.96 7.94 8.17 7.54 8.44 7.19C8.72 6.84 9.18 6.4 9.81 6.33C9.93 6.32 10.03 6.26 10.09 6.16C10.24 5.93 10.43 5.74 10.64 5.57C10.5 6.43 10.42 7.3 10.4 8.17L10.4 8.17ZM8.27 3.8C8.49 3.74 8.67 3.59 8.78 3.38C9.11 2.75 9.93 1.92 11.29 1.47C11.34 2.3 11.18 3.01 10.98 3.92C10.93 4.13 10.88 4.35 10.83 4.58L10.83 4.58C10.32 4.79 9.87 5.14 9.55 5.59C8.91 5.71 8.32 6.09 7.83 6.71L7.83 6.71C7.44 7.23 7.14 7.82 6.97 8.45C6.56 8.5 6.17 8.55 5.81 8.61C5.92 7.89 6.15 6.96 6.45 6.22L6.45 6.22C6.52 6.06 6.5 5.87 6.38 5.74C6.27 5.6 6.09 5.54 5.92 5.58C6.48 4.73 7.31 4.1 8.27 3.8L8.27 3.8ZM5.9 9.38C8.1 9.01 11.54 8.87 13.19 8.87C14.84 8.87 18.28 9.01 20.48 9.38L20.48 9.38C20.9 9.45 21.27 9.68 21.53 10.02C15.98 9.53 10.4 9.53 4.85 10.02C5.11 9.68 5.48 9.45 5.9 9.38L5.9 9.38ZM4.5 11.13C4.49 11.03 4.5 10.93 4.51 10.82C10.28 10.3 16.09 10.3 21.87 10.82C21.88 10.92 21.88 11.03 21.88 11.13C21.75 13.55 21.41 15.73 18.57 15.91C17.46 15.99 16.35 15.87 15.28 15.57C13.91 15.18 12.47 15.18 11.1 15.57C10.03 15.87 8.92 15.99 7.81 15.91C4.97 15.74 4.62 13.55 4.5 11.13L4.5 11.13ZM8.63 18.08C8.26 17.67 7.95 17.2 7.73 16.69L7.76 16.69C7.99 16.7 8.22 16.71 8.45 16.71C9.42 16.71 10.38 16.58 11.31 16.31C12.54 15.96 13.84 15.96 15.07 16.31C16.22 16.64 17.42 16.77 18.62 16.69L18.65 16.69C18.43 17.2 18.12 17.67 17.75 18.08C16.69 19.24 16.03 19.82 14.95 20.66C14.45 21.06 13.83 21.27 13.19 21.27C12.55 21.27 11.93 21.06 11.43 20.66C10.36 19.82 9.7 19.24 8.63 18.08L8.63 18.08ZM10.01 22.25C10.26 21.85 10.45 21.42 10.57 20.97C10.69 21.06 10.82 21.17 10.96 21.27C11.59 21.77 12.38 22.05 13.19 22.05C14 22.05 14.79 21.77 15.43 21.27C15.56 21.17 15.68 21.07 15.81 20.97C15.93 21.42 16.12 21.86 16.37 22.25C16.55 22.54 16.77 22.8 17.02 23.03C16.7 23.92 16.31 24.77 15.85 25.6C14.07 26.63 12.31 26.63 10.53 25.59C10.07 24.77 9.67 23.91 9.36 23.03C9.61 22.8 9.83 22.54 10.01 22.25L10.01 22.25ZM9.71 31.26L0.07 31.26C1.19 28.16 3.11 25.88 5.5 24.78C5.48 25.62 5.53 26.46 5.65 27.28C5.83 28.4 6.22 29.76 7.08 29.91C7.13 29.91 7.17 29.92 7.22 29.92C7.79 29.92 8.79 29.41 10.34 28.49C10.2 29.08 9.77 31.01 9.71 31.26L9.71 31.26ZM8.48 28.65C7.49 29.16 7.24 29.15 7.21 29.14C7.01 29.11 6.64 28.55 6.42 27.17C6.22 25.87 6.22 24.23 6.43 22.79C6.44 22.73 6.48 22.67 6.55 22.64L7.99 21.91C8.05 21.88 8.12 21.88 8.18 21.91C8.24 21.94 8.27 21.99 8.29 22.05C8.58 23.64 9.69 25.87 10.59 27.17L10.59 27.17C10.62 27.2 10.63 27.25 10.63 27.3C10.62 27.33 10.62 27.36 10.61 27.39L10.61 27.39C10.59 27.42 10.56 27.45 10.53 27.47L10.35 27.58C9.83 27.89 9.12 28.32 8.48 28.65L8.48 28.65ZM10.51 31.26C10.55 31.06 11.18 28.25 11.34 27.64C11.36 27.59 11.37 27.54 11.38 27.49C11.43 27.26 11.39 27.01 11.27 26.8C12.5 27.27 13.86 27.27 15.1 26.81C14.98 27.01 14.94 27.26 14.99 27.49C15 27.54 15.02 27.59 15.04 27.64C15.2 28.25 15.83 31.06 15.87 31.26L10.51 31.26ZM15.85 27.47L15.85 27.47C15.82 27.45 15.79 27.42 15.77 27.39C15.76 27.35 15.75 27.32 15.75 27.29C15.75 27.25 15.76 27.2 15.79 27.17C16.69 25.87 17.8 23.64 18.09 22.05C18.1 21.99 18.14 21.93 18.2 21.91C18.23 21.89 18.26 21.89 18.3 21.89C18.33 21.89 18.36 21.89 18.39 21.91L19.83 22.64L19.83 22.64C19.89 22.67 19.94 22.72 19.95 22.79C20.16 24.23 20.16 25.87 19.96 27.17C19.74 28.55 19.37 29.11 19.17 29.14C19.14 29.15 18.89 29.16 17.89 28.65C17.26 28.32 16.55 27.89 16.03 27.58L15.85 27.47ZM16.67 31.26C16.61 31.01 16.18 29.08 16.04 28.49C17.59 29.41 18.59 29.92 19.16 29.92L19.16 29.92C19.21 29.92 19.25 29.91 19.3 29.91C20.16 29.76 20.55 28.4 20.72 27.28C20.85 26.46 20.9 25.62 20.88 24.78C23.27 25.88 25.18 28.16 26.31 31.26L16.67 31.26Z" fill="#006D77" fill-opacity="1.000000" fill-rule="nonzero"/>
</svg>
