<svg width="20.000000" height="17.000000" viewBox="0 0 20 17" fill="none" xmlns="http://www.w3.org/2000/svg" xmlns:xlink="http://www.w3.org/1999/xlink">
	<desc>
			Created with Pixso.
	</desc>
	<defs/>
	<path id="Vector" d="M8.27 14.74L0.9 14.74C0.85 14.74 0.8 14.72 0.76 14.68C0.73 14.64 0.71 14.59 0.71 14.54L0.71 2.52L0 2.52L0 15.4L8.13 15.4C8.43 15.4 8.72 15.55 8.91 15.79C9.02 15.94 9.2 16.03 9.38 16.03L9.75 16.03C9.65 15.3 9.03 14.74 8.27 14.74L8.27 14.74Z" fill="#006D77" fill-opacity="1.000000" fill-rule="nonzero"/>
	<path id="Vector" d="M7.62 14.12L2.36 12.85C2.27 12.83 2.21 12.75 2.21 12.66L2.21 1.7L1.09 1.7L1.09 2.34L1.09 14.35L8.26 14.35C8.07 14.27 7.86 14.19 7.62 14.12L7.62 14.12Z" fill="#006D77" fill-opacity="1.000000" fill-rule="nonzero"/>
	<path id="Vector" d="M8.13 1.33C6.85 0.96 3.51 0.2 2.59 0L2.59 12.51L7.71 13.75C8.83 14.06 9.43 14.56 9.76 15.04L9.76 3.07C9.74 2.14 8.75 1.51 8.13 1.33L8.13 1.33Z" fill="#006D77" fill-opacity="1.000000" fill-rule="nonzero"/>
	<path id="Vector" d="M19.2 2.52L19.2 14.54C19.2 14.65 19.11 14.74 19.01 14.74L11.64 14.74C10.88 14.74 10.25 15.3 10.16 16.03L10.53 16.03C10.71 16.03 10.89 15.94 11 15.79C11.18 15.55 11.48 15.4 11.78 15.4L19.91 15.4L19.91 2.52L19.2 2.52Z" fill="#006D77" fill-opacity="1.000000" fill-rule="nonzero"/>
	<path id="Vector" d="M11.64 14.35L18.82 14.35L18.82 1.7L17.7 1.7L17.7 12.66C17.7 12.75 17.64 12.83 17.55 12.85L12.29 14.13C12.05 14.19 11.83 14.27 11.64 14.35L11.64 14.35Z" fill="#006D77" fill-opacity="1.000000" fill-rule="nonzero"/>
	<path id="Vector" d="M12.19 13.75L17.31 12.51L17.31 0C16.4 0.2 13.06 0.96 11.78 1.33C11.16 1.51 10.17 2.14 10.15 3.08L10.15 15.04C10.47 14.56 11.08 14.06 12.19 13.75L12.19 13.75Z" fill="#006D77" fill-opacity="1.000000" fill-rule="nonzero"/>
</svg>
