<svg width="19.000000" height="16.000000" viewBox="0 0 19 16" fill="none" xmlns="http://www.w3.org/2000/svg" xmlns:xlink="http://www.w3.org/1999/xlink">
	<desc>
			Created with Pixso.
	</desc>
	<defs/>
	<path id="Vector" d="M0 11.76C0 12.29 0.43 12.72 0.96 12.72L6.75 12.72L6.75 12.72L17.57 12.72C18.1 12.72 18.53 12.29 18.53 11.76L18.53 10.9L0 10.9L0 11.76Z" fill="#006D77" fill-opacity="1.000000" fill-rule="nonzero"/>
	<path id="Vector" d="M17.57 0L0.96 0C0.43 0 0 0.43 0 0.96L0 10.37L18.53 10.37L18.53 0.96C18.53 0.43 18.1 0 17.57 0L17.57 0Z" fill="#006D77" fill-opacity="1.000000" fill-rule="nonzero"/>
	<path id="Vector" d="M15.77 15.47L12.09 15.47L11.57 13.25L6.95 13.25L6.43 15.47L5.89 15.47L2.75 15.47C2.61 15.47 2.49 15.58 2.49 15.73C2.49 15.88 2.61 16 2.75 16L6.1 16L6.1 16L6.1 16L12.42 16L12.42 16L12.42 16L15.77 16C15.91 16 16.03 15.88 16.03 15.73C16.03 15.58 15.91 15.47 15.77 15.47L15.77 15.47Z" fill="#006D77" fill-opacity="1.000000" fill-rule="nonzero"/>
</svg>
