<svg width="16.000000" height="16.000000" viewBox="0 0 16 16" fill="none" xmlns="http://www.w3.org/2000/svg" xmlns:xlink="http://www.w3.org/1999/xlink">
	<desc>
			Created with Pixso.
	</desc>
	<defs/>
	<path id="Vector" d="M7.96 0C3.56 0 0 3.59 0 8.02C0 12.04 2.94 15.37 6.77 15.95L6.77 10.15L4.8 10.15L4.8 8.04L6.77 8.04L6.77 6.63C6.77 4.31 7.89 3.29 9.81 3.29C10.73 3.29 11.22 3.36 11.45 3.39L11.45 5.23L10.14 5.23C9.32 5.23 9.04 6.01 9.04 6.88L9.04 8.04L11.43 8.04L11.1 10.15L9.04 10.15L9.04 15.96C12.93 15.43 15.93 12.08 15.93 8.02C15.93 3.59 12.36 0 7.96 0Z" fill="#444E62" fill-opacity="1.000000" fill-rule="nonzero"/>
</svg>
