<svg width="14.000000" height="13.000000" viewBox="0 0 14 13" fill="none" xmlns="http://www.w3.org/2000/svg" xmlns:xlink="http://www.w3.org/1999/xlink">
	<desc>
			Created with Pixso.
	</desc>
	<defs/>
	<path id="Vector" d="M3.5 -0.73C1.25 -0.73 -0.59 1.03 -0.59 3.18L-0.59 8.77C-0.59 10.93 1.25 12.68 3.5 12.68L9.35 12.68C11.6 12.68 13.43 10.93 13.43 8.77L13.43 3.18C13.43 1.03 11.6 -0.73 9.34 -0.73L3.5 -0.73ZM10.63 1.42C10.94 1.42 11.19 1.66 11.19 1.95C11.19 2.25 10.94 2.49 10.63 2.49C10.32 2.49 10.07 2.25 10.07 1.95C10.07 1.66 10.32 1.42 10.63 1.42ZM6.42 2.49C8.43 2.49 10.07 4.06 10.07 5.98C10.07 7.9 8.43 9.47 6.42 9.47C4.41 9.47 2.78 7.9 2.78 5.98C2.78 4.06 4.41 2.49 6.42 2.49ZM6.42 3.56C5.03 3.56 3.9 4.64 3.9 5.98C3.9 7.31 5.03 8.39 6.42 8.39C7.82 8.39 8.95 7.31 8.95 5.98C8.95 4.64 7.82 3.56 6.42 3.56Z" fill="#444E62" fill-opacity="1.000000" fill-rule="nonzero"/>
</svg>
