<svg width="51.000000" height="51.000000" viewBox="0 0 51 51" fill="none" xmlns="http://www.w3.org/2000/svg" xmlns:xlink="http://www.w3.org/1999/xlink">
	<desc>
			Created with Pixso.
	</desc>
	<defs/>
	<path id="Vector" d="M16.79 36.83C16.57 36.83 16.35 36.76 16.16 36.62C12.52 33.85 10.42 29.62 10.42 25.03C10.42 16.97 16.97 10.42 25.02 10.42C33.08 10.42 39.63 16.97 39.63 25.03C39.63 29.62 37.53 33.85 33.88 36.62C33.54 36.88 33.08 36.9 32.72 36.68C32.35 36.46 32.16 36.04 32.22 35.62C32.29 35.21 32.33 34.8 32.33 34.41C32.33 30.39 29.05 27.11 25.02 27.11C21 27.11 17.72 30.39 17.72 34.41C17.72 34.8 17.76 35.21 17.83 35.62C17.89 36.04 17.7 36.46 17.33 36.68C17.17 36.78 16.98 36.83 16.79 36.83L16.79 36.83ZM25.02 12.51C18.12 12.51 12.51 18.12 12.51 25.03C12.51 28.17 13.65 31.11 15.7 33.37C16.21 28.68 20.2 25.03 25.02 25.03C29.85 25.03 33.83 28.68 34.35 33.37C36.4 31.11 37.54 28.17 37.54 25.03C37.54 18.12 31.93 12.51 25.02 12.51Z" fill="#101828" fill-opacity="1.000000" fill-rule="nonzero"/>
	<path id="Vector" d="M25.02 39.63C21.79 39.63 18.73 38.59 16.16 36.62C15.95 36.45 15.81 36.22 15.77 35.96C15.68 35.43 15.64 34.91 15.64 34.41C15.64 29.24 19.85 25.03 25.02 25.03C30.2 25.03 34.41 29.24 34.41 34.41C34.41 34.91 34.37 35.43 34.28 35.96C34.24 36.22 34.1 36.46 33.89 36.62C31.32 38.59 28.26 39.63 25.02 39.63L25.02 39.63ZM17.77 35.21C19.9 36.74 22.4 37.54 25.02 37.54C27.65 37.54 30.15 36.74 32.28 35.21C32.31 34.94 32.33 34.67 32.33 34.41C32.33 30.39 29.05 27.11 25.03 27.11C21 27.11 17.72 30.39 17.72 34.41C17.72 34.67 17.74 34.94 17.77 35.21L17.77 35.21ZM33.25 35.79L33.26 35.79L33.25 35.79Z" fill="#101828" fill-opacity="1.000000" fill-rule="nonzero"/>
	<path id="Vector" d="M25.03 27.11C22.15 27.11 19.81 24.77 19.81 21.9C19.81 19.02 22.15 16.68 25.03 16.68C27.9 16.68 30.24 19.02 30.24 21.9C30.24 24.77 27.9 27.11 25.03 27.11ZM25.03 18.77C23.3 18.77 21.9 20.17 21.9 21.9C21.9 23.62 23.3 25.03 25.03 25.03C26.75 25.03 28.16 23.62 28.16 21.9C28.16 20.17 26.75 18.77 25.03 18.77Z" fill="#101828" fill-opacity="1.000000" fill-rule="nonzero"/>
	<path id="Vector" d="M5.21 10.43C2.33 10.43 0 8.09 0 5.21C0 2.33 2.33 0 5.21 0C8.09 0 10.43 2.33 10.43 5.21C10.43 8.09 8.09 10.43 5.21 10.43ZM5.21 2.08C3.48 2.08 2.08 3.48 2.08 5.21C2.08 6.94 3.48 8.34 5.21 8.34C6.94 8.34 8.34 6.94 8.34 5.21C8.34 3.49 6.94 2.08 5.21 2.08L5.21 2.08Z" fill="#101828" fill-opacity="1.000000" fill-rule="nonzero"/>
	<path id="Vector" d="M44.84 10.43C41.97 10.43 39.63 8.09 39.63 5.21C39.63 2.33 41.97 0 44.84 0C47.72 0 50.06 2.33 50.06 5.21C50.06 8.09 47.72 10.43 44.84 10.43ZM44.84 2.08C43.12 2.08 41.72 3.48 41.72 5.21C41.72 6.94 43.12 8.34 44.84 8.34C46.57 8.34 47.97 6.94 47.97 5.21C47.97 3.49 46.57 2.08 44.84 2.08Z" fill="#101828" fill-opacity="1.000000" fill-rule="nonzero"/>
	<path id="Vector" d="M5.21 50.06C2.33 50.06 0 47.72 0 44.84C0 41.97 2.33 39.63 5.21 39.63C8.09 39.63 10.43 41.97 10.43 44.84C10.43 47.72 8.09 50.06 5.21 50.06ZM5.21 41.71C3.48 41.71 2.08 43.12 2.08 44.84C2.08 46.57 3.48 47.97 5.21 47.97C6.94 47.97 8.34 46.57 8.34 44.84C8.34 43.12 6.94 41.71 5.21 41.71Z" fill="#101828" fill-opacity="1.000000" fill-rule="nonzero"/>
	<path id="Vector" d="M44.84 50.06C41.97 50.06 39.63 47.72 39.63 44.84C39.63 41.97 41.97 39.63 44.84 39.63C47.72 39.63 50.06 41.97 50.06 44.84C50.06 47.72 47.72 50.06 44.84 50.06ZM44.84 41.71C43.12 41.71 41.72 43.12 41.72 44.84C41.72 46.57 43.12 47.97 44.84 47.97C46.57 47.97 47.97 46.57 47.97 44.84C47.97 43.12 46.57 41.71 44.84 41.71Z" fill="#101828" fill-opacity="1.000000" fill-rule="nonzero"/>
	<path id="Vector" d="M34.62 16.48C34.35 16.48 34.08 16.38 33.88 16.18C33.47 15.77 33.47 15.11 33.88 14.7L40.98 7.6C41.39 7.19 42.05 7.19 42.45 7.6C42.86 8.01 42.86 8.67 42.45 9.08L35.35 16.18C35.15 16.38 34.88 16.48 34.62 16.48L34.62 16.48Z" fill="#101828" fill-opacity="1.000000" fill-rule="nonzero"/>
	<path id="Vector" d="M15.44 16.48C15.17 16.48 14.9 16.38 14.7 16.17L7.6 9.08C7.19 8.67 7.19 8.01 7.6 7.6C8.01 7.19 8.67 7.19 9.08 7.6L16.17 14.7C16.58 15.11 16.58 15.77 16.17 16.17C15.97 16.38 15.7 16.48 15.44 16.48L15.44 16.48Z" fill="#101828" fill-opacity="1.000000" fill-rule="nonzero"/>
	<path id="Vector" d="M41.72 42.76C41.44 42.76 41.16 42.65 40.96 42.43L34.04 35.13C33.65 34.71 33.66 34.05 34.08 33.66C34.5 33.26 35.16 33.28 35.56 33.7L42.47 41C42.87 41.42 42.85 42.08 42.43 42.47C42.23 42.66 41.97 42.76 41.72 42.76L41.72 42.76Z" fill="#101828" fill-opacity="1.000000" fill-rule="nonzero"/>
	<path id="Vector" d="M8.34 42.76C8.07 42.76 7.81 42.66 7.6 42.45C7.19 42.04 7.19 41.38 7.6 40.98L14.7 33.88C15.11 33.47 15.77 33.47 16.17 33.88C16.58 34.29 16.58 34.95 16.17 35.36L9.08 42.45C8.87 42.66 8.61 42.76 8.34 42.76L8.34 42.76Z" fill="#101828" fill-opacity="1.000000" fill-rule="nonzero"/>
</svg>
