<svg width="51.000000" height="51.000000" viewBox="0 0 51 51" fill="none" xmlns="http://www.w3.org/2000/svg" xmlns:xlink="http://www.w3.org/1999/xlink">
	<desc>
			Created with Pixso.
	</desc>
	<defs/>
	<path id="Vector" d="M42.13 37.19C44.68 33.65 46.03 29.44 46.03 25.02C46.09 19.35 43.95 14.04 40 10.09C35.99 6.03 30.74 3.84 25.07 3.84C13.52 3.84 4.05 13.31 4.05 24.86C4.05 36.41 13.47 45.88 25.07 45.88C27.1 45.88 29.02 45.62 30.84 45.05L30.95 44.99L30.53 42.91L30.38 42.96C28.61 43.49 26.79 43.8 24.97 43.8C14.56 43.8 6.08 35.32 6.08 24.91C6.08 14.51 14.56 6.03 24.97 6.03C35.37 6.03 43.85 14.51 43.85 24.91C43.85 28.92 42.6 32.77 40.21 36.1L40.21 36.2L42.03 37.24L42.13 37.19Z" fill="#101828" fill-opacity="1.000000" fill-rule="nonzero"/>
	<path id="Vector" d="M42.86 7.38C38.13 2.6 31.78 0 25.07 0C22.73 0 20.49 0.31 18.36 0.93L18.25 0.98L18.62 2.91L18.77 2.86C20.86 2.28 22.99 1.97 25.07 1.97C37.81 1.97 48.22 12.32 48.22 25.12C48.22 37.92 37.81 48.22 25.07 48.22C12.32 48.17 1.97 37.76 1.97 25.02C1.97 20.18 3.43 15.6 6.24 11.65L6.34 11.54L4.63 10.55L4.57 10.66C1.56 14.87 0 19.87 0 25.07C0 38.85 11.23 50.09 25.02 50.09C38.86 50.09 50.14 38.85 50.14 25.07C50.14 18.41 47.59 12.12 42.86 7.38L42.86 7.38Z" fill="#101828" fill-opacity="1.000000" fill-rule="nonzero"/>
	<path id="Vector" d="M21.01 17.73L20.23 17.73C16.75 17.73 13.94 20.54 13.94 24.03C13.94 27.46 17.01 29.75 17.11 29.86C17.27 29.96 17.37 30.12 17.37 30.22L17.37 34.38C17.37 35.58 18.31 36.51 19.5 36.62C19.76 36.88 20.02 37.03 20.34 37.14L20.86 37.14C21.12 37.03 21.38 36.88 21.53 36.72C22.73 36.72 23.66 35.68 23.66 34.49L23.66 30.32C23.66 30.22 23.82 30.06 24.03 29.96C24.19 29.86 27.2 27.57 27.2 24.13C27.36 20.54 24.44 17.73 21.01 17.73L21.01 17.73ZM18.2 28.29C18.2 28.29 15.81 26.42 15.81 23.93C15.81 21.43 17.79 19.5 20.23 19.5L21.01 19.5C23.51 19.5 25.43 21.48 25.43 23.93C25.43 26.32 23.3 28.03 23.04 28.19C22.88 28.3 21.95 28.97 21.95 29.96L21.95 31.31L19.19 31.31L19.19 30.01C19.24 29.02 18.2 28.3 18.2 28.3L18.2 28.29ZM22.05 33.29L22.05 34.38C22.05 34.54 21.9 34.75 21.69 34.75L19.66 34.75C19.5 34.75 19.29 34.59 19.29 34.38L19.29 33.29L22.05 33.29Z" fill="#101828" fill-opacity="1.000000" fill-rule="nonzero"/>
	<path id="Vector" d="M20.6 25.54L21.69 26.11C21.79 26.11 21.84 26.21 21.95 26.21C22.05 26.21 22.21 26.21 22.26 26.11C22.42 26.01 22.52 25.8 22.52 25.59L22.26 24.34L23.2 23.51C23.35 23.35 23.35 23.2 23.35 22.94C23.25 22.78 23.09 22.62 22.94 22.62L21.69 22.47L21.12 21.38C21.01 21.22 20.86 21.12 20.59 21.12C20.33 21.12 20.18 21.22 20.07 21.38L19.5 22.47L18.25 22.62C18.1 22.62 17.84 22.78 17.84 22.94C17.73 23.09 17.84 23.35 17.99 23.51L18.93 24.34L18.67 25.59C18.67 25.75 18.77 26.01 18.93 26.11C19.09 26.21 19.35 26.27 19.5 26.21L20.6 25.54Z" fill="#101828" fill-opacity="1.000000" fill-rule="nonzero"/>
	<path id="Vector" d="M32.61 16.38L29.86 16.38C29.49 16.38 29.13 16.75 29.13 17.11L29.02 19.92C29.02 20.13 29.07 20.34 29.23 20.49C29.39 20.65 29.54 20.7 29.75 20.7C29.96 20.7 30.12 20.6 30.32 20.49C30.48 20.34 30.53 20.18 30.53 19.97L30.58 18.83L30.89 19.14C32.56 20.8 32.56 23.4 30.89 25.07L29.39 26.63C27.36 28.66 27.15 32.04 29.02 34.28C28.5 35.21 28.71 36.41 29.44 37.14C30.38 38.07 31.94 38.07 32.92 37.14C33.91 36.2 33.86 34.64 32.92 33.65C32.2 32.92 31.05 32.72 30.12 33.18C28.81 31.52 28.97 29.13 30.43 27.67L31.88 26.21C34.12 23.98 34.07 20.39 31.88 18.2L31.68 18L32.61 18C32.82 18 32.98 17.89 33.13 17.79C33.29 17.63 33.34 17.48 33.34 17.27C33.34 17.06 33.24 16.9 33.13 16.75C32.98 16.49 32.77 16.38 32.61 16.38L32.61 16.38ZM31.94 36.05C31.57 36.41 30.95 36.41 30.58 36.05C30.22 35.68 30.22 35.06 30.58 34.69C30.95 34.33 31.57 34.33 31.94 34.69C32.35 35.11 32.3 35.68 31.94 36.05Z" fill="#101828" fill-opacity="1.000000" fill-rule="nonzero"/>
	<path id="Vector" d="M37.09 28.24C37.09 28.03 37.03 27.88 36.88 27.72C36.77 27.62 36.57 27.51 36.36 27.51C36.15 27.51 35.99 27.57 35.84 27.72L34.95 28.61L34.07 27.72C33.96 27.62 33.76 27.51 33.55 27.51C33.34 27.51 33.18 27.57 33.03 27.72C32.92 27.83 32.82 28.03 32.82 28.24C32.82 28.45 32.87 28.61 33.08 28.76L33.96 29.6L33.08 30.43C32.98 30.53 32.87 30.74 32.82 30.95C32.82 31.16 32.87 31.31 33.03 31.47C33.13 31.57 33.34 31.68 33.55 31.68C33.76 31.68 33.91 31.62 34.07 31.47L35.06 30.58L35.94 31.47C36.05 31.57 36.25 31.68 36.46 31.68C36.67 31.68 36.83 31.62 36.98 31.47C37.24 31.16 37.24 30.69 36.98 30.43L36.1 29.6L36.98 28.76C37.03 28.61 37.09 28.5 37.09 28.24L37.09 28.24Z" fill="#101828" fill-opacity="1.000000" fill-rule="nonzero"/>
	<path id="Vector" d="M23.3 15.91C23.3 16.12 23.35 16.28 23.51 16.43C23.61 16.54 23.82 16.64 24.03 16.64C24.24 16.64 24.39 16.59 24.55 16.43L25.54 15.55L26.42 16.43C26.53 16.54 26.73 16.64 26.94 16.64C27.15 16.64 27.31 16.59 27.46 16.43C27.57 16.33 27.67 16.12 27.67 15.91C27.67 15.71 27.62 15.55 27.41 15.39L26.53 14.56L27.41 13.73C27.72 13.47 27.72 12.95 27.41 12.69C27.31 12.58 27.1 12.48 26.89 12.48C26.68 12.48 26.53 12.53 26.37 12.69L25.43 13.62L24.55 12.74C24.44 12.64 24.24 12.53 24.03 12.53C23.82 12.53 23.66 12.58 23.51 12.74C23.4 12.84 23.3 13.05 23.3 13.26C23.3 13.47 23.35 13.62 23.56 13.78L24.44 14.61L23.56 15.39C23.35 15.55 23.3 15.76 23.3 15.91L23.3 15.91Z" fill="#101828" fill-opacity="1.000000" fill-rule="nonzero"/>
</svg>
