<svg width="18.000000" height="16.000000" viewBox="0 0 18 16" fill="none" xmlns="http://www.w3.org/2000/svg" xmlns:xlink="http://www.w3.org/1999/xlink">
	<desc>
			Created with Pixso.
	</desc>
	<defs/>
	<path id="Vector" d="M18 13.33L18 14C17.99 14.52 17.77 15.03 17.38 15.41C17 15.78 16.47 15.99 15.92 16L2.07 16C1.52 15.99 0.99 15.78 0.61 15.41C0.22 15.03 0 14.52 0 14L0 13.33C0 13.15 0.07 12.98 0.2 12.86C0.33 12.73 0.5 12.66 0.69 12.66L6.92 12.66L6.92 14L11.07 14L11.07 12.66L17.3 12.66C17.49 12.66 17.66 12.73 17.79 12.86C17.92 12.98 17.99 13.15 18 13.33L18 13.33ZM6.92 11.33L0.69 11.33L0.69 2C0.69 1.47 0.91 0.96 1.3 0.58C1.69 0.21 2.21 0 2.76 0L15.23 0C15.78 0 16.3 0.21 16.69 0.58C17.08 0.96 17.3 1.47 17.3 2L17.3 11.33L11.07 11.33C10.71 11.33 10.35 11.47 10.09 11.72C9.83 11.97 9.69 12.31 9.69 12.66L8.3 12.66C8.3 12.31 8.16 11.97 7.9 11.72C7.64 11.47 7.29 11.33 6.92 11.33ZM3.46 3.33C3.46 3.51 3.53 3.67 3.66 3.8C3.79 3.92 3.97 3.99 4.15 4L13.84 4C14.09 4 14.32 3.87 14.44 3.66C14.56 3.46 14.56 3.2 14.44 3C14.32 2.79 14.09 2.66 13.84 2.66L4.15 2.66C3.97 2.66 3.79 2.73 3.66 2.86C3.53 2.98 3.46 3.15 3.46 3.33L3.46 3.33ZM4.15 6.66L13.84 6.66C14.09 6.66 14.32 6.53 14.44 6.33C14.56 6.12 14.56 5.87 14.44 5.66C14.32 5.46 14.09 5.33 13.84 5.33L4.15 5.33C3.9 5.33 3.67 5.46 3.55 5.66C3.43 5.87 3.43 6.12 3.55 6.33C3.67 6.53 3.9 6.66 4.15 6.66Z" fill="#006D77" fill-opacity="1.000000" fill-rule="nonzero"/>
</svg>
