<svg width="13.000000" height="13.000000" viewBox="0 0 13 13" fill="none" xmlns="http://www.w3.org/2000/svg" xmlns:xlink="http://www.w3.org/1999/xlink">
	<desc>
			Created with Pixso.
	</desc>
	<defs/>
	<path id="Vector" d="M13 -0.73L-0.39 -0.73L-0.39 12.68L13 12.68L13 -0.73ZM4.07 9.7L2.2 9.7L2.2 4.49L4.07 4.49L4.07 9.7ZM3.1 3.53C2.53 3.53 2.14 3.15 2.14 2.64C2.14 2.13 2.53 1.74 3.16 1.74C3.74 1.74 4.12 2.13 4.12 2.64C4.12 3.15 3.74 3.53 3.1 3.53ZM10.76 9.7L8.95 9.7L8.95 6.85C8.95 6.06 8.46 5.88 8.28 5.88C8.1 5.88 7.5 6 7.5 6.85C7.5 6.97 7.5 9.7 7.5 9.7L5.62 9.7L5.62 4.49L7.5 4.49L7.5 5.22C7.74 4.79 8.22 4.49 9.13 4.49C10.04 4.49 10.76 5.22 10.76 6.85L10.76 9.7Z" fill="#444E62" fill-opacity="1.000000" fill-rule="nonzero"/>
</svg>
