<svg width="26.000000" height="23.000000" viewBox="0 0 26 23" fill="none" xmlns="http://www.w3.org/2000/svg" xmlns:xlink="http://www.w3.org/1999/xlink">
	<desc>
			Created with Pixso.
	</desc>
	<defs/>
	<path id="Vector" d="M18.22 4.73C18.22 1.78 15.81 -0.63 12.87 -0.63C9.92 -0.63 7.51 1.78 7.51 4.73C7.51 7.67 9.92 10.08 12.87 10.08C15.81 10.08 18.22 7.67 18.22 4.73ZM8.75 4.73L11.32 3.23C11.73 2.98 12.25 3.29 12.25 3.76L12.25 4.73C12.25 5.08 12.52 5.35 12.87 5.35L16.92 5.35C16.63 7.32 14.92 8.85 12.87 8.85C10.6 8.85 8.75 6.99 8.75 4.73L8.75 4.73Z" fill="#FFFFFF" fill-opacity="1.000000" fill-rule="nonzero"/>
	<path id="Vector" d="M23.29 15.58C23.12 15.29 22.73 15.19 22.44 15.36C22.15 15.52 22.05 15.91 22.22 16.2L24.44 20.03C24.54 20.19 24.6 20.38 24.6 20.59C24.6 21.16 24.15 21.62 23.57 21.62L20.55 21.62L21.21 13.73C21.25 13.21 21.08 12.7 20.73 12.33C20.38 11.96 19.87 11.73 19.35 11.73L6.21 11.73C5.7 11.73 5.18 11.96 4.83 12.35C4.48 12.74 4.32 13.25 4.36 13.79L5.18 21.64L2.16 21.64C1.58 21.64 1.13 21.18 1.13 20.61C1.13 20.42 1.19 20.24 1.27 20.07C1.29 20.05 3.52 16.22 3.52 16.22C3.68 15.93 3.58 15.54 3.29 15.38C3 15.21 2.61 15.31 2.45 15.6L0.26 19.35C0.02 19.72 -0.11 20.15 -0.11 20.59C-0.11 21.84 0.9 22.85 2.16 22.85L5.86 22.85L5.93 22.85L11.61 22.85L11.63 22.85L23.57 22.85C24.83 22.85 25.84 21.84 25.84 20.59C25.84 20.15 25.72 19.72 25.47 19.35L23.29 15.58L23.29 15.58ZM12.66 18.32C11.98 18.32 11.42 17.76 11.42 17.09C11.42 16.41 11.98 15.85 12.66 15.85C13.34 15.85 13.9 16.41 13.9 17.09C13.9 17.76 13.34 18.32 12.66 18.32Z" fill="#FFFFFF" fill-opacity="1.000000" fill-rule="nonzero"/>
</svg>
