<svg width="55.000000" height="50.000000" viewBox="0 0 55 50" fill="none" xmlns="http://www.w3.org/2000/svg" xmlns:xlink="http://www.w3.org/1999/xlink">
	<desc>
			Created with Pixso.
	</desc>
	<defs/>
	<path id="Vector" d="M26.72 0C20.59 0 14.72 2.44 10.38 6.77C6.05 11.11 3.61 16.98 3.6 23.11L3.6 26.62C2.35 27.14 1.28 28.02 0.52 29.14C-0.23 30.27 -0.64 31.59 -0.64 32.95L-0.64 41.79C-0.64 43.6 0.08 45.34 1.37 46.62C2.65 47.91 4.39 48.63 6.2 48.63L8.57 48.63L8.57 48.57C9.42 49.45 10.59 49.95 11.82 49.97C13.04 49.98 14.22 49.51 15.09 48.65C15.96 47.79 16.46 46.62 16.46 45.39L16.46 29.35C16.46 28.11 15.97 26.93 15.09 26.07C14.22 25.2 13.03 24.73 11.8 24.74C10.57 24.76 9.39 25.27 8.54 26.16L8.54 26.11L6.34 26.11L6.34 23.11C6.34 17.71 8.49 12.52 12.31 8.7C16.13 4.88 21.32 2.73 26.72 2.73C32.13 2.73 37.31 4.88 41.14 8.7C44.96 12.52 47.11 17.71 47.11 23.11L47.11 26.11L44.89 26.11L44.89 26.16L44.89 26.16C44.04 25.28 42.87 24.77 41.64 24.76C40.41 24.74 39.23 25.22 38.35 26.08C37.48 26.94 36.98 28.12 36.98 29.35L36.98 45.39C36.98 46.62 37.47 47.81 38.35 48.67C39.23 49.54 40.42 50.01 41.65 49.99C42.88 49.98 44.05 49.46 44.9 48.57L44.9 48.63L47.24 48.63C49.06 48.63 50.8 47.91 52.08 46.62C53.36 45.34 54.08 43.6 54.08 41.79L54.08 32.95C54.08 31.59 53.68 30.27 52.92 29.14C52.16 28.01 51.08 27.14 49.83 26.62L49.83 23.11C49.82 16.99 47.38 11.11 43.05 6.78C38.72 2.45 32.85 0.01 26.72 0L26.72 0ZM10.01 29.35C10.01 28.68 10.36 28.06 10.94 27.73C11.52 27.4 12.23 27.39 12.81 27.73C13.39 28.06 13.74 28.68 13.74 29.35L13.74 45.39C13.74 46.06 13.39 46.68 12.81 47.01C12.23 47.34 11.52 47.34 10.94 47.01C10.36 46.68 10.01 46.06 10.01 45.39L10.01 29.35ZM7.27 45.89L6.2 45.89C5.12 45.89 4.07 45.45 3.3 44.68C2.53 43.91 2.1 42.87 2.1 41.78L2.1 32.95C2.1 31.86 2.53 30.82 3.3 30.05C4.07 29.28 5.12 28.85 6.2 28.85L7.3 28.85C7.29 29.01 7.29 29.18 7.3 29.35L7.3 45.39C7.29 45.56 7.29 45.73 7.3 45.89L7.27 45.89ZM43.41 45.39L43.41 45.39C43.41 46.05 43.05 46.67 42.47 47C41.9 47.34 41.18 47.34 40.61 47C40.03 46.67 39.67 46.05 39.67 45.39L39.67 29.35C39.67 28.68 40.03 28.06 40.61 27.73C41.18 27.4 41.9 27.4 42.47 27.73C43.05 28.06 43.41 28.68 43.41 29.35L43.41 45.39ZM51.35 32.95L51.35 41.79C51.35 42.88 50.92 43.92 50.15 44.69C49.38 45.46 48.33 45.89 47.24 45.89L46.15 45.89C46.16 45.73 46.16 45.56 46.15 45.39L46.15 29.35C46.16 29.18 46.16 29.01 46.15 28.85L47.24 28.85C48.33 28.85 49.38 29.28 50.15 30.05C50.92 30.82 51.35 31.86 51.35 32.95L51.35 32.95Z" fill="#101828" fill-opacity="1.000000" fill-rule="nonzero"/>
</svg>
