<svg width="61.000000" height="50.000000" viewBox="0 0 61 50" fill="none" xmlns="http://www.w3.org/2000/svg" xmlns:xlink="http://www.w3.org/1999/xlink">
	<desc>
			Created with Pixso.
	</desc>
	<defs/>
	<path id="Vector" d="M35.31 23.4C35.95 22.69 35.89 21.67 35.25 21.03C34.55 20.39 33.52 20.46 32.88 21.09L28.98 25.25L27.26 23.4C26.62 22.69 25.6 22.69 24.89 23.33C24.19 23.97 24.19 25 24.83 25.7L27.77 28.9C28.09 29.22 28.54 29.41 28.98 29.41C29.43 29.41 29.88 29.22 30.2 28.9L35.31 23.4Z" fill="#101828" fill-opacity="1.000000" fill-rule="nonzero"/>
	<path id="Vector" d="M59.93 23.01C59.29 22.37 58.2 22.37 57.56 23.01L55.01 25.57L55.01 25C55.01 11.25 43.82 0 30.01 0C22.08 0 14.53 3.83 9.8 10.29C9.23 11.06 9.42 12.08 10.19 12.65C10.95 13.23 11.98 13.04 12.55 12.27C16.64 6.71 23.17 3.38 30.07 3.38C42.03 3.38 51.68 13.1 51.68 25L51.68 25.51L49.13 22.95C48.49 22.31 47.4 22.31 46.76 22.95C46.12 23.59 46.12 24.68 46.76 25.31L52.13 30.69C52.45 31.01 52.9 31.2 53.35 31.2C53.79 31.2 54.18 31.01 54.56 30.69L59.93 25.31C60.63 24.68 60.63 23.65 59.93 23.01L59.93 23.01Z" fill="#101828" fill-opacity="1.000000" fill-rule="nonzero"/>
	<path id="Vector" d="M47.53 37.72C43.5 43.28 36.98 46.61 30.07 46.61C18.11 46.61 8.46 36.89 8.46 25L8.46 24.48L11.02 27.04C11.34 27.36 11.78 27.55 12.23 27.55C12.68 27.55 13.06 27.36 13.45 27.04C14.09 26.4 14.09 25.31 13.45 24.68L7.95 19.24C7.31 18.6 6.22 18.6 5.58 19.24L0.21 24.61C-0.43 25.25 -0.43 26.34 0.21 26.98C0.85 27.62 1.94 27.62 2.58 26.98L5.13 24.42L5.13 25C5.13 38.74 16.32 50 30.13 50C38.06 50 45.61 46.16 50.34 39.7C50.91 38.93 50.72 37.91 49.96 37.34C49.12 36.82 48.1 36.95 47.53 37.72L47.53 37.72Z" fill="#101828" fill-opacity="1.000000" fill-rule="nonzero"/>
	<path id="Vector" d="M42.92 25C42.92 17.9 37.17 12.14 30.07 12.14C22.97 12.14 17.22 17.9 17.22 25C17.22 32.09 22.97 37.85 30.07 37.85C37.17 37.85 42.92 32.09 42.92 25ZM20.54 25C20.54 19.75 24.83 15.47 30.07 15.47C35.31 15.47 39.6 19.75 39.6 25C39.6 30.24 35.31 34.52 30.07 34.52C24.83 34.52 20.54 30.24 20.54 25Z" fill="#101828" fill-opacity="1.000000" fill-rule="nonzero"/>
</svg>
