<svg width="16.000000" height="16.000000" viewBox="0 0 16 16" fill="none" xmlns="http://www.w3.org/2000/svg" xmlns:xlink="http://www.w3.org/1999/xlink">
	<desc>
			Created with Pixso.
	</desc>
	<defs/>
	<path id="Vector" d="M12.06 1.78C11.66 1.78 11.27 1.94 10.99 2.22C10.48 2.73 10.41 3.51 10.76 4.1L7.41 7.51C7.24 7.69 7.24 7.97 7.42 8.14C7.52 8.24 7.65 8.28 7.78 8.27C7.88 8.26 7.97 8.21 8.05 8.14L11.43 4.69C11.63 4.78 11.84 4.83 12.06 4.83C12.47 4.83 12.86 4.67 13.14 4.38C13.74 3.79 13.74 2.82 13.14 2.22C12.85 1.94 12.47 1.78 12.06 1.78L12.06 1.78ZM12.64 3.88C12.49 4.03 12.28 4.11 12.06 4.11C11.85 4.11 11.64 4.03 11.49 3.88C11.17 3.56 11.17 3.05 11.49 2.73C11.64 2.58 11.85 2.49 12.06 2.49C12.28 2.49 12.49 2.58 12.64 2.73C12.95 3.05 12.95 3.56 12.64 3.88L12.64 3.88ZM15.54 0.53L15.53 0.35C15.52 0.17 15.37 0.03 15.2 0.02L15.02 0.01C14.99 0.01 14.82 0 14.55 0C13.27 0 10.07 0.22 7.98 2.31C7.72 2.57 7.48 2.83 7.25 3.1C6.97 2.96 6.64 2.89 6.3 2.89C5.68 2.89 5.1 3.12 4.7 3.52L2.53 5.69C2.28 5.94 2.36 6.23 2.4 6.39C2.4 6.42 2.41 6.45 2.42 6.48C2.45 6.66 2.54 6.83 2.67 6.96C2.75 7.03 2.84 7.1 2.94 7.14L4.88 7.99L2.97 9.9C2.91 9.97 2.87 10.05 2.87 10.14C2.87 10.15 2.86 10.22 2.88 10.34C2.09 10.54 0.99 11.13 0.82 12.38C0.8 12.51 0.86 12.64 0.96 12.71C1.06 12.79 1.2 12.81 1.32 12.75C1.55 12.65 1.9 12.56 2.13 12.57C1.91 12.83 1.43 13.17 0.51 13.13C0.36 13.13 0.22 13.22 0.16 13.36C0.11 13.5 0.15 13.66 0.26 13.76C0.3 13.79 0.93 14.33 1.77 14.38C1.4 14.81 0.89 15.24 0.35 15.24C0.17 15.24 0.01 15.38 0 15.56C-0.02 15.74 0.11 15.91 0.29 15.94C0.31 15.95 0.58 16 0.97 16C1.6 16 2.57 15.88 3.44 15.28C4.28 14.7 4.84 13.8 5.13 12.61C5.23 12.62 5.3 12.63 5.33 12.63C5.34 12.63 5.35 12.63 5.35 12.63C5.44 12.62 5.53 12.59 5.59 12.52L7.53 10.58L8.43 12.63C8.48 12.74 8.54 12.83 8.62 12.91C8.75 13.04 8.92 13.13 9.1 13.16C9.15 13.17 9.21 13.18 9.27 13.18C9.51 13.18 9.74 13.08 9.91 12.91L12.1 10.72C12.76 10.06 12.89 9.07 12.46 8.28C12.73 8.05 12.99 7.81 13.23 7.57C15.81 4.99 15.55 0.71 15.54 0.53L15.54 0.53ZM11.76 7.93C11.75 7.94 11.74 7.95 11.73 7.96C10.85 8.58 8.75 9.89 7.25 9.66C6.88 9.59 6.58 9.44 6.34 9.2C6.11 8.97 5.96 8.67 5.89 8.31C5.89 8.3 5.89 8.28 5.89 8.26C5.61 6.39 7.77 3.61 7.95 3.39C8.12 3.2 8.3 3 8.49 2.82C10.39 0.91 13.36 0.71 14.55 0.71C14.67 0.71 14.76 0.71 14.83 0.71C14.86 1.46 14.86 4.93 12.73 7.06C12.42 7.37 12.1 7.66 11.76 7.93L11.76 7.93Z" fill="#098591" fill-opacity="1.000000" fill-rule="nonzero"/>
</svg>
