<svg width="50.000000" height="50.000000" viewBox="0 0 50 50" fill="none" xmlns="http://www.w3.org/2000/svg" xmlns:xlink="http://www.w3.org/1999/xlink">
	<desc>
			Created with Pixso.
	</desc>
	<defs/>
	<path id="Vector" d="M38.65 32.07L43.58 32.07L43.58 33.71L38.65 33.71L38.65 32.07Z" fill="#101828" fill-opacity="1.000000" fill-rule="nonzero"/>
	<path id="Vector" d="M35.36 37L43.58 37L43.58 38.65L35.36 38.65L35.36 37Z" fill="#101828" fill-opacity="1.000000" fill-rule="nonzero"/>
	<path id="Vector" d="M35.36 41.94L43.58 41.94L43.58 43.58L35.36 43.58L35.36 41.94Z" fill="#101828" fill-opacity="1.000000" fill-rule="nonzero"/>
	<path id="Vector" d="M16.4 8.63C16.3 8.34 16.05 8.12 15.74 8.08L13.34 7.71L12.25 5.4C12.12 5.11 11.83 4.93 11.51 4.93C11.19 4.93 10.9 5.11 10.76 5.4L9.68 7.71L7.27 8.08C6.97 8.13 6.71 8.34 6.62 8.63C6.52 8.92 6.59 9.25 6.81 9.47L8.57 11.28L8.16 13.84C8.1 14.15 8.24 14.47 8.49 14.65C8.75 14.83 9.09 14.85 9.37 14.7L11.51 13.51L13.65 14.7C13.93 14.85 14.27 14.83 14.52 14.65C14.78 14.47 14.91 14.15 14.86 13.84L14.44 11.28L16.21 9.47L16.21 9.47C16.43 9.25 16.5 8.92 16.4 8.63L16.4 8.63ZM12.98 10.42L12.98 10.42C12.79 10.61 12.71 10.87 12.75 11.13L12.97 12.44L11.91 11.85C11.66 11.71 11.36 11.71 11.11 11.85L10.05 12.44L10.26 11.13C10.31 10.87 10.22 10.61 10.04 10.42L9.1 9.46L10.36 9.27C10.63 9.23 10.87 9.06 10.98 8.81L11.51 7.69L12.04 8.81C12.15 9.06 12.38 9.23 12.66 9.27L13.91 9.46L12.98 10.42Z" fill="#101828" fill-opacity="1.000000" fill-rule="nonzero"/>
	<path id="Vector" d="M32.93 8.63C32.84 8.92 32.91 9.25 33.12 9.47L34.89 11.28L34.47 13.84C34.42 14.15 34.55 14.46 34.81 14.65C35.07 14.83 35.41 14.85 35.68 14.69L37.83 13.51L39.97 14.7C40.24 14.85 40.58 14.83 40.84 14.65C41.1 14.47 41.23 14.15 41.18 13.84L40.76 11.28L42.53 9.47L42.53 9.47C42.74 9.25 42.82 8.93 42.72 8.63C42.62 8.34 42.37 8.13 42.06 8.08L39.65 7.71L38.57 5.4C38.43 5.11 38.14 4.93 37.83 4.93C37.51 4.93 37.22 5.11 37.08 5.4L36 7.71L33.59 8.08C33.29 8.13 33.03 8.34 32.93 8.63L32.93 8.63ZM36.68 9.27C36.95 9.23 37.18 9.06 37.3 8.81L37.83 7.69L38.35 8.81C38.47 9.06 38.7 9.23 38.97 9.27L40.23 9.46L39.29 10.43C39.11 10.61 39.03 10.88 39.07 11.13L39.28 12.44L38.22 11.85C37.98 11.72 37.68 11.72 37.43 11.85L36.37 12.44L36.58 11.13C36.62 10.88 36.54 10.61 36.36 10.43L35.42 9.46L36.68 9.27Z" fill="#101828" fill-opacity="1.000000" fill-rule="nonzero"/>
	<path id="Vector" d="M30.38 4.33C30.28 4.03 30.03 3.82 29.72 3.77L26.75 3.32L25.41 0.47C25.28 0.18 24.99 0 24.67 0C24.35 0 24.06 0.18 23.92 0.47L22.58 3.32L19.61 3.78C19.3 3.82 19.05 4.04 18.95 4.33C18.86 4.62 18.93 4.94 19.14 5.17L21.32 7.4L20.81 10.56L20.81 10.56C20.76 10.87 20.89 11.18 21.14 11.36C21.4 11.54 21.74 11.56 22.02 11.41L24.67 9.94L27.32 11.41C27.6 11.56 27.93 11.54 28.19 11.36C28.45 11.18 28.58 10.86 28.53 10.55L28.01 7.4L30.19 5.17C30.41 4.94 30.48 4.62 30.38 4.33L30.38 4.33ZM26.55 6.54C26.36 6.73 26.28 6.99 26.32 7.25L26.63 9.15L25.06 8.28L25.06 8.28C24.82 8.14 24.52 8.14 24.27 8.28L22.7 9.15L23.01 7.25L23.01 7.25C23.05 6.99 22.97 6.73 22.79 6.54L21.44 5.16L23.27 4.88C23.54 4.84 23.77 4.66 23.89 4.42L24.67 2.75L25.45 4.42C25.56 4.66 25.8 4.84 26.07 4.88L27.9 5.16L26.55 6.54Z" fill="#101828" fill-opacity="1.000000" fill-rule="nonzero"/>
	<path id="Vector" d="M4.11 49.34L25.49 49.34C25.59 49.34 25.7 49.32 25.79 49.28L25.81 49.27L33.46 46.22C34.85 48.17 37.1 49.34 39.49 49.34L45.91 49.34C46.77 49.36 47.61 49.05 48.25 48.47C48.88 47.89 49.28 47.09 49.34 46.23C49.4 45.11 48.89 44.03 47.98 43.38C47.31 42.95 46.9 42.22 46.87 41.43L46.87 33.74C46.87 31.77 46.09 29.88 44.7 28.49C43.3 27.1 41.42 26.31 39.45 26.31L35.36 26.31L35.36 24.67L36.18 24.67C36.53 24.67 36.83 24.45 36.95 24.13C37.07 23.81 36.98 23.44 36.72 23.22L25.2 13.35C24.89 13.09 24.44 13.09 24.13 13.35L20.56 16.42L20.56 15.62C20.56 15.4 20.47 15.19 20.31 15.04C20.16 14.89 19.95 14.8 19.73 14.8L16.44 14.8C15.99 14.8 15.62 15.17 15.62 15.62L15.62 20.56C15.62 20.58 15.63 20.61 15.64 20.63L12.62 23.22C12.36 23.44 12.26 23.81 12.38 24.13C12.5 24.45 12.81 24.67 13.15 24.67L13.98 24.67L13.98 37C13.98 37.22 14.06 37.43 14.22 37.59C14.37 37.74 14.58 37.83 14.8 37.83L21.38 37.83C21.6 37.83 21.8 37.74 21.96 37.59C22.11 37.43 22.2 37.22 22.2 37L22.2 32.89L27.13 32.89L27.13 37C27.13 37.22 27.22 37.43 27.38 37.59C27.53 37.74 27.74 37.83 27.96 37.83L32.07 37.83L32.07 41.91C32.07 42.55 32.15 43.17 32.32 43.78L25.81 41.18L25.8 41.17L25.8 41.17C25.71 41.14 25.62 41.12 25.52 41.12C25.51 41.12 25.5 41.12 25.49 41.12L4.11 41.12C2.64 41.12 1.28 41.9 0.55 43.17C-0.19 44.44 -0.19 46.01 0.55 47.28C1.28 48.56 2.64 49.34 4.11 49.34L4.11 49.34ZM17.27 16.44L18.91 16.44L18.91 17.83L17.27 19.24L17.27 16.44ZM24.67 15.06L33.96 23.02L15.37 23.02L24.67 15.06ZM32.07 36.18L28.78 36.18L28.78 32.07C28.78 31.85 28.69 31.64 28.54 31.49C28.38 31.33 28.17 31.25 27.96 31.25L21.38 31.25C20.92 31.25 20.56 31.62 20.56 32.07L20.56 36.18L15.62 36.18L15.62 24.67L33.71 24.67L33.71 26.31L33.03 26.31C32.17 26.29 31.33 26.61 30.7 27.19C30.06 27.77 29.67 28.57 29.61 29.43C29.55 30.55 30.06 31.62 30.97 32.27C31.63 32.71 32.04 33.43 32.07 34.22L32.07 36.18ZM31.93 30.94C31.47 30.61 31.22 30.07 31.25 29.51C31.29 29.08 31.5 28.67 31.83 28.38C32.16 28.1 32.59 27.94 33.03 27.96L39.45 27.96C40.98 27.96 42.45 28.57 43.53 29.65C44.62 30.74 45.23 32.21 45.23 33.74L45.23 41.43C45.25 42.75 45.92 43.97 47.01 44.71C47.47 45.04 47.72 45.58 47.69 46.14C47.65 46.58 47.44 46.98 47.11 47.27C46.78 47.56 46.35 47.71 45.91 47.7L39.5 47.7C37.96 47.69 36.49 47.08 35.41 46C34.33 44.92 33.72 43.45 33.71 41.91L33.71 34.22C33.69 32.9 33.02 31.68 31.93 30.94ZM26.31 43.15L31.5 45.23L26.31 47.3L26.31 43.15ZM8.22 42.76L24.67 42.76L24.67 44.41L8.22 44.41L8.22 42.76ZM8.22 46.05L24.67 46.05L24.67 47.7L8.22 47.7L8.22 46.05ZM4.11 42.76L6.57 42.76L6.57 47.7L4.11 47.7C3.23 47.7 2.41 47.22 1.97 46.46C1.53 45.7 1.53 44.76 1.97 43.99C2.41 43.23 3.23 42.76 4.11 42.76Z" fill="#101828" fill-opacity="1.000000" fill-rule="nonzero"/>
</svg>
