<svg width="17.000000" height="14.000000" viewBox="0 0 17 14" fill="none" xmlns="http://www.w3.org/2000/svg" xmlns:xlink="http://www.w3.org/1999/xlink">
	<desc>
			Created with Pixso.
	</desc>
	<defs/>
	<path id="Vector" d="M16.49 0.93C15.88 1.22 15.23 1.41 14.53 1.5C15.24 1.06 15.78 0.36 16.03 -0.47C15.37 -0.06 14.65 0.23 13.87 0.39C13.25 -0.3 12.37 -0.73 11.39 -0.73C9.51 -0.73 7.99 0.86 7.99 2.82C7.99 3.1 8.02 3.37 8.08 3.63C5.26 3.48 2.75 2.07 1.07 -0.08C0.78 0.44 0.61 1.06 0.61 1.71C0.61 2.94 1.21 4.02 2.13 4.66C1.57 4.64 1.04 4.48 0.58 4.22C0.58 4.23 0.58 4.24 0.58 4.26C0.58 5.98 1.76 7.41 3.31 7.74C3.03 7.82 2.73 7.86 2.42 7.86C2.2 7.86 1.98 7.84 1.78 7.8C2.21 9.21 3.46 10.23 4.95 10.26C3.79 11.21 2.32 11.78 0.73 11.78C0.45 11.78 0.18 11.77 -0.08 11.73C1.42 12.73 3.21 13.32 5.13 13.32C11.38 13.32 14.8 7.92 14.8 3.23C14.8 3.08 14.8 2.92 14.79 2.77C15.46 2.27 16.04 1.65 16.49 0.93Z" fill="#444E62" fill-opacity="1.000000" fill-rule="nonzero"/>
</svg>
