<svg width="50.000000" height="50.000000" viewBox="0 0 50 50" fill="none" xmlns="http://www.w3.org/2000/svg" xmlns:xlink="http://www.w3.org/1999/xlink">
	<desc>
			Created with Pixso.
	</desc>
	<defs>
		<filter id="filter_16_1153_dd" x="0.000000" y="0.000000" width="50.000000" height="50.000000" filterUnits="userSpaceOnUse" color-interpolation-filters="sRGB">
			<feFlood flood-opacity="0" result="BackgroundImageFix"/>
			<feColorMatrix in="SourceAlpha" type="matrix" values="0 0 0 0 0 0 0 0 0 0 0 0 0 0 0 0 0 0 127 0" result="hardAlpha"/>
			<feOffset dx="0" dy="4"/>
			<feGaussianBlur stdDeviation="1.33333"/>
			<feComposite in2="hardAlpha" operator="out" k2="-1" k3="1"/>
			<feColorMatrix type="matrix" values="0 0 0 0 0 0 0 0 0 0 0 0 0 0 0 0 0 0 0.25 0"/>
			<feBlend mode="normal" in2="BackgroundImageFix" result="effect_dropShadow_1"/>
			<feBlend mode="normal" in="SourceGraphic" in2="effect_dropShadow_1" result="shape"/>
		</filter>
		<clipPath id="clip16_1153">
			<rect id="ant-design:phone-outlined" rx="21.000000" width="42.000000" height="42.000000" transform="translate(4.000000 0.000000)" fill="white" fill-opacity="0"/>
		</clipPath>
	</defs>
	<g filter="url(#filter_16_1153_dd)">
		<rect id="ant-design:phone-outlined" rx="21.000000" width="42.000000" height="42.000000" transform="translate(4.000000 0.000000)" fill="#FFFFFF" fill-opacity="1.000000"/>
		<g clip-path="url(#clip16_1153)">
			<path id="Vector" d="M15.8726 14.1677L18.5352 11.5078C18.8599 11.1829 19.2949 11.0002 19.7549 11.0002C20.2148 11.0002 20.6499 11.1802 20.9751 11.5078L23.8423 14.3704C24.1675 14.6953 24.3501 15.1328 24.3501 15.5928C24.3501 16.0552 24.1699 16.4878 23.8423 16.8152L21.6025 19.0579C22.1128 20.2468 22.8457 21.3271 23.7627 22.2402C24.6802 23.1628 25.7524 23.8904 26.9424 24.4053L29.1826 22.1628C29.5073 21.8379 29.9424 21.6553 30.4023 21.6553C30.6294 21.6545 30.854 21.699 31.0635 21.7861C31.2729 21.8733 31.4629 22.0012 31.6226 22.1628L34.4927 25.0254C34.8174 25.3503 35 25.7878 35 26.2478C35 26.7102 34.8198 27.1428 34.4927 27.4702L31.8325 30.1304C31.2773 30.6853 30.5127 31.0029 29.7275 31.0029C29.5649 31.0029 29.4077 30.9902 29.2476 30.9629C25.9375 30.418 22.6523 28.6553 20 26.0054C17.3501 23.3503 15.5898 20.0652 15.04 16.7527C14.8823 15.8127 15.1973 14.8452 15.8726 14.1677ZM16.8125 16.4553C17.2998 19.4028 18.8848 22.3428 21.2725 24.7302C23.6602 27.1179 26.5977 28.7029 29.5449 29.1904C29.915 29.2529 30.2949 29.1279 30.5649 28.8604L33.1777 26.2478L30.4077 23.4753L27.4126 26.4753L27.3901 26.4978L26.8501 26.2979C25.2124 25.6958 23.7256 24.7451 22.4927 23.5112C21.2593 22.2776 20.3091 20.7903 19.7075 19.1528L19.5073 18.6128L22.5273 15.5952L19.7573 12.8228L17.145 15.4353C16.875 15.7053 16.75 16.0852 16.8125 16.4553Z" fill="#A1B1BC" fill-opacity="1.000000" fill-rule="nonzero"/>
		</g>
	</g>
</svg>
