<svg width="42.000000" height="42.000000" viewBox="0 0 42 42" fill="none" xmlns="http://www.w3.org/2000/svg" xmlns:xlink="http://www.w3.org/1999/xlink">
	<desc>
			Created with Pixso.
	</desc>
	<defs>
		<clipPath id="clip39_15425">
			<rect id="ant-design:phone-outlined" rx="21.000000" width="42.000000" height="42.000000" fill="white" fill-opacity="0"/>
		</clipPath>
	</defs>
	<rect id="ant-design:phone-outlined" rx="21.000000" width="42.000000" height="42.000000" fill="#B16DFF" fill-opacity="1.000000"/>
	<g clip-path="url(#clip39_15425)">
		<path id="Vector" d="M11.8723 14.168L14.5349 11.5078C14.8599 11.1826 15.2949 11 15.7549 11C16.2148 11 16.6499 11.1797 16.9749 11.5078L19.8425 14.3701C20.1675 14.6953 20.3499 15.1328 20.3499 15.5928C20.3499 16.0547 20.1699 16.4873 19.8425 16.8154L17.6025 19.0576C18.1128 20.2461 18.8459 21.3271 19.7625 22.2402C20.6799 23.1621 21.7524 23.8896 22.9424 24.4053L25.1824 22.1621C25.5076 21.8379 25.9424 21.6553 26.4026 21.6553C26.6294 21.6543 26.8542 21.6982 27.0637 21.7861C27.2732 21.873 27.4631 22.001 27.6226 22.1621L30.4924 25.0254C30.8174 25.3496 31 25.7871 31 26.248C31 26.71 30.8201 27.1426 30.4924 27.4697L27.8325 30.1299C27.2776 30.6855 26.5125 31.0029 25.7275 31.0029C25.5649 31.0029 25.4075 30.9902 25.2476 30.9629C21.9375 30.418 18.6523 28.6553 16 26.0049C13.3499 23.3496 11.5898 20.0654 11.0398 16.7529C10.8823 15.8125 11.1975 14.8447 11.8723 14.168ZM12.8125 16.4551C13.2998 19.4023 14.885 22.3428 17.2725 24.7305C19.6599 27.1172 22.5974 28.7021 25.5449 29.1904C25.915 29.2529 26.2949 29.1279 26.5649 28.8604L29.1775 26.248L26.4075 23.4746L23.4124 26.4746L23.3899 26.498L22.8499 26.2979C21.2126 25.6953 19.7258 24.7451 18.4924 23.5107C17.259 22.2773 16.3088 20.79 15.7075 19.1523L15.5073 18.6123L18.5273 15.5947L15.7573 12.8223L13.145 15.4346C12.875 15.7051 12.75 16.085 12.8125 16.4551Z" fill="#FFFFFF" fill-opacity="1.000000" fill-rule="nonzero"/>
	</g>
</svg>
