<svg width="48.000000" height="48.000000" viewBox="0 0 48 48" fill="none" xmlns="http://www.w3.org/2000/svg" xmlns:xlink="http://www.w3.org/1999/xlink">
	<desc>
			Created with Pixso.
	</desc>
	<defs/>
	<path id="Shape" d="M18.6519 32L20.2319 34.2139C19.5278 34.6938 18.936 35.3018 18.4839 36L11 36C4.92578 36 0 31.0742 0 25C0 19.5962 3.90186 15.1099 9.04199 14.1841C9.46582 6.28223 15.9878 0 24 0C32.0122 0 38.5342 6.28223 38.958 14.1821C44.0981 15.1079 48 19.5942 48 24.998C48 26.2441 47.7822 27.436 47.3999 28.5542C47.0781 27.9761 46.7139 27.3818 46.2759 26.7681C45.6538 25.894 44.8921 24.9741 43.9541 24.2061C43.4922 18.9258 38.4619 17.4722 35.1338 17.5601C35.7822 9.59424 30.9058 4 24 4C17.2822 4 12.5322 9.12402 12.8662 17.5601C8.95801 17.334 4 19.4058 4 25C4 28.8599 7.14014 32 11 32L18.6519 32ZM19.7739 19.1958C19.0239 19.1958 18.2622 19.4199 17.5859 19.9019C15.4678 21.4141 15.478 24.5542 17.5781 26.0601C17.0581 24.502 17.6558 22.8599 19.0098 21.896C19.6899 21.4121 20.4702 21.1621 21.2422 21.1621C22.0059 21.1621 22.7622 21.4038 23.4102 21.9019C22.9038 20.21 21.3701 19.1958 19.7739 19.1958ZM23.9141 41.502C25.5962 42.0679 30.7998 43.5098 36.8301 48L48 40.0342C45.104 35.9722 45.8999 33.1299 43.022 29.0918C41.5698 27.0581 40.5781 26.5039 39.332 26.5039C38.8921 26.5039 38.4199 26.5742 37.8838 26.6719L38.8979 28.0918C39.3379 28.708 38.7939 29.354 38.228 29.354C38.0059 29.354 37.7778 29.2539 37.606 29.0122L36.7021 27.7441C36.4038 27.3242 35.9878 27.1821 35.5098 27.1821C34.8198 27.1821 34.0039 27.478 33.228 27.6558L34.458 29.3799C34.894 29.9941 34.3521 30.6421 33.7861 30.6421C33.564 30.6421 33.3379 30.542 33.166 30.2998L32.1001 28.8062C31.8042 28.3901 31.394 28.2461 30.9282 28.2461C30.21 28.2461 29.354 28.5859 28.5562 28.7881L29.856 30.6118C30.2959 31.228 29.752 31.874 29.1841 31.874C28.9619 31.874 28.7339 31.7739 28.562 31.5342L23.2861 24.1479C22.8242 23.498 22.2021 23.228 21.5898 23.228C20.042 23.228 18.542 24.9639 19.7559 26.668L27.5459 37.5898C26.71 37.2822 25.2422 37 24.2822 37C21.3218 37.002 20.1821 40.25 23.9141 41.502Z" clip-rule="evenodd" fill="#FFFFFF" fill-opacity="1.000000" fill-rule="evenodd"/>
</svg>
