<svg width="78.000000" height="26.000000" viewBox="0 0 78 26" fill="none" xmlns="http://www.w3.org/2000/svg" xmlns:xlink="http://www.w3.org/1999/xlink">
	<desc>
			Created with Pixso.
	</desc>
	<defs/>
	<path d="M42.959 13L45.8677 13L41.8413 17.8867L46.6298 23.4004L43.3782 23.4004L39.0596 18.3604L39.0596 23.4004L36.4558 23.4004L36.4558 13L39.0596 13L39.0596 17.7979L42.959 13Z" fill="#110945" fill-opacity="0.200000" fill-rule="nonzero"/>
	<path d="M53.5638 23.4004L50.8691 23.4004L55.4116 13L58.1577 13L62.7388 23.4004L60.0569 23.4004L56.7975 15.5557L55.771 18.0469L53.5638 23.4004Z" fill="#110945" fill-opacity="0.200000" fill-rule="nonzero"/>
	<path d="M75.5464 13L77.9989 13L77.9989 23.4004L75.7892 23.4004L70.2653 16.9404L70.2653 23.4004L67.825 23.4004L67.825 13L69.9982 13L75.5464 19.4863L75.5464 13Z" fill="#110945" fill-opacity="0.200000" fill-rule="nonzero"/>
	<path d="M20.5059 26L19.4811 26L8.02222 26L7.34937 26L0 26L13.819 0L27.7104 26L20.5059 26ZM10.8481 19.9258L16.6553 19.9258L13.7568 13.6719L10.8481 19.9258Z" fill="#110945" fill-opacity="0.200000" fill-rule="nonzero"/>
	<path d="M41.76 8L41.7521 4.64062L40.104 7.4082L39.52 7.4082L37.88 4.71191L37.88 8L36.6641 8L36.6641 2.40039L37.7361 2.40039L39.832 5.88086L41.8961 2.40039L42.9601 2.40039L42.9761 8L41.76 8ZM45.7927 6.80078L48.3927 6.80078L48.8887 8L50.2487 8L47.7446 2.40039L46.4647 2.40039L43.9686 8L45.2966 8L45.7927 6.80078ZM51.2297 2.40039L53.7737 2.40039C54.3817 2.40039 54.9177 2.51758 55.3817 2.75195Q55.8611 2.98633 56.192 3.35449L56.192 3.35449Q56.3472 3.52637 56.4697 3.72852Q56.5138 3.7998 56.553 3.87305L56.5531 3.87402Q56.8617 4.45508 56.8617 5.2002Q56.8617 5.94531 56.5531 6.52734L56.5531 6.52734L56.5527 6.52832L56.5527 6.52832Q56.5137 6.60156 56.4697 6.67285Q56.3549 6.86133 56.2113 7.02539L56.2113 7.02539Q55.8751 7.41016 55.3817 7.65625C54.9177 7.88574 54.3817 8 53.7737 8L51.2297 8L51.2297 2.40039ZM62.5751 8L62.5751 6.95996L59.5271 6.95996L59.5271 5.66406L62.1271 5.66406L62.1271 4.65625L59.5271 4.65625L59.5271 3.44043L62.4711 3.44043L62.4711 2.40039L58.239 2.40039L58.239 8L62.5751 8ZM70.7839 5.08887C71.1039 5.18945 71.3545 5.36035 71.5359 5.60059C71.7172 5.83496 71.8079 6.12598 71.8079 6.47266C71.8079 6.96289 71.6158 7.3418 71.2319 7.6084C70.8533 7.87012 70.2986 8 69.5679 8L66.6719 8L66.6719 2.40039L69.4078 2.40039Q70.4319 2.40039 70.9758 2.79199C71.3439 3.05371 71.5278 3.4082 71.5278 3.85645C71.5278 4.12793 71.4612 4.37109 71.3279 4.58398C71.1998 4.79785 71.0186 4.96582 70.7839 5.08887ZM75.7599 8L75.7599 6.0166L77.9359 2.40039L76.6638 2.40039L75.1678 4.88867L73.6719 2.40039L72.2959 2.40039L74.4639 6L74.4639 8L75.7599 8ZM67.9598 3.37598L67.9598 4.69629L69.2479 4.69629C69.5679 4.69629 69.8105 4.64062 69.9758 4.52832C70.1412 4.41602 70.2239 4.25098 70.2239 4.03223C70.2239 3.81348 70.1412 3.65137 69.9758 3.54395C69.8105 3.43262 69.5679 3.37598 69.2479 3.37598L67.9598 3.37598ZM53.7097 6.93652C54.2697 6.93652 54.715 6.78125 55.0457 6.47266Q55.184 6.34277 55.2843 6.18848L55.2843 6.18848Q55.5497 5.78125 55.5497 5.2002Q55.5497 4.61426 55.2792 4.20898L55.2789 4.20801Q55.1803 4.06055 55.0457 3.93652C54.715 3.62207 54.2697 3.46484 53.7097 3.46484L52.5256 3.46484L52.5256 6.93652L53.7097 6.93652ZM47.0967 3.67285L47.9847 5.81641L46.2087 5.81641L47.0967 3.67285ZM69.4719 7.02441C69.8132 7.02441 70.0692 6.96875 70.2399 6.85645C70.4159 6.74414 70.5039 6.57129 70.5039 6.33594C70.5039 5.87207 70.1599 5.64062 69.4719 5.64062L67.9598 5.64062L67.9598 7.02441L69.4719 7.02441Z" fill="#110945" fill-opacity="0.200000" fill-rule="evenodd"/>
</svg>
