<svg width="32.000000" height="32.000000" viewBox="0 0 32 32" fill="none" xmlns="http://www.w3.org/2000/svg" xmlns:xlink="http://www.w3.org/1999/xlink">
	<desc>
			Created with Pixso.
	</desc>
	<defs/>
	<path id="facebook" d="M16 0C7.16406 0 0 7.16406 0 16C0 24.8359 7.16406 32 16 32C24.8359 32 32 24.8359 32 16C32 7.16406 24.8359 0 16 0ZM16 1C24.271 1 31 7.72852 31 16C31 24.2715 24.271 31 16 31C7.729 31 1 24.2715 1 16C1 7.72852 7.729 1 16 1ZM10.6667 13.333L13.3333 13.333L13.3333 11.0771C13.3333 9.05566 14.3972 8 16.7947 8L20 8L20 11.333L18.0774 11.333C17.4614 11.333 17.3333 11.585 17.3333 12.2227L17.3333 13.333L20 13.333L19.76 16L17.3333 16L17.3333 24L13.3333 24L13.3333 16L10.6667 16L10.6667 13.333Z" clip-rule="evenodd" fill="#1E1E1E" fill-opacity="1.000000" fill-rule="evenodd"/>
</svg>
