<svg width="20.000000" height="20.000000" viewBox="0 0 20 20" fill="none" xmlns="http://www.w3.org/2000/svg" xmlns:xlink="http://www.w3.org/1999/xlink">
	<desc>
			Created with Pixso.
	</desc>
	<defs>
		<clipPath id="clip16_1158">
			<rect id="Flags" rx="10.000000" width="20.000000" height="20.000000" fill="white" fill-opacity="0"/>
		</clipPath>
	</defs>
	<rect id="Flags" rx="10.000000" width="20.000000" height="20.000000" fill="#FFFFFF" fill-opacity="1.000000"/>
	<g clip-path="url(#clip16_1158)">
		<path id="Vector" d="M0 0L12 0L12 9.33325L0 9.33325L0 0Z" fill="#1A47B8" fill-opacity="1.000000" fill-rule="evenodd"/>
		<path id="Vector" d="M12 0L12 1.33325L28 1.33325L28 0L12 0ZM12 2.66675L12 4L28 4L28 2.66675L12 2.66675ZM12 5.33325L12 6.66675L28 6.66675L28 5.33325L12 5.33325ZM12 8L12 9.33325L28 9.33325L28 8L12 8ZM0 10.6667L0 12L28 12L28 10.6667L0 10.6667ZM0 13.3333L0 14.6667L28 14.6667L28 13.3333L0 13.3333ZM0 16L0 17.3333L28 17.3333L28 16L0 16ZM0 18.6667L0 20L28 20L28 18.6667L0 18.6667Z" fill="#F93939" fill-opacity="1.000000" fill-rule="evenodd"/>
		<path id="Vector" d="M1.3335 1.33325L1.3335 2.6665L2.66699 2.6665L2.66699 1.33325L1.3335 1.33325ZM4 1.33325L4 2.6665L5.3335 2.6665L5.3335 1.33325L4 1.33325ZM6.66699 1.33325L6.66699 2.6665L8 2.6665L8 1.33325L6.66699 1.33325ZM9.3335 1.33325L9.3335 2.6665L10.667 2.6665L10.667 1.33325L9.3335 1.33325ZM8 2.6665L8 4L9.3335 4L9.3335 2.6665L8 2.6665ZM5.3335 2.6665L5.3335 4L6.66699 4L6.66699 2.6665L5.3335 2.6665ZM2.66699 2.6665L2.66699 4L4 4L4 2.6665L2.66699 2.6665ZM1.3335 4L1.3335 5.33325L2.66699 5.33325L2.66699 4L1.3335 4ZM4 4L4 5.33325L5.3335 5.33325L5.3335 4L4 4ZM6.66699 4L6.66699 5.33325L8 5.33325L8 4L6.66699 4ZM9.3335 4L9.3335 5.33325L10.667 5.33325L10.667 4L9.3335 4ZM1.3335 6.6665L1.3335 8L2.66699 8L2.66699 6.6665L1.3335 6.6665ZM4 6.6665L4 8L5.3335 8L5.3335 6.6665L4 6.6665ZM6.66699 6.6665L6.66699 8L8 8L8 6.6665L6.66699 6.6665ZM9.3335 6.6665L9.3335 8L10.667 8L10.667 6.6665L9.3335 6.6665ZM8 5.33325L8 6.6665L9.3335 6.6665L9.3335 5.33325L8 5.33325ZM5.3335 5.33325L5.3335 6.6665L6.66699 6.6665L6.66699 5.33325L5.3335 5.33325ZM2.66699 5.33325L2.66699 6.6665L4 6.6665L4 5.33325L2.66699 5.33325Z" fill="#FFFFFF" fill-opacity="1.000000" fill-rule="evenodd"/>
	</g>
</svg>
