<svg width="32.000000" height="32.000000" viewBox="0 0 32 32" fill="none" xmlns="http://www.w3.org/2000/svg" xmlns:xlink="http://www.w3.org/1999/xlink">
	<desc>
			Created with Pixso.
	</desc>
	<defs/>
	<path id="instagram" d="M16 0C7.16394 0 0 7.16406 0 16C0 24.8359 7.16394 32 16 32C24.8361 32 32 24.8359 32 16C32 7.16406 24.8361 0 16 0ZM16 1C24.271 1 31 7.72852 31 16C31 24.2715 24.271 31 16 31C7.729 31 1 24.2715 1 16C1 7.72852 7.729 1 16 1ZM16 8C13.8267 8 13.556 8.00977 12.7013 8.0498C9.79468 8.18262 8.18127 9.79492 8.04797 12.7012C8.00928 13.5557 8 13.8281 8 16C8 18.1729 8.00928 18.4453 8.04797 19.2988C8.18127 22.2041 9.79468 23.8184 12.7013 23.9521C13.556 23.9902 13.8267 24 16 24C18.1733 24 18.4453 23.9902 19.3 23.9521C22.2013 23.8184 23.8213 22.207 23.952 19.2988C23.9907 18.4453 24 18.1729 24 16C24 13.8281 23.9907 13.5557 23.952 12.7012C23.8213 9.79883 22.2067 8.18164 19.3 8.0498C18.4453 8.00977 18.1733 8 16 8ZM19.2334 9.48926C18.3894 9.4502 18.1361 9.44238 16.0001 9.44238C13.864 9.44238 13.6107 9.44922 12.7681 9.4873C10.5974 9.58594 9.58679 10.6143 9.48804 12.7676C9.45068 13.6104 9.44141 13.8633 9.44141 16C9.44141 18.1357 9.45068 18.3887 9.48804 19.2314C9.58801 21.3799 10.5947 22.4121 12.7681 22.5117C13.6107 22.5508 13.864 22.5586 16.0001 22.5586C18.1375 22.5586 18.3894 22.5488 19.2334 22.5117C21.4041 22.4131 22.4135 21.3828 22.5134 19.2314C22.5508 18.3887 22.5587 18.1357 22.5587 16C22.5587 13.8633 22.5508 13.6113 22.5134 12.7676C22.4135 10.6152 21.4027 9.58789 19.2334 9.48926ZM19.3093 11.7305C19.3093 11.2002 19.74 10.7705 20.2693 10.7705C20.8014 10.7705 21.2307 11.2002 21.2307 11.7305C21.2307 12.2617 20.8 12.6904 20.2693 12.6904C19.7386 12.6904 19.3093 12.2598 19.3093 11.7305ZM11.8921 16C11.8921 13.7305 13.7321 11.8916 16.0001 11.8916C18.2681 11.8916 20.108 13.7314 20.108 16C20.108 18.2686 18.2681 20.1074 16.0001 20.1074C13.7321 20.1074 11.8921 18.2686 11.8921 16ZM15.9999 18.666C14.5266 18.666 13.3333 17.4727 13.3333 16C13.3333 14.5273 14.5266 13.333 15.9999 13.333C17.4719 13.333 18.668 14.5264 18.668 16C18.668 17.4727 17.4719 18.666 15.9999 18.666Z" clip-rule="evenodd" fill="#1E1E1E" fill-opacity="1.000000" fill-rule="evenodd"/>
</svg>
