<svg width="20.000000" height="24.000000" viewBox="0 0 20 24" fill="none" xmlns="http://www.w3.org/2000/svg" xmlns:xlink="http://www.w3.org/1999/xlink">
	<desc>
			Created with Pixso.
	</desc>
	<defs/>
	<path id="Shape" d="M17.281 16.1318L14.949 16.1318L20 13L20 18.9111L18.731 17.1108C16.0291 21.6152 12.3521 21.417 10 24C7.64795 21.417 3.97095 21.6152 1.26904 17.1118L0 18.9121L0 13L5.05103 16.1318L2.71899 16.1318C3.86694 17.9468 6.36108 19.8198 9 20L9 16.0688C6.30103 15.896 4.84497 14.144 4.96094 12.251C5.09692 10.02 6.93408 9.06982 9 8.45312L9 7.89697C9 5.48682 7 5.29688 7 3C7 1.34619 8.34595 0 10 0C11.6541 0 13 1.34619 13 3C13 5.27783 11 5.50684 11 7.89697L11 7.93311C12.864 7.48096 14.7581 7.00488 15.033 5.96289C15.2561 5.11377 14.585 4.58691 13.783 4.24023C14.0149 3.5332 14.0681 2.91113 13.906 2.15479C16.0149 2.81396 17.5249 4.36719 16.967 6.47412C16.3811 8.68994 13.8259 9.30713 11.354 9.90479L11 9.99316L11 13.7979C11.9209 13.4531 12.854 12.8042 13.6321 11.7422L15.2451 12.9248C14.0271 14.5859 12.4919 15.5078 11 15.8882L11 19.9839C13.676 19.77 16.189 17.8599 17.281 16.1318ZM10 2C10.552 2 11 2.44922 11 3C11 3.55078 10.552 4 10 4C9.448 4 9 3.55078 9 3C9 2.44922 9.448 2 10 2ZM9 10.5601C7.76611 10.9902 7.01001 11.5078 6.95703 12.374C6.91309 13.0908 7.46094 13.917 9 14.0762L9 10.5601Z" clip-rule="evenodd" fill="#333333" fill-opacity="1.000000" fill-rule="evenodd"/>
</svg>
