<svg width="24.000000" height="22.000000" viewBox="0 0 24 22" fill="none" xmlns="http://www.w3.org/2000/svg" xmlns:xlink="http://www.w3.org/1999/xlink">
	<desc>
			Created with Pixso.
	</desc>
	<defs/>
	<path id="Shape" d="M19.5271 8.51807C19.729 8.91602 19.9021 9.33301 20.043 9.75977L17.5901 10.8662C17.4629 10.4341 17.29 10.0171 17.073 9.62402L19.5271 8.51807ZM8.38892 7.89893C8.05005 8.18213 7.74194 8.50195 7.47095 8.85596L5.58008 6.88818C5.86206 6.54492 6.1709 6.22412 6.49902 5.93115L8.38892 7.89893ZM10.3831 6.81885C9.96606 6.9458 9.56494 7.12109 9.18506 7.3418L8.1499 4.77393C8.53711 4.56689 8.93799 4.39209 9.3501 4.25L10.3831 6.81885ZM6.92407 9.70703C6.71289 10.103 6.54712 10.522 6.42603 10.957L3.95605 9.89111C4.09009 9.46387 4.25806 9.04395 4.4541 8.64111L6.92407 9.70703ZM14.6599 4.23779C15.0701 4.37793 15.4729 4.55176 15.8601 4.75684L14.8369 7.33008C14.457 7.10986 14.0549 6.93604 13.637 6.81104L14.6599 4.23779ZM17.543 5.93115C17.8711 6.22412 18.1799 6.5459 18.4609 6.88818L16.571 8.85596C16.3 8.50293 15.9919 8.18213 15.6521 7.89893L17.543 5.93115ZM12.022 3.80176C12.2329 3.80176 12.4509 3.81104 12.6699 3.82812L12.6699 6.61182C12.4561 6.58691 12.2371 6.57422 12.022 6.57422C11.8059 6.57422 11.5879 6.58691 11.3721 6.61182L11.3721 3.82812C11.5901 3.81104 11.8091 3.80176 12.022 3.80176ZM12.021 17.6099C10.728 17.6099 9.67798 16.561 9.67798 15.2671C9.67798 14.3838 10.167 13.6152 10.8879 13.2158L12.021 7.90723L13.1541 13.2158C13.877 13.6152 14.365 14.3838 14.365 15.2671C14.365 16.561 13.3159 17.6099 12.021 17.6099ZM12 2C17.5139 2 22 6.48584 22 12C22 13.7578 21.542 15.5 20.697 17L16.27 17C15.8601 18.0469 14.625 20 12 20C9.34399 20 8.14111 18.0469 7.72998 17L3.30298 17C2.45801 15.5 2 13.7578 2 12C2 6.48584 6.48608 2 12 2ZM0 12C0 5.37305 5.37305 0 12 0C18.627 0 24 5.37305 24 12C24 14.583 23.1841 17.042 21.7949 19L17.438 19C16.5081 20.647 14.4231 22 12 22C9.5769 22 7.49194 20.647 6.56201 19L2.20508 19C0.815918 17.042 0 14.583 0 12Z" clip-rule="evenodd" fill="#333333" fill-opacity="1.000000" fill-rule="evenodd"/>
</svg>
