<svg width="24.000000" height="23.000000" viewBox="0 0 24 23" fill="none" xmlns="http://www.w3.org/2000/svg" xmlns:xlink="http://www.w3.org/1999/xlink">
	<desc>
			Created with Pixso.
	</desc>
	<defs/>
	<path id="Shape" d="M3 0L3.68799 2L20.375 2L20.979 0L3 0ZM3.854 8L3.43896 6L20.5601 6L20.1699 8L22.2 8L23 4L1 4L1.80005 8L3.854 8ZM24 10L0 10L2 23L22 23L24 10ZM21.6689 12L20.2839 21L3.71606 21L2.33105 12L21.6689 12ZM15 14C15.553 14 16 14.4482 16 15C16 15.5518 15.553 16 15 16L9 16C8.44702 16 8 15.5518 8 15C8 14.4482 8.44702 14 9 14L15 14Z" clip-rule="evenodd" fill="#333333" fill-opacity="1.000000" fill-rule="evenodd"/>
</svg>
