<svg width="40.000000" height="48.000000" viewBox="0 0 40 48" fill="none" xmlns="http://www.w3.org/2000/svg" xmlns:xlink="http://www.w3.org/1999/xlink">
	<desc>
			Created with Pixso.
	</desc>
	<defs/>
	<path id="Shape" d="M34.562 32.2642L29.8979 32.2642L40 26L40 37.8218L37.4619 34.2222C32.0581 43.23 24.7041 42.834 20 48C15.2959 42.834 7.94189 43.23 2.53809 34.2241L0 37.8242L0 26L10.1021 32.2642L5.43799 32.2642C7.73389 35.894 12.7222 39.6401 18 40L18 32.1382C12.6021 31.792 9.68994 28.2881 9.92188 24.502C10.1938 20.04 13.8682 18.1401 18 16.9058L18 15.7939C18 10.9741 14 10.5942 14 6C14 2.69189 16.6919 0 20 0C23.3081 0 26 2.69189 26 6C26 10.5562 22 11.0142 22 15.7939L22 15.8662C25.728 14.9619 29.5161 14.0098 30.0659 11.9258C30.5122 10.228 29.1699 9.17383 27.5659 8.47998C28.0298 7.06592 28.1362 5.82178 27.812 4.31006C32.0298 5.62793 35.0498 8.73389 33.9341 12.9482C32.7622 17.3799 27.6519 18.6138 22.708 19.8101L22 19.9858L22 27.5962C23.8418 26.9058 25.708 25.6079 27.2642 23.4839L30.4902 25.8501C28.0542 29.1719 24.9839 31.0161 22 31.7759L22 39.9678C27.3521 39.54 32.3779 35.7202 34.562 32.2642ZM20 4C21.104 4 22 4.89795 22 6C22 7.10205 21.104 8 20 8C18.896 8 18 7.10205 18 6C18 4.89795 18.896 4 20 4ZM18 21.1201C15.5322 21.98 14.02 23.0161 13.9141 24.748C13.8262 26.1821 14.9219 27.834 18 28.1519L18 21.1201Z" clip-rule="evenodd" fill="#FFFFFF" fill-opacity="1.000000" fill-rule="evenodd"/>
</svg>
