<svg width="24.000000" height="24.000000" viewBox="0 0 24 24" fill="none" xmlns="http://www.w3.org/2000/svg" xmlns:xlink="http://www.w3.org/1999/xlink">
	<desc>
			Created with Pixso.
	</desc>
	<defs/>
	<path id="Shape" d="M17.667 12.6118C18.1021 12.5552 18.532 12.417 18.9529 12.2139L19.312 12.644C19.76 13.1929 20 13.9019 20 14.647C20 15.7632 19.4651 16.8799 18.5081 17.5439L9.08105 23.4902C8.55103 23.8232 7.83594 24 7.23999 24C5.1521 24 3.39502 22.2119 3.62695 20.0068C3.72705 19.061 4.18188 18.23 5.00391 17.5649L6.28101 19.1099C5.68896 19.5562 5.521 20.1348 5.677 20.7642C5.81812 21.3252 6.30688 21.98 7.22607 21.98C7.84302 21.98 8.37793 21.6489 8.65503 21.0942C8.93188 20.54 8.87598 19.9141 8.50488 19.4209C8.44995 19.3491 2.31592 11.958 0.888916 10.1641C0.308105 9.43311 0 8.54688 0 7.67676C0 6.26221 0.815918 5.06592 2.05005 4.4751C9.57666 0.621582 10.3545 0.0864258 11.1741 0.012207C11.3062 0 11.4395 0 11.6023 0L11.615 0C12.834 0 13.9751 0.652832 14.593 1.70605C15.4851 3.22803 15.085 5.16797 13.6631 6.21924L5.86694 10.665L4.53809 9.04102C5.12598 8.58691 5.32104 7.99707 5.16089 7.35596C5.02002 6.7959 4.53101 6.14111 3.61206 6.14111C3.02393 6.14111 2.44995 6.50977 2.18188 7.05908C1.9021 7.62988 2.00806 8.2749 2.47705 8.875C3.88501 10.6768 9.53101 17.4961 10 18.0532C10.468 18.6099 10.752 19.2798 10.8259 20.001C11.8711 19.3418 16.439 16.4629 17.2119 15.9658C18.0471 15.4312 18.2109 14.4189 17.5879 13.7271L17.29 13.3848C17.4209 13.106 17.5471 12.8428 17.667 12.6118ZM21.155 8.64014C20.2461 10.1592 18.8279 11.707 17.0581 11.644C16.645 12.3501 16.2061 13.3208 15.719 14.4468L14.407 15C15.343 12.6572 16.6379 10.0391 18.105 8.00586C17.4351 8.53516 16.3589 9.64307 15.4431 10.7891C14.345 8.96094 15.1431 7.09814 16.416 5.60986C16.437 6.25098 16.7749 6.80615 17.0171 7.08496C16.9299 6.55518 16.9031 5.59619 17.2119 4.73389C17.9299 4.00195 18.5759 3.46289 19.325 2.97412C19.2419 3.45215 19.405 4 19.5869 4.33496C19.6111 3.84521 19.811 2.90479 20.1079 2.49512C21.032 1.76807 22.4399 1.12207 24 1C23.9189 1.97314 23.564 3.5752 22.9761 4.604C22.4609 5.00781 21.7549 5.28418 21.1851 5.43701C21.678 5.52588 22.2161 5.51416 22.679 5.43604C22.4099 6.1792 22.127 6.86377 21.6809 7.71191C21.002 8.18018 20.103 8.44385 19.478 8.53711C19.938 8.72412 20.75 8.78223 21.155 8.64014ZM11.02 2.15186C11.208 2.06494 11.418 2.01807 11.6289 2.01807C12.1609 2.01807 12.626 2.29883 12.8721 2.77002C13.1841 3.36621 13.0979 4.23877 12.324 4.68213L7.22705 7.56982C7.17603 6.48096 6.64795 5.48877 5.77197 4.83789L11.02 2.15186ZM7.95898 13.2261L7.31396 12.4448L12.064 9.66699L12.7319 10.4351L7.95898 13.2261ZM14.2739 12.207L13.606 11.4399L8.80103 14.248L9.44604 15.0288L14.2739 12.207ZM13.478 14.6299L13.1169 15.5352L10.9231 16.8188L10.2781 16.0381L13.7271 14.021L13.478 14.6299Z" clip-rule="evenodd" fill="#333333" fill-opacity="1.000000" fill-rule="evenodd"/>
</svg>
