<svg width="16.000000" height="16.000000" viewBox="0 0 16 16" fill="none" xmlns="http://www.w3.org/2000/svg" xmlns:xlink="http://www.w3.org/1999/xlink">
	<desc>
			Created with Pixso.
	</desc>
	<defs/>
	<path id="Vector" d="M8 12L3 7L4.3999 5.55005L7 8.1499L7 0L9 0L9 8.1499L11.6001 5.55005L13 7L8 12ZM2 16C1.4502 16 0.979004 15.804 0.586914 15.4121C0.194824 15.02 -0.000488281 14.5493 0 14L0 11L2 11L2 14L14 14L14 11L16 11L16 14C16 14.55 15.8042 15.021 15.4121 15.4131C15.02 15.8049 14.5493 16.0007 14 16L2 16Z" fill="#FFFFFF" fill-opacity="1.000000" fill-rule="nonzero"/>
</svg>
